<?xml version="1.0" encoding="utf-8"?>
<!-- Generator: Adobe Illustrator 18.1.1, SVG Export Plug-In . SVG Version: 6.00 Build 0)  -->
<svg version="1.1" id="Capa_1" xmlns="http://www.w3.org/2000/svg" xmlns:xlink="http://www.w3.org/1999/xlink" x="0px" y="0px"
	 viewBox="0 0 200 200" style="enable-background:new 0 0 200 200;" xml:space="preserve">
<style type="text/css">
	.st0{fill:#0A94D6;}
	.st1{fill:#0A94D6;stroke:#0A94D6;stroke-width:2.6375;stroke-miterlimit:10;}
</style>
<g>
	<path class="st0" d="M54.2,98.7l9.2-1.4l-6.1-41.8l-31.4,4.6c-7.9,1.2-13.4,8.6-12.3,16.5l1.9,13.1c1.1,7.3,7.6,12.7,14.8,12.4
		l36.4,60c0.3,0.5,0.9,0.6,1.4,0.3l17.3-10.5c0.5-0.3,0.6-0.9,0.3-1.4L54.2,98.7z"/>
	<path class="st0" d="M158.6,61.7c-1.2-8.1-7.7-13.7-14.5-12.8l-4.4-29.2L65.3,53.4l6.4,43.4l81.7,15.1l-4.9-33.7
		C155.3,77.1,159.8,69.8,158.6,61.7z"/>
	<path class="st1" d="M193,58.5l-21.4,3.2c-0.2,0-0.5-0.1-0.5-0.4l-0.6-3.8c0-0.2,0.1-0.5,0.4-0.5l21.4-3.2c0.2,0,0.5,0.1,0.5,0.4
		l0.6,3.8C193.4,58.3,193.2,58.5,193,58.5z"/>
	<path class="st1" d="M184,36.8l-19.4,9.7c-0.2,0.1-0.5,0-0.6-0.2l-1.7-3.5c-0.1-0.2,0-0.5,0.2-0.6l19.4-9.7c0.2-0.1,0.5,0,0.6,0.2
		l1.7,3.5C184.3,36.5,184.2,36.7,184,36.8z"/>
	<path class="st1" d="M189.9,77.2l-21.3-3.6c-0.2,0-0.5,0.1-0.5,0.4l-0.7,3.8c0,0.2,0.1,0.5,0.4,0.5l21.3,3.6c0.2,0,0.5-0.1,0.5-0.4
		l0.7-3.8C190.3,77.5,190.2,77.2,189.9,77.2z"/>
</g>
</svg>
