<?xml version="1.0" encoding="utf-8"?>
<!-- Generator: Adobe Illustrator 18.1.1, SVG Export Plug-In . SVG Version: 6.00 Build 0)  -->
<svg version="1.1" id="Capa_1" xmlns="http://www.w3.org/2000/svg" xmlns:xlink="http://www.w3.org/1999/xlink" x="0px" y="0px"
	 viewBox="0 0 300 300" style="enable-background:new 0 0 300 300;" xml:space="preserve">
<style type="text/css">
	.st0{fill:#0A94D6;}
</style>
<g>
	<path class="st0" d="M49.6,262.3c0,6.5-1.8,11.3-5.3,14.7c-3.5,3.5-8.4,5.1-15,5.1H18.7v-38.7h11.8c6,0,10.7,1.7,13.9,4.9
		C47.9,251.6,49.6,256.3,49.6,262.3z M44.9,262.4c0-5.1-1.2-8.9-3.8-11.4c-2.6-2.5-6.3-3.9-11.3-3.9h-6.6V278h5.4
		c5.4,0,9.5-1.3,12.2-3.9C43.6,271.5,44.9,267.7,44.9,262.4z"/>
	<path class="st0" d="M75.4,281.9l-0.9-4.1h-0.2c-1.5,1.8-2.8,3-4.3,3.8c-1.5,0.6-3.3,0.9-5.4,0.9c-2.8,0-5.1-0.8-6.7-2.3
		s-2.4-3.6-2.4-6.3c0-5.8,4.6-8.8,14.1-9.1l4.9-0.1v-1.8c0-2.3-0.4-3.9-1.5-5.1s-2.6-1.7-4.7-1.7c-2.4,0-5.1,0.8-8.3,2.3l-1.3-3.3
		c1.5-0.8,3-1.3,4.6-1.8c1.7-0.5,3.4-0.6,5.1-0.6c3.4,0,6,0.8,7.6,2.3c1.7,1.5,2.6,4,2.6,7.4v19.8h-3.3V281.9z M65.4,278.9
		c2.7,0,4.9-0.8,6.4-2.3s2.4-3.6,2.4-6.3v-2.5l-4.3,0.1c-3.5,0.2-6,0.6-7.5,1.7c-1.5,0.9-2.3,2.4-2.3,4.5c0,1.7,0.5,2.8,1.5,3.6
		C62.4,278.5,63.8,278.9,65.4,278.9z"/>
	<path class="st0" d="M106.4,274.1c0,2.7-1,4.8-3,6.3c-1.9,1.5-4.8,2.3-8.4,2.3c-3.9,0-6.9-0.6-9-1.8v-4c1.4,0.8,2.9,1.2,4.5,1.7
		s3.1,0.6,4.6,0.6c2.3,0,4.1-0.3,5.3-1c1.2-0.8,1.8-1.8,1.8-3.3c0-1.2-0.5-2.1-1.5-2.9c-1.1-0.8-2.9-1.8-5.7-2.8
		c-2.7-1.1-4.6-2-5.7-2.7c-1.2-0.8-1.9-1.6-2.6-2.5c-0.6-0.9-0.9-2.1-0.9-3.5c0-2.4,0.9-4.2,2.8-5.5c2-1.4,4.5-2.1,7.9-2.1
		c3.2,0,6.2,0.6,9.2,2l-1.5,3.6c-2.8-1.2-5.5-1.8-7.9-1.8c-2.1,0-3.6,0.3-4.7,1c-1.1,0.6-1.6,1.5-1.6,2.7c0,0.8,0.1,1.5,0.6,2
		c0.5,0.6,1.1,1,2,1.5c0.9,0.5,2.5,1.2,5.1,2.1c3.5,1.2,5.7,2.6,6.9,3.8C105.8,270.5,106.4,272.2,106.4,274.1z"/>
	<path class="st0" d="M133.4,281.9v-18.8c0-2.4-0.6-4.1-1.6-5.3c-1-1.2-2.7-1.8-5.1-1.8c-3,0-5.3,0.9-6.8,2.6
		c-1.5,1.6-2.1,4.3-2.1,8.1v15.2h-4.3v-41.1h4.3v12.5c0,1.5,0,2.7-0.2,3.8h0.3c0.9-1.4,2.1-2.6,3.8-3.3c1.6-0.8,3.4-1.2,5.4-1.2
		c3.6,0,6.1,0.9,7.9,2.5s2.7,4.4,2.7,8.1v18.9h-4.4V281.9z"/>
	<path class="st0" d="M160.3,252.5c3.8,0,6.8,1.3,8.9,3.9c2.1,2.5,3.1,6.3,3.1,11.1s-1,8.4-3.1,11.1c-2.1,2.7-5.1,3.9-8.9,3.9
		c-2,0-3.6-0.3-5.1-1s-2.9-1.8-3.9-3.2H151l-0.9,3.8h-3.1V241h4.4v10c0,2.3,0,4.2-0.2,6h0.2C153.2,254,156.2,252.5,160.3,252.5z
		 M159.6,256.3c-3,0-5.1,0.9-6.4,2.5c-1.4,1.7-2,4.7-2,8.7s0.8,7,2.1,8.7c1.4,1.8,3.6,2.7,6.6,2.7c2.7,0,4.6-1.1,6-3
		c1.3-2,1.9-4.8,1.9-8.4c0-3.8-0.6-6.6-1.9-8.4C164.6,257.3,162.4,256.3,159.6,256.3z"/>
	<path class="st0" d="M205,267.5c0,4.7-1.2,8.4-3.6,11.1c-2.4,2.7-5.7,4.1-9.9,4.1c-2.5,0-4.9-0.6-6.9-1.8c-2-1.2-3.6-3-4.6-5.3
		c-1.1-2.3-1.6-4.9-1.6-7.9c0-4.7,1.2-8.4,3.6-11.1c2.4-2.7,5.7-3.9,9.9-3.9c4,0,7.3,1.3,9.6,4C203.8,259.3,205,262.8,205,267.5z
		 M182.9,267.5c0,3.8,0.8,6.5,2.3,8.4c1.5,1.9,3.6,2.8,6.6,2.8c2.8,0,5.1-0.9,6.6-2.8c1.5-2,2.3-4.8,2.3-8.4c0-3.8-0.8-6.5-2.3-8.4
		c-1.5-1.9-3.8-2.8-6.6-2.8c-2.8,0-5.1,0.9-6.4,2.8C183.6,260.9,182.9,263.8,182.9,267.5z"/>
	<path class="st0" d="M230.5,281.9l-0.9-4.1h-0.1c-1.5,1.8-2.9,3-4.4,3.8c-1.5,0.6-3.3,0.9-5.4,0.9c-2.9,0-5.1-0.8-6.8-2.3
		c-1.7-1.5-2.4-3.6-2.4-6.3c0-5.8,4.7-8.8,14.1-9.1l4.9-0.1v-1.8c0-2.3-0.4-3.9-1.5-5.1s-2.6-1.7-4.7-1.7c-2.4,0-5.1,0.8-8.3,2.3
		l-1.3-3.3c1.5-0.8,3-1.3,4.7-1.8c1.7-0.5,3.5-0.6,5.1-0.6c3.4,0,6,0.8,7.7,2.3s2.5,4,2.5,7.4v19.8h-3.3V281.9z M220.5,278.9
		c2.7,0,5-0.8,6.5-2.3s2.4-3.6,2.4-6.3v-2.5l-4.3,0.1c-3.5,0.2-6,0.6-7.5,1.7c-1.5,0.9-2.3,2.4-2.3,4.5c0,1.7,0.5,2.8,1.5,3.6
		C217.4,278.5,218.8,278.9,220.5,278.9z"/>
	<path class="st0" d="M256,252.5c1.3,0,2.4,0.2,3.5,0.3l-0.6,4c-1.2-0.3-2.3-0.4-3.2-0.4c-2.4,0-4.3,0.9-6,2.8
		c-1.7,2-2.6,4.2-2.6,7.1v15.6h-4.3v-29h3.6l0.5,5.4h0.2c1.1-2,2.4-3.3,3.9-4.4C252.5,253,254.2,252.5,256,252.5z"/>
	<path class="st0" d="M284.6,278h-0.3c-2.1,3-5.1,4.3-9.1,4.3c-3.8,0-6.8-1.3-8.9-3.9c-2.1-2.5-3.1-6.3-3.1-11.1
		c0-4.8,1-8.5,3.1-11.1c2.1-2.5,5.1-3.9,8.9-3.9c3.9,0,6.9,1.5,9,4.3h0.3l-0.1-2.1l-0.2-2.1v-11.8h4.3v41.1h-3.6L284.6,278z
		 M275.8,278.8c3,0,5.1-0.8,6.5-2.4c1.3-1.6,2-4.2,2-7.9v-0.9c0-4-0.8-7-2.1-8.8c-1.4-1.8-3.6-2.7-6.6-2.7c-2.5,0-4.5,1-5.8,3
		s-2.1,4.8-2.1,8.4c0,3.8,0.8,6.5,2.1,8.4C271,277.7,273.2,278.8,275.8,278.8z"/>
</g>
<g>
	<path class="st0" d="M213,75.9l-34.6-31.8c-1.2-1.1-1.2-3-0.1-4.1l5.4-5.8c1.1-1.2,3-1.2,4.1-0.2l34.6,31.8c1.2,1.1,1.2,3,0.2,4.1
		l-5.4,5.9C216,77,214.3,77.1,213,75.9z"/>
	<polygon class="st0" points="93.1,182.6 83,182.8 82.1,172.5 139.9,110 150.6,120 	"/>
	<path class="st0" d="M188.1,116.8l-3.1-2.9l23.5-36.1l-31.5-29l-34,26.4l-3.1-2.8c-6.9-6.5-17.9-6-24.3,1c-1.2,1.4-2.1,2.7-2.8,4.2
		l72.4,66.6c1.5-0.9,2.8-1.9,3.9-3.1C195.7,134,195.2,123.2,188.1,116.8z"/>
</g>
</svg>
