<?xml version="1.0" encoding="utf-8"?>
<!-- Generator: Adobe Illustrator 18.1.1, SVG Export Plug-In . SVG Version: 6.00 Build 0)  -->
<svg version="1.1" id="Capa_1" xmlns="http://www.w3.org/2000/svg" xmlns:xlink="http://www.w3.org/1999/xlink" x="0px" y="0px"
	 viewBox="0 0 200 200" style="enable-background:new 0 0 200 200;" xml:space="preserve">
<style type="text/css">
	.st0{fill:#0A94D6;}
</style>
<path class="st0" d="M125.9,39.7c0,0-3.4,3.7-3.4,11c0,7,3.4,13.5,3.4,13.5c15.6,8.5,26.2,25,26.2,44c0,27.6-22.4,50.1-50.1,50.1
	c-27.6,0-50.1-22.4-50.1-50.1c0-19,10.6-35.5,26.2-44c0,0,4.2-5,4.2-13.5c0-7.3-4.2-11-4.2-11c-28.3,9.9-48.6,36.8-48.6,68.4
	c0,40.1,32.5,72.5,72.5,72.5c40.1,0,72.5-32.5,72.5-72.5C174.5,76.5,154.2,49.6,125.9,39.7z"/>
<path class="st0" d="M108.6,94.9H95.4c-2.8,0-5.1-2.3-5.1-5.1V20.1c0-2.8,2.3-5.1,5.1-5.1h13.3c2.8,0,5.1,2.3,5.1,5.1v69.6
	C113.8,92.6,111.5,94.9,108.6,94.9z"/>
</svg>
