<?xml version="1.0" encoding="utf-8"?>
<!-- Generator: Adobe Illustrator 18.1.1, SVG Export Plug-In . SVG Version: 6.00 Build 0)  -->
<svg version="1.1" id="Capa_1" xmlns="http://www.w3.org/2000/svg" xmlns:xlink="http://www.w3.org/1999/xlink" x="0px" y="0px"
	 viewBox="0 0 500 500" style="enable-background:new 0 0 500 500;" xml:space="preserve">
<style type="text/css">
	.st0{fill:#FFFFFF;}
</style>
<g>
	<path class="st0" d="M128.1,393.2c0,13.7-3.5,24.4-10.4,32.3c-6.9,7.8-16.5,11.7-28.8,11.7c-12.6,0-22.3-3.8-29.1-11.5
		c-6.8-7.7-10.3-18.6-10.3-32.6c0-13.9,3.4-24.7,10.3-32.4c6.9-7.7,16.6-11.5,29.2-11.5c12.3,0,21.9,3.9,28.8,11.7
		C124.7,368.8,128.1,379.5,128.1,393.2z M60,393.2c0,11.6,2.5,20.4,7.4,26.3c4.9,6,12.1,9,21.5,9c9.5,0,16.6-3,21.5-8.9
		c4.8-6,7.2-14.7,7.2-26.4c0-11.5-2.4-20.2-7.2-26.2c-4.8-5.9-11.9-8.9-21.4-8.9c-9.5,0-16.7,3-21.6,9C62.5,373.1,60,381.8,60,393.2
		z"/>
	<path class="st0" d="M174.6,379.6h-16.3v56.5h-9.7v-56.5h-11.5v-4.4l11.5-3.5v-3.6c0-15.7,6.9-23.6,20.6-23.6c3.4,0,7.4,0.7,11.9,2
		l-2.5,7.8c-3.7-1.2-6.9-1.8-9.6-1.8c-3.7,0-6.4,1.2-8.1,3.7c-1.8,2.4-2.6,6.3-2.6,11.7v4.2h16.3V379.6z"/>
	<path class="st0" d="M213.3,437.3c-9.5,0-16.9-2.9-22.4-8.7c-5.5-5.8-8.2-13.8-8.2-24c0-10.3,2.5-18.5,7.6-24.6
		c5.1-6.1,11.9-9.1,20.5-9.1c8,0,14.4,2.6,19.1,7.9s7,12.2,7,20.9v6.1h-44.1c0.2,7.5,2.1,13.2,5.7,17.1c3.6,3.9,8.7,5.8,15.2,5.8
		c6.9,0,13.7-1.4,20.5-4.3v8.7c-3.4,1.5-6.7,2.5-9.7,3.2C221.4,436.9,217.7,437.3,213.3,437.3z M210.7,379c-5.1,0-9.2,1.7-12.3,5
		c-3.1,3.4-4.9,8-5.4,13.9h33.5c0-6.1-1.4-10.8-4.1-14.1C219.7,380.6,215.8,379,210.7,379z"/>
	<path class="st0" d="M282.7,370.8c2.8,0,5.4,0.2,7.7,0.7l-1.3,9c-2.7-0.6-5-0.9-7-0.9c-5.2,0-9.6,2.1-13.3,6.3
		c-3.7,4.2-5.5,9.4-5.5,15.7v34.4h-9.7V372h8l1.1,11.9h0.5c2.4-4.2,5.2-7.4,8.6-9.6C275,372,278.7,370.8,282.7,370.8z"/>
	<path class="st0" d="M323,429.2c1.7,0,3.4-0.1,5-0.4c1.6-0.3,2.9-0.5,3.8-0.8v7.4c-1.1,0.5-2.6,0.9-4.6,1.3c-2,0.3-3.9,0.5-5.5,0.5
		c-12.4,0-18.6-6.5-18.6-19.6v-38.1h-9.2v-4.7l9.2-4l4.1-13.7h5.6V372h18.6v7.5h-18.6v37.7c0,3.9,0.9,6.8,2.7,8.9
		C317.3,428.2,319.8,429.2,323,429.2z"/>
	<path class="st0" d="M384,436.1L382,427h-0.5c-3.2,4-6.4,6.7-9.6,8.2c-3.2,1.4-7.1,2.1-11.9,2.1c-6.4,0-11.3-1.6-14.9-4.9
		c-3.6-3.3-5.4-7.9-5.4-14c0-12.9,10.3-19.7,31-20.3l10.9-0.4v-4c0-5-1.1-8.7-3.2-11.1c-2.2-2.4-5.6-3.6-10.4-3.6
		c-5.3,0-11.4,1.6-18.1,4.9l-3-7.4c3.2-1.7,6.6-3.1,10.4-4c3.8-1,7.5-1.5,11.3-1.5c7.6,0,13.3,1.7,17,5.1c3.7,3.4,5.5,8.8,5.5,16.3
		v43.7H384z M362,429.2c6,0,10.8-1.7,14.2-5c3.4-3.3,5.2-7.9,5.2-13.9v-5.8l-9.7,0.4c-7.7,0.3-13.3,1.5-16.7,3.6
		c-3.4,2.1-5.1,5.4-5.1,9.9c0,3.5,1.1,6.2,3.2,8C355.3,428.3,358.2,429.2,362,429.2z"/>
	<path class="st0" d="M452.5,418.6c0,6-2.2,10.6-6.7,13.8s-10.7,4.9-18.7,4.9c-8.5,0-15.1-1.3-19.9-4v-9c3.1,1.6,6.4,2.8,9.9,3.7
		c3.5,0.9,6.9,1.3,10.2,1.3c5.1,0,9-0.8,11.7-2.4c2.7-1.6,4.1-4.1,4.1-7.4c0-2.5-1.1-4.6-3.2-6.4s-6.4-3.9-12.7-6.3
		c-6-2.2-10.2-4.2-12.7-5.8s-4.4-3.5-5.6-5.6c-1.2-2.1-1.8-4.6-1.8-7.5c0-5.2,2.1-9.3,6.4-12.4c4.2-3,10.1-4.5,17.5-4.5
		c6.9,0,13.6,1.4,20.2,4.2l-3.4,7.9c-6.4-2.6-12.3-4-17.5-4c-4.6,0-8.1,0.7-10.4,2.2s-3.5,3.4-3.5,6c0,1.7,0.4,3.2,1.3,4.4
		c0.9,1.2,2.3,2.4,4.2,3.4c1.9,1.1,5.7,2.7,11.2,4.7c7.6,2.8,12.7,5.6,15.4,8.4C451.1,410.8,452.5,414.4,452.5,418.6z"/>
</g>
<g>
	<g>
		<g>
			<path class="st0" d="M185.1,126.3c-7.4-11.9-9.3-26.3-5-39.8c1.6-5,4.7-12.4,10.4-13.7c5.4-1.3,11.9,2.5,17,3.9
				c14.6,3.9,29.6-1.9,33.1-17.8c3.5-16-6.3-28.8-16.6-39.8c-8-8.6-21,4.3-12.9,12.9c4.5,4.8,9.9,10.1,11.6,16.7
				c0.9,3.4,0.7,8.9-3,10.7c-4,1.9-10.4-1.4-14.2-2.5c-6.9-2.2-14.3-3.6-21.4-1.3c-14.5,4.7-21.7,21.4-23.8,35.3
				c-2.3,15.5,0.7,31.3,8.9,44.7C175.5,145.5,191.3,136.3,185.1,126.3L185.1,126.3z"/>
		</g>
	</g>
	<g>
		<path class="st0" d="M366.4,208.5l-124.5-97.6c-11.2-8.8-73.5-19.5-82.3-8.3l-23.7,30.2c-8.8,11.2,16.5,69.1,27.7,77.9l124.5,97.6
			c7.9,6.2,19.5,4.8,25.7-3.1l55.7-71C375.7,226.3,374.3,214.7,366.4,208.5z M203.8,161c-6.8,8.7-19.3,10.2-28,3.4
			c-8.7-6.8-10.2-19.3-3.4-28c6.8-8.7,19.3-10.2,28-3.4C209.1,139.8,210.6,152.3,203.8,161z M238.1,164.7
			c11.1-13.8,24.9-15.5,34-8.2c9.7,7.8,10.1,20.3-0.5,33.5c-11.7,14.6-25.1,15.6-34.1,8.5C228.9,191.5,227,178.7,238.1,164.7z
			 M293.5,254.6c-11.7,14.6-25.1,15.6-34,8.6c-8.6-6.9-10.5-19.8,0.5-33.7c11.2-13.9,24.9-15.6,34.1-8.3
			C303.8,229,304.1,241.4,293.5,254.6z M219.5,231.7l-6-4.8l97.9-38.8l5.9,4.8L219.5,231.7z"/>
		<path class="st0" d="M289.3,226.6c-5.8-4.7-14.6-0.3-21.6,8.4c-7.2,8.7-9.2,18.2-3.4,22.8c6.2,4.9,14.2,0.6,21.5-8.6
			C292.6,240.8,295.8,231.8,289.3,226.6z"/>
		<path class="st0" d="M242.2,193c6.2,4.9,14.2,0.6,21.5-8.6c6.7-8.4,9.9-17.4,3.4-22.6c-5.8-4.7-14.5-0.3-21.5,8.5
			C238.4,179,236.4,188.3,242.2,193z"/>
	</g>
</g>
</svg>
