<?xml version="1.0" encoding="utf-8"?>
<!-- Generator: Adobe Illustrator 18.1.1, SVG Export Plug-In . SVG Version: 6.00 Build 0)  -->
<svg version="1.1" id="Capa_1" xmlns="http://www.w3.org/2000/svg" xmlns:xlink="http://www.w3.org/1999/xlink" x="0px" y="0px"
	 viewBox="0 0 200 200" style="enable-background:new 0 0 200 200;" xml:space="preserve">
<style type="text/css">
	.st0{fill:#FFFFFF;}
	.st1{fill:#FFFFFF;stroke:#FFFFFF;stroke-width:0.5248;stroke-miterlimit:10;}
</style>
<g>
	<polygon class="st0" points="100,18.5 52.5,70.9 68.1,70.9 68.1,116.6 100,116.6 100,70.9 147.5,70.9 	"/>
	<g>
		<polygon class="st1" points="128.9,103.8 135,98.2 146.6,110.9 140.4,116.5 		"/>
		<path class="st1" d="M124.7,75.4c-7.4-2.6-15.5,1.4-18.1,8.8c-0.5,1.5-0.8,3.1-0.8,4.6c0,5.9,3.7,11.4,9.6,13.4
			c7.4,2.6,15.5-1.4,18.1-8.8c0.5-1.5,0.8-3.1,0.8-4.6C134.3,82.9,130.6,77.4,124.7,75.4z M129.9,92.2c-0.9,2.6-2.8,4.7-5.2,5.9
			c-2.5,1.2-5.3,1.4-7.9,0.5c-4.1-1.4-7-5.4-7-9.8c0-1.2,0.2-2.3,0.6-3.4l0,0c0.9-2.6,2.8-4.7,5.2-5.9s5.3-1.4,7.9-0.5
			c4.1,1.4,7,5.4,7,9.8C130.5,89.9,130.3,91.1,129.9,92.2z"/>
	</g>
</g>
<g>
	<path class="st0" d="M46,174.9L41.7,164H28l-4.2,10.9h-4l13.5-34.4h3.4l13.5,34.4H46z M40.5,160.4l-4-10.6c-0.5-1.3-1-3-1.6-4.9
		c-0.3,1.5-0.8,3.1-1.5,4.9l-4,10.6H40.5z"/>
	<path class="st0" d="M64.5,175.3c-3.7,0-6.6-1.1-8.6-3.4s-3.1-5.5-3.1-9.7c0-4.3,1-7.6,3.1-10s5-3.5,8.8-3.5c1.2,0,2.5,0.1,3.7,0.4
		s2.2,0.6,2.9,0.9l-1.2,3.3c-0.9-0.3-1.8-0.6-2.8-0.9s-1.9-0.3-2.7-0.3c-5.2,0-7.8,3.3-7.8,10c0,3.2,0.6,5.6,1.9,7.3
		s3.2,2.5,5.7,2.5c2.1,0,4.3-0.5,6.6-1.4v3.4C69.3,174.9,67.1,175.3,64.5,175.3z"/>
	<path class="st0" d="M85.4,172.1c0.7,0,1.4-0.1,2-0.2s1.1-0.2,1.5-0.3v3c-0.4,0.2-1,0.4-1.9,0.5s-1.6,0.2-2.2,0.2
		c-5,0-7.5-2.6-7.5-7.9v-15.3h-3.7v-1.9l3.7-1.6l1.6-5.5h2.3v6h7.5v3h-7.5v15.1c0,1.5,0.4,2.7,1.1,3.6S84.1,172.1,85.4,172.1z"/>
	<path class="st0" d="M93.7,142.2c0-0.9,0.2-1.5,0.7-2s1-0.6,1.6-0.6c0.6,0,1.2,0.2,1.6,0.6s0.7,1.1,0.7,1.9s-0.2,1.5-0.7,2
		s-1,0.6-1.6,0.6c-0.7,0-1.2-0.2-1.6-0.6S93.7,143.1,93.7,142.2z M97.9,174.9H94v-25.7h3.9V174.9z"/>
	<path class="st0" d="M111.8,174.9l-9.8-25.7h4.2l5.5,15.2c1.3,3.6,2,5.9,2.2,6.9h0.2c0.2-0.8,0.7-2.5,1.6-5.1s3-8.3,6.2-17h4.2
		l-9.8,25.7H111.8z"/>
	<path class="st0" d="M152.4,162c0,4.2-1.1,7.5-3.2,9.8s-5,3.5-8.7,3.5c-2.3,0-4.3-0.5-6.1-1.6s-3.2-2.6-4.1-4.6s-1.5-4.4-1.5-7.1
		c0-4.2,1-7.4,3.1-9.8s5-3.5,8.7-3.5c3.6,0,6.4,1.2,8.6,3.6S152.4,157.9,152.4,162z M132.8,162c0,3.3,0.7,5.8,2,7.5s3.2,2.6,5.8,2.6
		s4.5-0.9,5.8-2.6s2-4.2,2-7.5c0-3.3-0.7-5.7-2-7.4s-3.3-2.5-5.8-2.5c-2.5,0-4.5,0.8-5.8,2.5S132.8,158.7,132.8,162z"/>
	<path class="st0" d="M175.8,167.9c0,2.4-0.9,4.2-2.7,5.5s-4.3,1.9-7.5,1.9c-3.4,0-6.1-0.5-8-1.6v-3.6c1.2,0.6,2.6,1.1,4,1.5
		s2.8,0.5,4.1,0.5c2,0,3.6-0.3,4.7-1s1.6-1.6,1.6-3c0-1-0.4-1.9-1.3-2.6s-2.6-1.6-5.1-2.5c-2.4-0.9-4.1-1.7-5.1-2.3
		s-1.8-1.4-2.3-2.3s-0.7-1.9-0.7-3c0-2.1,0.9-3.7,2.6-5s4-1.8,7-1.8c2.8,0,5.5,0.6,8.1,1.7l-1.4,3.2c-2.6-1.1-4.9-1.6-7-1.6
		c-1.8,0-3.2,0.3-4.2,0.9s-1.4,1.4-1.4,2.4c0,0.7,0.2,1.3,0.5,1.8s0.9,0.9,1.7,1.4s2.3,1.1,4.5,1.9c3,1.1,5.1,2.2,6.2,3.4
		S175.8,166.1,175.8,167.9z"/>
</g>
</svg>
