<?xml version="1.0" encoding="utf-8"?>
<!-- Generator: Adobe Illustrator 18.1.1, SVG Export Plug-In . SVG Version: 6.00 Build 0)  -->
<svg version="1.1" id="Capa_1" xmlns="http://www.w3.org/2000/svg" xmlns:xlink="http://www.w3.org/1999/xlink" x="0px" y="0px"
	 viewBox="0 0 200 200" style="enable-background:new 0 0 200 200;" xml:space="preserve">
<style type="text/css">
	.st0{fill:#FFFFFF;}
</style>
<g>
	<path class="st0" d="M31.7,169.5c0,4.3-1.2,7.5-3.5,9.8s-5.6,3.4-10,3.4h-7.1v-25.8h7.9c4,0,7.1,1.1,9.3,3.3
		C30.6,162.4,31.7,165.5,31.7,169.5z M28.6,169.6c0-3.4-0.8-5.9-2.5-7.6c-1.7-1.7-4.2-2.6-7.5-2.6h-4.4V180h3.6
		c3.6,0,6.3-0.9,8.1-2.6S28.6,173.1,28.6,169.6z"/>
	<path class="st0" d="M48.9,182.6l-0.6-2.7h-0.1c-1,1.2-1.9,2-2.9,2.5c-1,0.4-2.2,0.6-3.6,0.6c-1.9,0-3.4-0.5-4.5-1.5
		c-1.1-1-1.6-2.4-1.6-4.2c0-3.9,3.1-5.9,9.4-6.1l3.3-0.1v-1.2c0-1.5-0.3-2.6-1-3.4s-1.7-1.1-3.1-1.1c-1.6,0-3.4,0.5-5.5,1.5
		l-0.9-2.2c1-0.5,2-0.9,3.1-1.2c1.1-0.3,2.3-0.4,3.4-0.4c2.3,0,4,0.5,5.1,1.5c1.1,1,1.7,2.7,1.7,4.9v13.2H48.9z M42.3,180.6
		c1.8,0,3.3-0.5,4.3-1.5c1-1,1.6-2.4,1.6-4.2v-1.7l-2.9,0.1c-2.3,0.1-4,0.4-5,1.1c-1,0.6-1.5,1.6-1.5,3c0,1.1,0.3,1.9,1,2.4
		C40.3,180.3,41.2,180.6,42.3,180.6z"/>
	<path class="st0" d="M69.6,177.4c0,1.8-0.7,3.2-2,4.2s-3.2,1.5-5.6,1.5c-2.6,0-4.6-0.4-6-1.2v-2.7c0.9,0.5,1.9,0.8,3,1.1
		c1.1,0.3,2.1,0.4,3.1,0.4c1.5,0,2.7-0.2,3.5-0.7c0.8-0.5,1.2-1.2,1.2-2.2c0-0.8-0.3-1.4-1-1.9c-0.7-0.5-1.9-1.2-3.8-1.9
		c-1.8-0.7-3.1-1.3-3.8-1.8c-0.8-0.5-1.3-1.1-1.7-1.7c-0.4-0.6-0.6-1.4-0.6-2.3c0-1.6,0.6-2.8,1.9-3.7s3-1.4,5.3-1.4
		c2.1,0,4.1,0.4,6.1,1.3l-1,2.4c-1.9-0.8-3.7-1.2-5.3-1.2c-1.4,0-2.4,0.2-3.1,0.7c-0.7,0.4-1.1,1-1.1,1.8c0,0.5,0.1,1,0.4,1.3
		c0.3,0.4,0.7,0.7,1.3,1s1.7,0.8,3.4,1.4c2.3,0.8,3.8,1.7,4.6,2.5C69.2,175,69.6,176.1,69.6,177.4z"/>
	<path class="st0" d="M87.6,182.6v-12.5c0-1.6-0.4-2.7-1.1-3.5s-1.8-1.2-3.4-1.2c-2,0-3.5,0.6-4.5,1.7s-1.4,2.9-1.4,5.4v10.1h-2.9
		v-27.4h2.9v8.3c0,1,0,1.8-0.1,2.5h0.2c0.6-0.9,1.4-1.7,2.5-2.2c1.1-0.5,2.3-0.8,3.6-0.8c2.4,0,4.1,0.6,5.3,1.7
		c1.2,1.1,1.8,2.9,1.8,5.4v12.6H87.6z"/>
	<path class="st0" d="M105.5,163c2.5,0,4.5,0.9,5.9,2.6c1.4,1.7,2.1,4.2,2.1,7.4s-0.7,5.6-2.1,7.4s-3.4,2.6-5.9,2.6
		c-1.3,0-2.4-0.2-3.4-0.7c-1-0.5-1.9-1.2-2.6-2.1h-0.2l-0.6,2.5h-2.1v-27.4h2.9v6.7c0,1.5,0,2.8-0.1,4h0.1
		C100.8,164,102.8,163,105.5,163z M105.1,165.5c-2,0-3.4,0.6-4.3,1.7c-0.9,1.1-1.3,3.1-1.3,5.8s0.5,4.7,1.4,5.8
		c0.9,1.2,2.4,1.8,4.4,1.8c1.8,0,3.1-0.7,4-2s1.3-3.2,1.3-5.6c0-2.5-0.4-4.4-1.3-5.6S106.9,165.5,105.1,165.5z"/>
	<path class="st0" d="M135.3,173c0,3.1-0.8,5.6-2.4,7.4c-1.6,1.8-3.8,2.7-6.6,2.7c-1.7,0-3.3-0.4-4.6-1.2c-1.3-0.8-2.4-2-3.1-3.5
		c-0.7-1.5-1.1-3.3-1.1-5.3c0-3.1,0.8-5.6,2.4-7.4c1.6-1.8,3.8-2.6,6.6-2.6c2.7,0,4.9,0.9,6.4,2.7
		C134.5,167.5,135.3,169.9,135.3,173z M120.6,173c0,2.5,0.5,4.3,1.5,5.6s2.4,1.9,4.4,1.9c1.9,0,3.4-0.6,4.4-1.9s1.5-3.2,1.5-5.6
		c0-2.5-0.5-4.3-1.5-5.6c-1-1.3-2.5-1.9-4.4-1.9c-1.9,0-3.4,0.6-4.3,1.9C121.1,168.6,120.6,170.5,120.6,173z"/>
	<path class="st0" d="M152.3,182.6l-0.6-2.7h-0.1c-1,1.2-1.9,2-2.9,2.5c-1,0.4-2.2,0.6-3.6,0.6c-1.9,0-3.4-0.5-4.5-1.5
		c-1.1-1-1.6-2.4-1.6-4.2c0-3.9,3.1-5.9,9.4-6.1l3.3-0.1v-1.2c0-1.5-0.3-2.6-1-3.4s-1.7-1.1-3.1-1.1c-1.6,0-3.4,0.5-5.5,1.5
		l-0.9-2.2c1-0.5,2-0.9,3.1-1.2c1.1-0.3,2.3-0.4,3.4-0.4c2.3,0,4,0.5,5.1,1.5c1.1,1,1.7,2.7,1.7,4.9v13.2H152.3z M145.7,180.6
		c1.8,0,3.3-0.5,4.3-1.5c1-1,1.6-2.4,1.6-4.2v-1.7l-2.9,0.1c-2.3,0.1-4,0.4-5,1.1c-1,0.6-1.5,1.6-1.5,3c0,1.1,0.3,1.9,1,2.4
		C143.6,180.3,144.5,180.6,145.7,180.6z"/>
	<path class="st0" d="M169.3,163c0.9,0,1.6,0.1,2.3,0.2l-0.4,2.7c-0.8-0.2-1.5-0.3-2.1-0.3c-1.6,0-2.9,0.6-4,1.9
		c-1.1,1.3-1.7,2.8-1.7,4.7v10.4h-2.9v-19.3h2.4l0.3,3.6h0.1c0.7-1.3,1.6-2.2,2.6-2.9C167,163.3,168.1,163,169.3,163z"/>
	<path class="st0" d="M188.4,180h-0.2c-1.4,2-3.4,2.9-6.1,2.9c-2.5,0-4.5-0.9-5.9-2.6c-1.4-1.7-2.1-4.2-2.1-7.4s0.7-5.7,2.1-7.4
		s3.4-2.6,5.9-2.6c2.6,0,4.6,1,6,2.9h0.2l-0.1-1.4l-0.1-1.4v-7.9h2.9v27.4h-2.4L188.4,180z M182.5,180.5c2,0,3.4-0.5,4.3-1.6
		c0.9-1.1,1.3-2.8,1.3-5.3V173c0-2.7-0.5-4.7-1.4-5.9s-2.4-1.8-4.4-1.8c-1.7,0-3,0.7-3.9,2c-0.9,1.3-1.4,3.2-1.4,5.6
		c0,2.5,0.5,4.3,1.4,5.6S180.8,180.5,182.5,180.5z"/>
</g>
<g>
	<path class="st0" d="M140.7,45.3l-23.1-21.2c-0.8-0.7-0.8-2-0.1-2.7l3.6-3.9c0.7-0.8,2-0.8,2.7-0.1l23.1,21.2
		c0.8,0.7,0.8,2,0.1,2.7l-3.6,3.9C142.7,46,141.5,46.1,140.7,45.3z"/>
	<polygon class="st0" points="60.7,116.4 54,116.5 53.4,109.7 91.9,68 99.1,74.7 	"/>
	<path class="st0" d="M124.1,72.5l-2.1-1.9l15.7-24.1l-21-19.3L94,44.8l-2.1-1.9c-4.6-4.3-11.9-4-16.2,0.7c-0.8,0.9-1.4,1.8-1.9,2.8
		l48.3,44.4c1-0.6,1.9-1.3,2.6-2.1C129.1,84,128.8,76.8,124.1,72.5z"/>
</g>
</svg>
