<?xml version="1.0" encoding="utf-8"?>
<!-- Generator: Adobe Illustrator 18.1.1, SVG Export Plug-In . SVG Version: 6.00 Build 0)  -->
<svg version="1.1" id="Capa_1" xmlns="http://www.w3.org/2000/svg" xmlns:xlink="http://www.w3.org/1999/xlink" x="0px" y="0px"
	 viewBox="0 0 200 200" style="enable-background:new 0 0 200 200;" xml:space="preserve">
<style type="text/css">
	.st0{fill:#FFFFFF;stroke:#5C5B5F;stroke-width:0.833;stroke-miterlimit:10;}
	.st1{fill:#0A94D6;stroke:#FFFFFF;stroke-width:5;stroke-miterlimit:10;}
	.st2{fill:#0A94D6;}
</style>
<g>
	<polygon class="st0" points="21.5,44.9 41.4,151.3 168.7,99.1 157.6,18.6 	"/>
	<polygon class="st1" points="21.5,44.9 122.7,40.8 41.7,151.3 	"/>
	<polygon class="st1" points="169.5,99.7 77.1,47.8 157.7,19 	"/>
	<path class="st1" d="M41.7,150.6c0,0,39-80.5,62.4-86.5c17.4-4.4,64.3,36.1,64.3,36.1L41.7,150.6z"/>
	<polygon class="st1" points="25.1,44.1 110.1,84.1 156,18.6 	"/>
	<path class="st2" d="M147.3,107.1l40.1,29.1l-28.9,45.2l-4.9-22.8c0,0-75.4,19.1-105.3,13.1c-15-3-19.3-13.5-19.3-19.2
		c0-18.1,5.5-29.1,5.5-29.1s3.6,10.9,4.7,20.8c0.5,3.9,2.4,7.6,6.1,8.6c30.2,7.9,104.2-23,104.2-23L147.3,107.1z"/>
</g>
</svg>
