<?xml version="1.0" encoding="utf-8"?>
<!-- Generator: Adobe Illustrator 18.1.1, SVG Export Plug-In . SVG Version: 6.00 Build 0)  -->
<svg version="1.1" id="Capa_1" xmlns="http://www.w3.org/2000/svg" xmlns:xlink="http://www.w3.org/1999/xlink" x="0px" y="0px"
	 viewBox="0 0 300 300" style="enable-background:new 0 0 300 300;" xml:space="preserve">
<style type="text/css">
	.st0{fill:#0A94D6;stroke:#0A94D6;stroke-width:2.3339;stroke-miterlimit:10;}
</style>
<g>
	<polygon class="st0" points="167.3,204.8 208.5,167.5 285.8,252.5 244.5,289.8 	"/>
	<path class="st0" d="M140,15.5C90.4-1.7,36.6,24.6,19.5,73.9c-3.6,10.2-5.3,20.7-5.3,30.9c0,39.1,24.6,75.9,63.8,89.4
		c49.4,17.1,103.4-9.1,120.5-58.5c3.6-10.2,5.3-20.7,5.3-30.9C203.7,65.7,179.1,28.9,140,15.5z M174.1,127.5
		c-6,17.4-18.4,31.5-35.1,39.5c-16.5,8.1-35.2,9.1-52.6,3.1c-27.7-9.6-46.5-35.9-46.5-65.3c0-7.7,1.3-15.3,3.8-22.5l0,0
		c6-17.4,18.5-31.5,35.1-39.5c16.5-8.1,35.3-9.1,52.6-3.1c27.8,9.6,46.5,35.9,46.5,65.3C178,112.5,176.7,120.1,174.1,127.5z"/>
</g>
</svg>
