<?xml version="1.0" encoding="utf-8"?>
<!-- Generator: Adobe Illustrator 18.1.1, SVG Export Plug-In . SVG Version: 6.00 Build 0)  -->
<svg version="1.1" id="Capa_1" xmlns="http://www.w3.org/2000/svg" xmlns:xlink="http://www.w3.org/1999/xlink" x="0px" y="0px"
	 viewBox="0 0 300 300" style="enable-background:new 0 0 300 300;" xml:space="preserve">
<style type="text/css">
	.st0{fill:#0A94D6;}
</style>
<g>
	<path class="st0" d="M68.1,267.1l-6.4-16.3H41.2l-6.3,16.3h-6l20.3-51.6h5.1l20.3,51.6L68.1,267.1L68.1,267.1z M59.9,245.4l-6-15.9
		c-0.8-1.9-1.5-4.5-2.4-7.3c-0.4,2.3-1.2,4.7-2.3,7.3l-6,15.9H59.9z"/>
	<path class="st0" d="M112.1,228.6v3.8l-7.2,0.9c0.6,0.8,1.2,1.9,1.8,3.2c0.6,1.2,0.8,2.8,0.8,4.5c0,3.8-1.4,6.8-3.9,9
		s-6.2,3.4-10.7,3.4c-1.2,0-2.3-0.2-3.3-0.3c-2.6,1.3-3.8,3-3.8,4.9c0,1,0.4,1.8,1.3,2.4c0.9,0.6,2.4,0.8,4.5,0.8h6.8
		c4.2,0,7.3,0.9,9.6,2.7c2.3,1.8,3.3,4.4,3.3,7.7c0,4.2-1.7,7.5-5.1,9.8s-8.4,3.3-15,3.3c-5.1,0-8.9-0.9-11.7-2.8
		c-2.8-1.9-4.1-4.5-4.1-8c0-2.4,0.8-4.4,2.3-6.2s3.6-2.8,6.3-3.4c-1.1-0.5-1.8-1.2-2.6-2.1s-1.1-2.1-1.1-3.3c0-1.4,0.4-2.7,1.2-3.8
		c0.8-1.1,2-2.1,3.6-3c-1.9-0.8-3.6-2.3-4.8-4.2c-1.2-1.9-1.9-4.2-1.9-6.8c0-4.2,1.2-7.5,3.8-9.8s6.1-3.4,10.8-3.4
		c1.9,0,3.9,0.3,5.4,0.8L112.1,228.6L112.1,228.6z M81.4,273.6c0,2.1,0.9,3.6,2.7,4.8s4.3,1.7,7.5,1.7c4.9,0,8.6-0.8,10.9-2.3
		s3.6-3.5,3.6-6c0-2.1-0.6-3.6-2-4.4c-1.3-0.8-3.8-1.2-7.3-1.2h-7.1c-2.7,0-4.6,0.6-6.1,2S81.4,271.2,81.4,273.6z M84.5,240.9
		c0,2.7,0.8,4.8,2.3,6.2c1.5,1.4,3.6,2.1,6.3,2.1c5.7,0,8.6-2.7,8.6-8.3c0-5.8-2.9-8.7-8.7-8.7c-2.7,0-4.8,0.8-6.3,2.3
		S84.5,238,84.5,240.9z"/>
	<path class="st0" d="M136.3,267.9c-5.7,0-10.2-1.8-13.5-5.3s-5-8.3-5-14.4s1.5-11.1,4.7-14.8c3.1-3.8,7.2-5.5,12.3-5.5
		c4.8,0,8.7,1.7,11.4,4.8c2.7,3.1,4.2,7.3,4.2,12.6v3.8H124c0.2,4.5,1.2,7.9,3.5,10.3s5.3,3.5,9.1,3.5c4.2,0,8.3-0.9,12.3-2.5v5.3
		c-2.1,0.9-4.1,1.5-5.9,1.9C141.2,267.9,138.8,267.9,136.3,267.9z M134.8,232.8c-3.1,0-5.5,1-7.4,3c-1.8,1.9-2.8,4.8-3.3,8.4h20.1
		c0-3.8-0.8-6.5-2.4-8.4C140.2,233.8,137.8,232.8,134.8,232.8z"/>
	<path class="st0" d="M186.8,267.1v-24.9c0-3.2-0.8-5.5-2.1-7c-1.4-1.5-3.6-2.3-6.8-2.3c-4.1,0-7.1,1-8.9,3.3s-2.9,5.8-2.9,10.8
		v20.3h-5.8v-38.6h4.8l0.9,5.3h0.3c1.2-1.9,2.8-3.3,5.1-4.3c2.3-1,4.5-1.5,7.2-1.5c4.6,0,8.1,1.1,10.5,3.3s3.5,5.8,3.5,10.8v25.2
		h-5.9V267.1z"/>
	<path class="st0" d="M230.8,261.9h-0.3c-2.7,3.9-6.8,5.9-12.2,5.9c-5.1,0-9-1.7-11.7-5.1s-4.2-8.4-4.2-14.7
		c0-6.3,1.3-11.3,4.2-14.8s6.8-5.3,11.7-5.3c5.3,0,9.3,1.9,12,5.7h0.5l-0.3-2.8l-0.2-2.7v-15.8h5.9V267h-4.6L230.8,261.9z
		 M219.2,262.9c4,0,6.9-1,8.7-3.3s2.7-5.7,2.7-10.5v-1.2c0-5.4-0.9-9.3-2.7-11.7s-4.7-3.4-8.7-3.4c-3.5,0-6,1.3-7.8,4
		c-1.8,2.7-2.7,6.5-2.7,11.3c0,5,0.9,8.7,2.7,11.1C213.2,261.6,215.6,262.9,219.2,262.9z"/>
	<path class="st0" d="M272.5,267.1l-1.2-5.5H271c-2,2.4-3.9,4-5.7,5c-1.8,0.9-4.3,1.3-7.2,1.3c-3.8,0-6.8-1-9-3s-3.3-4.8-3.3-8.4
		c0-7.8,6.2-11.9,18.6-12.3l6.6-0.2v-2.4c0-3-0.6-5.3-2-6.8s-3.4-2.1-6.3-2.1c-3.1,0-6.9,1-11,3l-1.8-4.5c2-1.1,4-1.8,6.3-2.4
		c2.3-0.6,4.5-0.9,6.8-0.9c4.7,0,8,1,10.2,3c2.3,1.9,3.3,5.3,3.3,9.8V267h-4V267.1z M259.3,262.9c3.6,0,6.5-1,8.5-3
		c2.1-1.9,3.2-4.8,3.2-8.4v-3.5l-5.9,0.3c-4.6,0.2-7.9,0.9-10,2.1c-2.1,1.2-3.2,3.3-3.2,6c0,2.1,0.6,3.8,1.9,4.8
		C255.2,262.3,256.8,262.9,259.3,262.9z"/>
</g>
<g>
	<path class="st0" d="M222.2,41.7H217V34c0-3.3-2.1-5.8-4.7-5.8H93.5c-2.6,0-4.6,2.6-4.6,5.8v139.2c0,3.3,2.1,5.9,4.6,5.9h118.8
		c2.6,0,4.7-2.6,4.7-5.9V79.5h5.3c5.5,0,10.2-4.5,10.2-10.2V51.9C232.3,46.3,227.8,41.7,222.2,41.7z M129.8,174.4H98.9
		c-2.4,0-4.3-2.4-4.3-5.4V39.9c0-3,1.9-5.4,4.3-5.4h30.9V174.4z"/>
	<g>
		<g>
			<circle class="st0" cx="105.8" cy="160" r="8.1"/>
			<path class="st0" d="M77.6,144.4c0.6-1.5,2.4-2.3,3.9-1.7l26.1,13.1c1.5,0.6,2.3,2.4,1.6,3.9l-1,2.4c-0.6,1.5-2.4,2.3-3.9,1.6
				l-26.1-13.1c-1.5-0.6-2.3-2.4-1.7-3.9L77.6,144.4z"/>
		</g>
		<g>
			<circle class="st0" cx="105.8" cy="132.3" r="8.1"/>
			<path class="st0" d="M77.6,116.7c0.6-1.5,2.4-2.3,3.9-1.7l26.1,13c1.5,0.6,2.3,2.4,1.6,3.9l-1,2.4c-0.6,1.5-2.4,2.3-3.9,1.6
				L78.2,123c-1.5-0.6-2.3-2.4-1.7-3.9L77.6,116.7z"/>
		</g>
		<g>
			<circle class="st0" cx="105.8" cy="104.5" r="8.1"/>
			<path class="st0" d="M77.6,88.9c0.6-1.5,2.4-2.3,3.9-1.7l26.1,13.1c1.5,0.6,2.3,2.4,1.6,3.9l-1,2.4c-0.6,1.5-2.4,2.3-3.9,1.7
				L78.2,95.2c-1.5-0.6-2.3-2.4-1.7-3.9L77.6,88.9z"/>
		</g>
		<g>
			<circle class="st0" cx="105.8" cy="76.8" r="8.1"/>
			<path class="st0" d="M77.6,61.2c0.6-1.5,2.4-2.3,3.9-1.6l26.1,13.1c1.5,0.6,2.3,2.4,1.6,3.9l-1,2.4c-0.6,1.5-2.4,2.3-3.9,1.6
				L78.2,67.5c-1.5-0.6-2.3-2.4-1.7-3.9L77.6,61.2z"/>
		</g>
		<g>
			<circle class="st0" cx="105.8" cy="49" r="8.1"/>
			<path class="st0" d="M77.6,33.3c0.6-1.5,2.4-2.3,3.9-1.6l26.1,13.1c1.5,0.6,2.3,2.4,1.6,3.9l-1,2.4c-0.6,1.5-2.4,2.3-3.9,1.7
				l-26.1-13c-1.5-0.6-2.3-2.4-1.7-3.9L77.6,33.3z"/>
		</g>
	</g>
</g>
</svg>
