<?xml version="1.0" encoding="utf-8"?>
<!-- Generator: Adobe Illustrator 18.1.1, SVG Export Plug-In . SVG Version: 6.00 Build 0)  -->
<svg version="1.1" id="Capa_1" xmlns="http://www.w3.org/2000/svg" xmlns:xlink="http://www.w3.org/1999/xlink" x="0px" y="0px"
	 viewBox="0 0 200 200" style="enable-background:new 0 0 200 200;" xml:space="preserve">
<style type="text/css">
	.st0{fill:#0A94D6;}
	.st1{fill:#FFFFFF;stroke:#0A94D6;stroke-width:4;stroke-miterlimit:10;}
</style>
<g>
	<path class="st0" d="M169.8,153.1c-2-12-26.4-28.4-41.8-30.9c-0.1-0.3-0.3-0.6-0.5-0.9c-3.7-5.5-7.3-4.7-7.3-4.7v-9.5
		c2.9-3.6,5.2-8.2,7.5-14c1.9-4.8,3.5-10.1,4.7-16c0.3,0.4,0.7,0.7,1.1,0.8c1.9,0.3,4-3.6,4.7-8.5s-0.3-9.1-2.3-9.3
		c-0.4-0.1-0.8,0.1-1.2,0.4c0-0.1,0-0.3,0-0.5c4.3-11.3,3.9-43.8-29-46.5c-24.5-2-35.5,9.2-39.6,16c-2,3.3-3.2,7.3-3.9,11.1
		c-1.7,7.4-1.1,14.9-0.7,19.9c0,0.2,0,0.4,0.1,0.7c-0.6-0.7-1.3-1.1-1.9-1c-1.9,0.3-2.9,4.5-2.3,9.4c0.7,5,2.8,8.8,4.7,8.5
		c0.8-0.1,1.5-1,1.9-2.3c1.7,8.8,3.7,17.4,3.7,17.4c1.9,4.7,4.6,9.7,8.3,13.8v9.7c0,0-3.6-0.8-7.2,4.6c-0.1,0.2-0.2,0.4-0.3,0.6
		c-11.8,0.6-37.1,14.3-41.1,31.2c-1.2,4.8,0,19.6,0,19.6c0,21.4,142.4,21.4,142.4,0C169.8,172.7,170.6,158,169.8,153.1z"/>
	<g>
		<path class="st1" d="M107,13.5c-24.5-2-35.5,9.2-39.6,16c-5.6,9.2-4.8,24.3-4.8,24.3s15.4-4.2,21-13.4c1.3,1.7,2.4,2.5,2.4,2.5
			s7.9,6.7,17,8.4c0.7,0.1-4.7-5.5-4.7-5.5s9.4,6.2,10.3,6.4c0.9,0.2,1.1,0.4,2,0.5c6.5,1.2,13.1,2,17.7,0.5
			c1.6-0.5,3.2,10.8,4.7,10.7C139.1,63.5,146.8,16.8,107,13.5z"/>
	</g>
</g>
</svg>
