<?xml version="1.0" encoding="utf-8"?>
<!-- Generator: Adobe Illustrator 18.1.1, SVG Export Plug-In . SVG Version: 6.00 Build 0)  -->
<svg version="1.1" id="Capa_1" xmlns="http://www.w3.org/2000/svg" xmlns:xlink="http://www.w3.org/1999/xlink" x="0px" y="0px"
	 viewBox="0 0 200 200" style="enable-background:new 0 0 200 200;" xml:space="preserve">
<style type="text/css">
	.st0{fill:#FFFFFF;stroke:#EC145B;stroke-width:8.8159;stroke-miterlimit:10;}
	.st1{fill:#EC145B;stroke:#EC145B;stroke-width:1.7118;stroke-miterlimit:10;}
	.st2{fill:#EC145B;}
	.st3{fill:#EC145B;stroke:#EC145B;stroke-width:1.7608;stroke-miterlimit:10;}
</style>
<g>
	<path class="st0" d="M152.5,189.6H45c-7.8,0-14.2-6.4-14.2-14.2V57.5c0-7.8,6.4-14.2,14.2-14.2h107.6c7.8,0,14.2,6.4,14.2,14.2
		v117.9C166.7,183.2,160.3,189.6,152.5,189.6z"/>
	<path class="st1" d="M140.8,56.7c0.2-1,0.4-2,0.4-3V49c0-6.8-5.6-12.4-12.4-12.4c0,0-9.8-6.1-9.8-9.7c0-10.6-8.6-19.2-19.2-19.2
		c-10.6,0-19.2,8.6-19.2,19.2c0,3.5-11.1,9.7-11.1,9.7c-6.8,0-12.4,5.6-12.4,12.4v4.6c0,1,0.1,2.1,0.4,3H140.8z M99.7,16.9
		c5.6,0,10.1,4.5,10.1,10.1c0,4.6-3.1,8.5-7.3,9.7h-5.6c-4.2-1.2-7.3-5.1-7.3-9.7C89.6,21.4,94.1,16.9,99.7,16.9z"/>
	<g>
		<g>
			<path class="st2" d="M42.2,145.6c5.8,8.2,10.9,16.8,15.4,25.8c2.1,4.2,8.3,2.8,9.5-1.2C71.3,156,76,140.4,89,132
				c5.6-3.6,0.4-12.6-5.3-9c-15.5,10-21.6,27.4-26.7,44.3c3.2-0.4,6.3-0.8,9.5-1.2c-4.5-9-9.6-17.6-15.4-25.8
				C47.3,134.9,38.3,140.1,42.2,145.6L42.2,145.6z"/>
		</g>
	</g>
	<path class="st3" d="M148.3,84.9h-46c-1.4,0-2.5-1.1-2.5-2.5v-3.8c0-1.4,1.1-2.5,2.5-2.5h46c1.4,0,2.5,1.1,2.5,2.5v3.8
		C150.8,83.8,149.7,84.9,148.3,84.9z"/>
	<path class="st3" d="M148.3,124.6h-46c-1.4,0-2.5-1.1-2.5-2.5v-3.8c0-1.4,1.1-2.5,2.5-2.5h46c1.4,0,2.5,1.1,2.5,2.5v3.8
		C150.8,123.5,149.7,124.6,148.3,124.6z"/>
	<path class="st3" d="M148.3,164.3h-46c-1.4,0-2.5-1.1-2.5-2.5V158c0-1.4,1.1-2.5,2.5-2.5h46c1.4,0,2.5,1.1,2.5,2.5v3.8
		C150.8,163.2,149.7,164.3,148.3,164.3z"/>
</g>
</svg>
