<?xml version="1.0" encoding="utf-8"?>
<!-- Generator: Adobe Illustrator 18.1.1, SVG Export Plug-In . SVG Version: 6.00 Build 0)  -->
<svg version="1.1" id="Capa_1" xmlns="http://www.w3.org/2000/svg" xmlns:xlink="http://www.w3.org/1999/xlink" x="0px" y="0px"
	 viewBox="0 0 300 300" style="enable-background:new 0 0 300 300;" xml:space="preserve">
<style type="text/css">
	.st0{fill:#0A94D6;}
	.st1{fill:#0A94D6;stroke:#0A94D6;stroke-width:0.5248;stroke-miterlimit:10;}
</style>
<polygon class="st0" points="154,13.4 70.9,105.1 98.2,105.1 98.2,185.1 154,185.1 154,105.1 237.1,105.1 "/>
<g>
	<polygon class="st1" points="204.6,162.7 215.3,152.8 235.6,175.1 224.7,184.9 	"/>
	<path class="st1" d="M197.2,113c-12.9-4.5-27.1,2.5-31.7,15.4c-0.9,2.6-1.4,5.4-1.4,8.1c0,10.3,6.5,19.9,16.8,23.4
		c13,4.6,27.1-2.4,31.7-15.4c0.9-2.6,1.4-5.4,1.4-8C214,126.1,207.6,116.5,197.2,113z M206.3,142.3c-1.6,4.6-4.9,8.2-9.1,10.3
		c-4.4,2.1-9.3,2.4-13.8,0.9c-7.2-2.5-12.3-9.5-12.3-17.2c0-2.1,0.3-4,1-6l0,0c1.6-4.5,4.9-8.2,9.1-10.3c4.2-2.1,9.3-2.4,13.8-0.9
		c7.2,2.5,12.3,9.4,12.3,17.2C207.4,138.3,207,140.4,206.3,142.3z"/>
</g>
<path class="st0" d="M59.5,287.1L52,268H28l-7.4,19.1h-7l23.6-60.2h6l23.6,60.2H59.5z M49.9,261.7l-7-18.6c-0.9-2.3-1.8-5.3-2.8-8.6
	c-0.5,2.6-1.4,5.4-2.6,8.6l-7,18.6H49.9z"/>
<path class="st0" d="M91.9,287.8c-6.5,0-11.5-1.9-15-5.9c-3.5-4-5.4-9.6-5.4-17c0-7.5,1.8-13.3,5.4-17.5s8.8-6.1,15.4-6.1
	c2.1,0,4.4,0.2,6.5,0.7c2.1,0.5,3.8,1.1,5.1,1.6l-2.1,5.8c-1.6-0.5-3.2-1.1-4.9-1.6s-3.3-0.5-4.7-0.5c-9.1,0-13.7,5.8-13.7,17.5
	c0,5.6,1.1,9.8,3.3,12.8c2.3,3,5.6,4.4,10,4.4c3.7,0,7.5-0.9,11.6-2.4v5.9C100.3,287.1,96.4,287.8,91.9,287.8z"/>
<path class="st0" d="M128.4,282.2c1.2,0,2.5-0.2,3.5-0.4c1.1-0.2,1.9-0.3,2.6-0.5v5.3c-0.7,0.3-1.8,0.7-3.3,0.9s-2.8,0.3-3.8,0.3
	c-8.8,0-13.1-4.5-13.1-13.8v-26.8h-6.5v-3.3l6.5-2.8l2.8-9.6h4v10.5h13.1v5.3h-13.1v26.4c0,2.6,0.7,4.7,1.9,6.3
	C124.3,281.5,126.2,282.2,128.4,282.2z"/>
<path class="st0" d="M143,229.8c0-1.6,0.3-2.6,1.2-3.5s1.8-1.1,2.8-1.1s2.1,0.3,2.8,1.1c0.7,0.7,1.2,1.9,1.2,3.3s-0.3,2.6-1.2,3.5
	s-1.8,1.1-2.8,1.1c-1.2,0-2.1-0.3-2.8-1.1C143.5,232.5,143,231.4,143,229.8z M150.3,287.1h-6.8v-45h6.8V287.1z"/>
<path class="st0" d="M174.7,287.1l-17.2-45h7.3l9.6,26.6c2.3,6.3,3.5,10.3,3.8,12.1h0.4c0.3-1.4,1.2-4.4,2.8-8.9
	c1.6-4.6,5.3-14.5,10.9-29.8h7.3l-17.2,45L174.7,287.1L174.7,287.1z"/>
<path class="st0" d="M245.7,264.5c0,7.4-1.9,13.1-5.6,17.1c-3.7,4-8.8,6.1-15.2,6.1c-4,0-7.5-0.9-10.7-2.8c-3.1-1.9-5.6-4.6-7.2-8.1
	s-2.6-7.7-2.6-12.4c0-7.4,1.8-12.9,5.4-17.1c3.7-4.2,8.8-6.1,15.2-6.1c6.3,0,11.2,2.1,15.1,6.3S245.7,257.3,245.7,264.5z
	 M211.4,264.5c0,5.8,1.2,10.1,3.5,13.1s5.6,4.6,10.2,4.6c4.6,0,7.9-1.6,10.1-4.6c2.3-3,3.5-7.4,3.5-13.1s-1.2-10-3.5-12.9
	c-2.3-3-5.8-4.4-10.1-4.4s-7.9,1.4-10.2,4.4C212.6,254.5,211.4,258.7,211.4,264.5z"/>
<path class="st0" d="M286.6,274.8c0,4.2-1.6,7.4-4.7,9.6c-3.2,2.3-7.5,3.3-13.1,3.3c-5.9,0-10.7-0.9-14-2.8v-6.3
	c2.1,1.1,4.6,1.9,7,2.6s4.9,0.9,7.2,0.9c3.5,0,6.3-0.5,8.2-1.8s2.8-2.8,2.8-5.3c0-1.8-0.7-3.3-2.3-4.6c-1.6-1.2-4.6-2.8-8.9-4.4
	c-4.2-1.6-7.2-3-8.9-4s-3.1-2.4-4-4c-0.9-1.6-1.2-3.3-1.2-5.3c0-3.7,1.6-6.5,4.6-8.8c3-2.3,7-3.2,12.3-3.2c4.9,0,9.6,1.1,14.2,3
	l-2.5,5.6c-4.5-1.9-8.6-2.8-12.3-2.8c-3.1,0-5.6,0.5-7.3,1.6s-2.5,2.4-2.5,4.2c0,1.2,0.4,2.3,0.9,3.2c0.5,0.9,1.6,1.6,3,2.4
	s4,1.9,7.9,3.3c5.3,1.9,8.9,3.9,10.9,5.9C285.6,269.6,286.6,271.7,286.6,274.8z"/>
</svg>
