<?xml version="1.0" encoding="utf-8"?>
<!-- Generator: Adobe Illustrator 18.1.1, SVG Export Plug-In . SVG Version: 6.00 Build 0)  -->
<svg version="1.1" id="Capa_1" xmlns="http://www.w3.org/2000/svg" xmlns:xlink="http://www.w3.org/1999/xlink" x="0px" y="0px"
	 viewBox="0 0 300 300" style="enable-background:new 0 0 300 300;" xml:space="preserve">
<style type="text/css">
	.st0{fill:#0A94D6;}
</style>
<g>
	<g>
		<path class="st0" d="M76.3,255c0,8.2-2.1,14.6-6.2,19.4c-4.1,4.7-9.9,7-17.3,7c-7.6,0-13.4-2.3-17.5-6.9
			c-4.1-4.6-6.2-11.2-6.2-19.6c0-8.3,2-14.8,6.2-19.4c4.1-4.6,10-6.9,17.5-6.9c7.4,0,13.1,2.3,17.3,7
			C74.2,240.3,76.3,246.8,76.3,255z M35.4,255c0,7,1.5,12.2,4.4,15.8c2.9,3.6,7.3,5.4,12.9,5.4c5.7,0,10-1.8,12.9-5.3
			c2.9-3.6,4.3-8.8,4.3-15.8c0-6.9-1.4-12.1-4.3-15.7c-2.9-3.5-7.1-5.3-12.8-5.3s-10,1.8-13,5.4C36.9,242.9,35.4,248.1,35.4,255z"/>
		<path class="st0" d="M104.2,246.8h-9.8v33.9h-5.8v-33.9h-6.9v-2.6l6.9-2.1v-2.2c0-9.4,4.1-14.2,12.4-14.2c2,0,4.4,0.4,7.1,1.2
			l-1.5,4.7c-2.2-0.7-4.1-1.1-5.8-1.1c-2.2,0-3.8,0.7-4.9,2.2c-1.1,1.4-1.6,3.8-1.6,7v2.5h9.8C104.2,242.3,104.2,246.8,104.2,246.8z
			"/>
		<path class="st0" d="M127.4,281.4c-5.7,0-10.1-1.7-13.4-5.2c-3.3-3.5-4.9-8.3-4.9-14.4c0-6.2,1.5-11.1,4.6-14.8
			c3.1-3.7,7.1-5.5,12.3-5.5c4.8,0,8.6,1.6,11.5,4.7s4.2,7.3,4.2,12.5v3.7h-26.5c0.1,4.5,1.3,7.9,3.4,10.3c2.2,2.3,5.2,3.5,9.1,3.5
			c4.1,0,8.2-0.8,12.3-2.6v5.2c-2,0.9-4,1.5-5.8,1.9C132.2,281.2,130,281.4,127.4,281.4z M125.8,246.5c-3.1,0-5.5,1-7.4,3
			c-1.9,2-2.9,4.8-3.2,8.3h20.1c0-3.7-0.8-6.5-2.5-8.5C131.2,247.4,128.9,246.5,125.8,246.5z"/>
		<path class="st0" d="M169,241.5c1.7,0,3.2,0.1,4.6,0.4l-0.8,5.4c-1.6-0.4-3-0.5-4.2-0.5c-3.1,0-5.8,1.3-8,3.8
			c-2.2,2.5-3.3,5.6-3.3,9.4v20.6h-5.8v-38.4h4.8l0.7,7.1h0.3c1.4-2.5,3.1-4.4,5.2-5.8C164.4,242.3,166.6,241.5,169,241.5z"/>
		<path class="st0" d="M193.2,276.6c1,0,2-0.1,3-0.2s1.7-0.3,2.3-0.5v4.4c-0.7,0.3-1.6,0.5-2.8,0.8c-1.2,0.2-2.3,0.3-3.3,0.3
			c-7.4,0-11.2-3.9-11.2-11.8v-22.9h-5.5v-2.8l5.5-2.4l2.5-8.2h3.4v8.9h11.2v4.5h-11.2v22.6c0,2.3,0.5,4.1,1.6,5.3
			C189.8,276,191.3,276.6,193.2,276.6z"/>
		<path class="st0" d="M229.8,280.7l-1.2-5.5h-0.3c-1.9,2.4-3.8,4-5.8,4.9c-1.9,0.8-4.3,1.3-7.1,1.3c-3.8,0-6.8-1-8.9-2.9
			s-3.2-4.7-3.2-8.4c0-7.7,6.2-11.8,18.6-12.2l6.5-0.2v-2.4c0-3-0.7-5.2-1.9-6.7c-1.3-1.4-3.4-2.2-6.2-2.2c-3.2,0-6.8,1-10.9,2.9
			l-1.8-4.4c1.9-1,4-1.9,6.2-2.4c2.3-0.6,4.5-0.9,6.8-0.9c4.6,0,8,1,10.2,3.1c2.2,2,3.3,5.3,3.3,9.8v26.2H229.8L229.8,280.7z
			 M216.6,276.6c3.6,0,6.5-1,8.5-3c2-2,3.1-4.7,3.1-8.3v-3.5l-5.8,0.2c-4.6,0.2-8,0.9-10,2.2c-2,1.3-3.1,3.2-3.1,5.9
			c0,2.1,0.7,3.7,1.9,4.8C212.6,276,214.3,276.6,216.6,276.6z"/>
		<path class="st0" d="M270.9,270.2c0,3.6-1.3,6.4-4,8.3c-2.7,1.9-6.4,2.9-11.2,2.9c-5.1,0-9.1-0.8-11.9-2.4v-5.4
			c1.9,1,3.8,1.7,5.9,2.2c2.1,0.5,4.1,0.8,6.1,0.8c3.1,0,5.4-0.5,7-1.4c1.6-1,2.5-2.5,2.5-4.4c0-1.5-0.7-2.8-1.9-3.8
			s-3.8-2.3-7.6-3.8c-3.6-1.3-6.1-2.5-7.6-3.5s-2.6-2.1-3.4-3.4c-0.7-1.3-1.1-2.8-1.1-4.5c0-3.1,1.3-5.6,3.8-7.4
			c2.5-1.8,6.1-2.7,10.5-2.7c4.1,0,8.2,0.8,12.1,2.5l-2,4.7c-3.8-1.6-7.4-2.4-10.5-2.4c-2.8,0-4.9,0.4-6.2,1.3
			c-1.4,0.9-2.1,2-2.1,3.6c0,1,0.2,1.9,0.8,2.6s1.4,1.4,2.5,2c1.1,0.7,3.4,1.6,6.7,2.8c4.6,1.7,7.6,3.4,9.2,5
			C270.1,265.5,270.9,267.7,270.9,270.2z"/>
	</g>
	<g>
		<g>
			<g>
				<path class="st0" d="M110.5,94.8c-4.4-7.1-5.6-15.8-3-23.9c1-3,2.8-7.4,6.2-8.2c3.2-0.8,7.1,1.5,10.2,2.3
					c8.8,2.3,17.8-1.1,19.9-10.7c2.1-9.6-3.8-17.3-10-23.9c-4.8-5.2-12.6,2.6-7.7,7.7c2.7,2.9,5.9,6.1,7,10c0.5,2,0.4,5.3-1.8,6.4
					c-2.4,1.1-6.2-0.8-8.5-1.5c-4.1-1.3-8.6-2.2-12.8-0.8c-8.7,2.8-13,12.8-14.3,21.2c-1.4,9.3,0.4,18.8,5.3,26.8
					C104.7,106.4,114.2,100.8,110.5,94.8L110.5,94.8z"/>
			</g>
		</g>
		<g>
			<path class="st0" d="M219.2,144.2l-74.7-58.6c-6.7-5.3-44.1-11.7-49.4-5L80.9,98.7c-5.3,6.7,9.9,41.5,16.6,46.7l74.7,58.6
				c4.7,3.7,11.7,2.9,15.4-1.9l33.4-42.6C224.8,154.8,224,147.9,219.2,144.2z M121.7,115.7c-4.1,5.2-11.6,6.1-16.8,2
				c-5.2-4.1-6.1-11.6-2-16.8c4.1-5.2,11.6-6.1,16.8-2S125.8,110.4,121.7,115.7z M142.3,117.9c6.7-8.3,14.9-9.3,20.4-4.9
				c5.8,4.7,6.1,12.2-0.3,20.1c-7,8.8-15.1,9.4-20.5,5.1C136.7,134,135.6,126.3,142.3,117.9z M175.5,171.8c-7,8.8-15.1,9.4-20.4,5.2
				c-5.2-4.1-6.3-11.9,0.3-20.2c6.7-8.3,14.9-9.4,20.5-5C181.7,156.5,181.9,163.9,175.5,171.8z M131.1,158.1l-3.6-2.9l58.7-23.3
				l3.5,2.9L131.1,158.1z"/>
			<path class="st0" d="M173,155c-3.5-2.8-8.8-0.2-13,5c-4.3,5.2-5.5,10.9-2,13.7c3.7,2.9,8.5,0.4,12.9-5.2
				C175,163.5,176.9,158.1,173,155z"/>
			<path class="st0" d="M144.7,134.9c3.7,2.9,8.5,0.4,12.9-5.2c4-5,5.9-10.4,2-13.6c-3.5-2.8-8.7-0.2-12.9,5.1
				C142.4,126.5,141.2,132,144.7,134.9z"/>
		</g>
	</g>
</g>
</svg>
