<?xml version="1.0" encoding="utf-8"?>
<!-- Generator: Adobe Illustrator 18.1.1, SVG Export Plug-In . SVG Version: 6.00 Build 0)  -->
<svg version="1.1" id="Capa_1" xmlns="http://www.w3.org/2000/svg" xmlns:xlink="http://www.w3.org/1999/xlink" x="0px" y="0px"
	 viewBox="0 0 200 200" style="enable-background:new 0 0 200 200;" xml:space="preserve">
<style type="text/css">
	.st0{fill:#0A94D6;stroke:#0A94D6;stroke-width:5.6263;stroke-miterlimit:10;}
	.st1{fill:#0A94D6;stroke:#FFFFFF;stroke-width:8.4395;stroke-miterlimit:10;}
</style>
<g>
	<g>
		<polygon class="st0" points="92.4,132.4 114.4,112.4 155.8,157.9 133.7,177.9 		"/>
		<path class="st0" d="M77.7,30.9c-26.5-9.2-55.3,4.9-64.5,31.3c-1.9,5.5-2.8,11.1-2.8,16.6c0,21,13.2,40.7,34.1,47.9
			c26.5,9.2,55.3-4.9,64.5-31.3c1.9-5.5,2.8-11.1,2.8-16.6C111.8,57.8,98.7,38.2,77.7,30.9z M96,90.9c-3.2,9.3-9.9,16.8-18.8,21.2
			c-8.9,4.3-18.9,4.9-28.2,1.7c-14.9-5.1-24.9-19.2-24.9-34.9c0-4.1,0.7-8.2,2-12.1l0,0c3.2-9.3,9.9-16.8,18.8-21.2
			c8.9-4.3,18.9-4.9,28.2-1.7c14.9,5.2,24.9,19.2,24.9,34.9C98.1,83,97.4,87,96,90.9z"/>
	</g>
	<g>
		<path class="st1" d="M91.3,72.4h101.4V101H91.3V72.4z"/>
	</g>
</g>
</svg>
