<?xml version="1.0" encoding="utf-8"?>
<!-- Generator: Adobe Illustrator 18.1.1, SVG Export Plug-In . SVG Version: 6.00 Build 0)  -->
<svg version="1.1" id="Capa_1" xmlns="http://www.w3.org/2000/svg" xmlns:xlink="http://www.w3.org/1999/xlink" x="0px" y="0px"
	 viewBox="0 0 200 200" style="enable-background:new 0 0 200 200;" xml:space="preserve">
<style type="text/css">
	.st0{fill:#B7DDF0;stroke:#B7DDF0;stroke-width:5.5563;stroke-miterlimit:10;}
	.st1{fill:#B7DDF0;stroke:#FFFFFF;stroke-width:8.3344;stroke-miterlimit:10;}
</style>
<g>
	<g>
		<polygon class="st0" points="92.2,131.3 114,111.6 154.8,156.5 133,176.3 		"/>
		<path class="st0" d="M77.7,31.2C51.5,22.1,23,36,14,62.1c-1.9,5.4-2.8,10.9-2.8,16.4c0,20.7,13,40.1,33.7,47.3
			c26.1,9,54.6-4.8,63.7-30.9c1.9-5.4,2.8-10.9,2.8-16.4C111.4,57.7,98.4,38.3,77.7,31.2z M95.8,90.4c-3.2,9.2-9.8,16.6-18.5,20.9
			c-8.8,4.3-18.7,4.9-27.9,1.7C34.7,107.9,24.8,94,24.8,78.5c0-4,0.7-8.1,2-11.9l0,0c3.2-9.2,9.8-16.6,18.5-20.9
			c8.8-4.3,18.7-4.9,27.9-1.7c14.7,5.1,24.6,18.9,24.6,34.5C97.8,82.5,97.1,86.5,95.8,90.4z"/>
	</g>
	<g>
		<path class="st1" d="M91.1,72H127v-36h28.3v36h35.9v28.3h-35.9v35.9H127v-35.9H91.1V72z"/>
	</g>
</g>
</svg>
