<?xml version="1.0" encoding="utf-8"?>
<!-- Generator: Adobe Illustrator 18.1.1, SVG Export Plug-In . SVG Version: 6.00 Build 0)  -->
<svg version="1.1" id="Capa_1" xmlns="http://www.w3.org/2000/svg" xmlns:xlink="http://www.w3.org/1999/xlink" x="0px" y="0px"
	 viewBox="0 0 200 170" style="enable-background:new 0 0 200 170;" xml:space="preserve">
<style type="text/css">
	.st0{fill:#46BC98;}
	.st1{fill:#46BC98;stroke:#FFFFFF;stroke-width:2.8431;stroke-miterlimit:10;stroke-dasharray:2.1323;}
	.st2{fill:#068976;}
	.st3{fill:none;stroke:#FFFFFF;stroke-width:1.4215;stroke-miterlimit:10;}
	.st4{fill:#FFFFFF;}
</style>
<g>
	<polygon class="st0" points="101.5,2.8 111.3,21.3 129.1,10.4 132,31.1 152.4,26.9 148.1,47.3 168.7,50.4 157.6,68.1 176,78.1 
		159.5,90.9 173.4,106.6 153.5,113 161.1,132.5 140.2,131.7 140.8,152.6 121.4,144.7 114.8,164.5 99.3,150.5 86.3,166.9 76.5,148.4 
		58.7,159.3 55.8,138.6 35.3,142.8 39.7,122.4 19,119.3 30.1,101.6 11.8,91.6 28.3,78.8 14.4,63.1 34.3,56.7 26.6,37.3 47.5,38 
		47,17.1 66.3,25 73,5.2 88.5,19.2 	"/>
	<polygon class="st1" points="100.2,17.3 108.2,32.5 122.9,23.5 125.3,40.5 142.1,37.1 138.5,53.9 155.5,56.5 146.4,71.1 
		161.5,79.3 147.9,89.9 159.3,102.8 143,108.1 149.3,124.1 132.1,123.4 132.5,140.7 116.6,134.2 111.1,150.5 98.3,139 87.6,152.4 
		79.6,137.2 64.9,146.2 62.5,129.2 45.6,132.6 49.3,115.8 32.2,113.2 41.4,98.6 26.2,90.4 39.8,79.8 28.4,67 44.8,61.7 38.5,45.6 
		55.7,46.3 55.3,29.1 71.2,35.5 76.7,19.2 89.4,30.7 	"/>
	<g>
		<path class="st2" d="M195,135.7c-63.3-24.5-126.7,24.5-190,0c3.4-3.6,6.8-7.5,10.2-11.5c-3.4-6.2-6.8-12.5-10.2-19.1
			c63.3,24.5,126.7-24.5,190,0c-3.1,3.9-6.2,8-9.4,12.2C188.8,123.3,191.9,129.4,195,135.7z"/>
		<path class="st3" d="M195,135.7c-63.3-24.5-126.7,24.5-190,0c3.4-3.6,6.8-7.5,10.2-11.5c-3.4-6.2-6.8-12.5-10.2-19.1
			c63.3,24.5,126.7-24.5,190,0c-3.1,3.9-6.2,8-9.4,12.2C188.8,123.3,191.9,129.4,195,135.7z"/>
	</g>
	<polygon class="st4" points="82.9,112 86.6,119.6 94.9,120.8 88.9,126.6 90.3,134.9 82.9,131 75.4,134.9 76.8,126.6 70.8,120.8 
		79.1,119.6 	"/>
	<polygon class="st4" points="110.3,106.3 114,113.9 122.3,115.1 116.3,120.9 117.7,129.2 110.3,125.3 102.9,129.2 104.3,120.9 
		98.3,115.1 106.6,113.9 	"/>
	<g>
		<path class="st4" d="M80.8,91.1c3.1-1,6.2-1.5,9.1-1.5c0.6,0,2.5,0.1,5.9,0.4c3.4,0.3,5.4,0.4,6,0.4c1.6,0,2.9-0.3,3.9-0.9
			c1-0.6,1.8-1.7,2.4-3.3c0.2-0.6,0.4-0.8,0.6-0.8c0.5,0,1,0.1,1.6,0.4s0.9,0.5,0.9,0.6c0,0.9-0.7,2.9-2.2,6c-1.5,3.1-3,5.2-4.5,6.2
			s-3.9,1.6-7,1.6c-0.7,0-3.1-0.2-7.3-0.5c-4.2-0.3-6.6-0.5-7.4-0.5c-2.7,0-4.7,0.2-6,0.5c-1.3,0.3-2,0.5-2.2,0.5
			c-0.4,0-0.6-0.3-0.6-0.8c0-1.7,0.3-3.3,0.9-4.9s2-3.7,4.2-6.4c2.2-2.6,5.4-5.9,9.7-9.9l4.7-4.3c3.7-3.5,6.3-6.8,7.8-10
			c1.5-3.2,2.3-6.5,2.3-9.8c0-2.8-0.7-5.1-2.2-6.8S98.1,45,95.7,45c-2.2,0-4.2,0.8-5.9,2.4s-2.5,3.5-2.5,5.8c0,1.9,0.9,3.5,2.7,4.9
			c1,0.7,1.5,1.4,1.5,2c0,0.8-1.1,1.7-3.2,2.7s-3.8,1.5-5.1,1.5c-1.1,0-2-0.5-2.7-1.5s-1.2-2.2-1.2-3.7c0-4.6,2.2-8.9,6.7-12.8
			s9.3-5.9,14.7-5.9c4.4,0,8,1.3,10.9,4c2.8,2.7,4.3,6.1,4.3,10.2c0,3.3-0.9,6.4-2.8,9.2c-1.9,2.8-4.1,5.3-6.7,7.4s-6,4.6-10.3,7.5
			s-7.5,5.2-9.8,7C84,87.5,82.2,89.3,80.8,91.1z"/>
	</g>
</g>
</svg>
