<?xml version="1.0" encoding="utf-8"?>
<!-- Generator: Adobe Illustrator 18.1.1, SVG Export Plug-In . SVG Version: 6.00 Build 0)  -->
<svg version="1.1" id="Capa_1" xmlns="http://www.w3.org/2000/svg" xmlns:xlink="http://www.w3.org/1999/xlink" x="0px" y="0px"
	 viewBox="0 0 200 170" style="enable-background:new 0 0 200 170;" xml:space="preserve">
<style type="text/css">
	.st0{fill:#DB9600;}
	.st1{fill:#DB9600;stroke:#FFFFFF;stroke-width:2.8431;stroke-miterlimit:10;stroke-dasharray:2.1323;}
	.st2{fill:#C64832;}
	.st3{fill:none;stroke:#FFFFFF;stroke-width:1.4215;stroke-miterlimit:10;}
	.st4{fill:#FFFFFF;}
</style>
<g>
	<polygon class="st0" points="101.5,2.6 111.3,21 129.1,10.1 132,30.8 152.4,26.7 148.1,47.1 168.7,50.2 157.6,67.9 176,77.9 
		159.5,90.7 173.4,106.3 153.5,112.8 161.1,132.2 140.2,131.5 140.8,152.3 121.4,144.5 114.8,164.3 99.3,150.3 86.3,166.6 
		76.5,148.2 58.7,159.1 55.8,138.4 35.3,142.6 39.7,122.1 19,119 30.1,101.3 11.8,91.4 28.3,78.5 14.4,62.9 34.3,56.4 26.6,37 
		47.5,37.8 47,16.9 66.3,24.7 73,4.9 88.5,18.9 	"/>
	<polygon class="st1" points="100.2,17 108.2,32.2 122.9,23.3 125.3,40.3 142.1,36.9 138.5,53.7 155.5,56.2 146.4,70.8 161.5,79 
		147.9,89.6 159.3,102.5 143,107.8 149.3,123.8 132.1,123.2 132.5,140.4 116.6,133.9 111.1,150.3 98.3,138.7 87.6,152.2 79.6,137 
		64.9,146 62.5,128.9 45.6,132.3 49.3,115.5 32.2,113 41.4,98.4 26.2,90.2 39.8,79.6 28.4,66.7 44.8,61.4 38.5,45.4 55.7,46 
		55.3,28.8 71.2,35.3 76.7,19 89.4,30.5 	"/>
	<g>
		<path class="st2" d="M195,135.5C131.7,111,68.3,160,5,135.5c3.4-3.6,6.8-7.5,10.2-11.5c-3.4-6.2-6.8-12.5-10.2-19.1
			c63.3,24.5,126.7-24.5,190,0c-3.1,3.9-6.2,8-9.4,12.2C188.8,123.1,191.9,129.2,195,135.5z"/>
		<path class="st3" d="M195,135.5C131.7,111,68.3,160,5,135.5c3.4-3.6,6.8-7.5,10.2-11.5c-3.4-6.2-6.8-12.5-10.2-19.1
			c63.3,24.5,126.7-24.5,190,0c-3.1,3.9-6.2,8-9.4,12.2C188.8,123.1,191.9,129.2,195,135.5z"/>
	</g>
	<polygon class="st4" points="68.2,114.3 72,121.8 80.3,123 74.3,128.9 75.7,137.2 68.2,133.3 60.8,137.2 62.2,128.9 56.2,123 
		64.5,121.8 	"/>
	<polygon class="st4" points="95.6,108.2 99.4,115.8 107.7,117 101.7,122.8 103.1,131.1 95.6,127.2 88.2,131.1 89.6,122.8 83.6,117 
		91.9,115.8 	"/>
	<polygon class="st4" points="123.1,104 126.8,111.5 135.1,112.7 129.1,118.6 130.5,126.8 123.1,122.9 115.6,126.8 117.1,118.6 
		111.1,112.7 119.4,111.5 	"/>
	<g>
		<path class="st4" d="M115.7,52.1c0,7.3-5.3,12.6-15.8,15.7c8.3,2.9,12.4,8.1,12.4,15.3c0,5.6-2.3,10.2-7,13.8s-10.6,5.5-17.9,5.5
			c-5.4,0-9.5-1.1-12.4-3.4s-4.3-5.4-4.3-9.5c0-1.5,0.4-2.6,1.1-3.3c0.8-0.7,2.3-1.5,4.5-2.2c2.3-0.8,3.7-1.1,4.4-1.1
			c0.4,0,0.8,0.2,1,0.6c0.3,0.4,0.4,0.9,0.4,1.4c0,0.4-0.3,1.4-0.9,2.7c-0.6,1.4-0.9,2.8-0.9,4.2c0,2,0.8,3.7,2.3,5.1
			s3.4,2.1,5.6,2.1c3.5,0,6.3-1.7,8.3-5.1c2-3.4,3.1-7.3,3.1-11.6c0-3.1-0.7-5.7-2.1-7.7s-3.1-3-5.3-2.9l-3.1,0.2
			c-1,0.1-1.5-0.5-1.5-1.8c0-1.5,0.2-2.5,0.6-2.9c0.4-0.4,1.1-0.7,2.1-0.7c2.4,0,4.4-0.2,5.9-0.6c1.5-0.4,2.8-1.3,4.1-2.7
			c1.3-1.4,2.3-3.2,3-5.4c0.8-2.2,1.1-4.3,1.1-6.5c0-2.7-0.8-4.8-2.4-6.5c-1.6-1.7-3.7-2.5-6.2-2.5c-2.3,0-4.3,0.7-6,2.1
			c-1.7,1.4-2.5,3-2.5,4.9c0,0.7,0.2,1.6,0.7,2.6c0.4,1,0.7,1.8,0.7,2.4c0,0.8-1,1.7-3.1,2.8c-2.1,1.1-3.5,1.6-4.4,1.6
			c-0.7,0-1.3-0.4-1.8-1.2c-0.5-0.8-0.8-1.8-0.8-3c0-3.7,2-7.4,5.9-10.8c3.9-3.5,8.9-5.2,14.8-5.2c4.8,0,8.8,1.3,11.8,3.8
			C114.2,44.8,115.7,48.1,115.7,52.1z"/>
	</g>
</g>
</svg>
