<?xml version="1.0" encoding="utf-8"?>
<!-- Generator: Adobe Illustrator 18.1.1, SVG Export Plug-In . SVG Version: 6.00 Build 0)  -->
<svg version="1.1" id="Capa_1" xmlns="http://www.w3.org/2000/svg" xmlns:xlink="http://www.w3.org/1999/xlink" x="0px" y="0px"
	 viewBox="0 0 200 170" style="enable-background:new 0 0 200 170;" xml:space="preserve">
<style type="text/css">
	.st0{fill:#727176;}
	.st1{fill:#727176;stroke:#FFFFFF;stroke-width:2.8431;stroke-miterlimit:10;stroke-dasharray:2.1323;}
	.st2{fill:#444242;}
	.st3{fill:none;stroke:#FFFFFF;stroke-width:1.4215;stroke-miterlimit:10;}
	.st4{fill:#FFFFFF;}
</style>
<g>
	<polygon class="st0" points="101.5,2.2 111.3,20.7 129.1,9.8 132,30.5 152.4,26.3 148.1,46.8 168.7,49.8 157.6,67.5 176,77.5 
		159.5,90.4 173.4,106 153.5,112.4 161.1,131.9 140.2,131.1 140.8,152 121.4,144.1 114.8,164 99.3,150 86.3,166.3 76.5,147.8 
		58.7,158.8 55.8,138.1 35.3,142.2 39.7,121.8 19,118.7 30.1,101 11.8,91 28.3,78.2 14.4,62.5 34.3,56.1 26.6,36.7 47.5,37.4 
		47,16.5 66.3,24.4 73,4.6 88.5,18.6 	"/>
	<polygon class="st1" points="100.2,16.7 108.2,31.9 122.9,22.9 125.3,40 142.1,36.5 138.5,53.4 155.5,55.9 146.4,70.5 161.5,78.7 
		147.9,89.3 159.3,102.2 143,107.5 149.3,123.5 132.1,122.9 132.5,140.1 116.6,133.6 111.1,149.9 98.3,138.4 87.6,151.8 79.6,136.6 
		64.9,145.6 62.5,128.6 45.6,132 49.3,115.2 32.2,112.6 41.4,98.1 26.2,89.8 39.8,79.3 28.4,66.4 44.8,61.1 38.5,45.1 55.7,45.7 
		55.3,28.5 71.2,34.9 76.7,18.6 89.4,30.2 	"/>
	<g>
		<path class="st2" d="M195,135.2c-63.3-24.5-126.7,24.5-190,0c3.4-3.6,6.8-7.5,10.2-11.5c-3.4-6.2-6.8-12.5-10.2-19.1
			c63.3,24.5,126.7-24.5,190,0c-3.1,3.9-6.2,8-9.4,12.2C188.8,122.7,191.9,128.8,195,135.2z"/>
		<path class="st3" d="M195,135.2c-63.3-24.5-126.7,24.5-190,0c3.4-3.6,6.8-7.5,10.2-11.5c-3.4-6.2-6.8-12.5-10.2-19.1
			c63.3,24.5,126.7-24.5,190,0c-3.1,3.9-6.2,8-9.4,12.2C188.8,122.7,191.9,128.8,195,135.2z"/>
	</g>
	<polygon class="st4" points="96.7,107.7 100.5,115.2 108.8,116.4 102.7,122.3 104.2,130.6 96.7,126.7 89.3,130.6 90.7,122.3 
		84.7,116.4 93,115.2 	"/>
	<g>
		<path class="st4" d="M96.8,52.2c-4,3.4-6.9,6.6-8.6,9.5c-0.6,1-1.1,1.6-1.4,1.6c-0.5,0-1-0.1-1.4-0.4c-0.4-0.3-0.6-0.6-0.6-1
			c0-0.4,0.7-1.6,2-3.5c1.3-1.9,3.5-4.3,6.7-7.2c3.1-2.9,5.4-4.7,6.9-5.4c1.5-0.7,3.4-1.1,5.8-1.1c1.2,0,1.9,0.3,1.9,1
			c0,0.1,0,0.4-0.1,1.1v0.1l-3.2,12.9l-4.1,16c-1.6,6.1-3.1,11.3-4.4,15.6c-1.3,4.3-2.2,6.7-2.7,7.2s-1.6,0.8-3.3,1.1
			c-1.7,0.3-3.6,0.4-5.8,0.4c-1.3,0-2-0.3-2-1c0-0.6,0.2-1.4,0.6-2.4C87.3,85.3,91.8,70.6,96.8,52.2z"/>
	</g>
</g>
</svg>
