<?xml version="1.0" encoding="utf-8"?>
<!-- Generator: Adobe Illustrator 18.1.1, SVG Export Plug-In . SVG Version: 6.00 Build 0)  -->
<svg version="1.1" id="Capa_1" xmlns="http://www.w3.org/2000/svg" xmlns:xlink="http://www.w3.org/1999/xlink" x="0px" y="0px"
	 viewBox="0 0 200 170" style="enable-background:new 0 0 200 170;" xml:space="preserve">
<style type="text/css">
	.st0{fill:#EC145B;}
	.st1{fill:#EC145B;stroke:#FFFFFF;stroke-width:2.8431;stroke-miterlimit:10;stroke-dasharray:2.1323;}
	.st2{fill:#A80B43;}
	.st3{fill:none;stroke:#FFFFFF;stroke-width:1.4215;stroke-miterlimit:10;}
	.st4{fill:#FFFFFF;}
</style>
<g>
	<polygon class="st0" points="101.5,3 111.3,21.4 129.1,10.5 132,31.2 152.5,27 148.1,47.5 168.7,50.6 157.6,68.3 176,78.2 
		159.5,91.1 173.4,106.7 153.5,113.2 161.1,132.6 140.3,131.8 140.8,152.7 121.4,144.9 114.8,164.7 99.3,150.7 86.3,167 76.5,148.6 
		58.7,159.5 55.8,138.8 35.3,143 39.7,122.5 19.1,119.4 30.1,101.7 11.8,91.8 28.3,78.9 14.4,63.3 34.3,56.8 26.7,37.4 47.5,38.2 
		47,17.3 66.4,25.1 73,5.3 88.5,19.3 	"/>
	<polygon class="st1" points="100.2,17.4 108.2,32.6 122.9,23.6 125.3,40.7 142.1,37.3 138.5,54.1 155.6,56.6 146.4,71.2 
		161.5,79.4 148,90 159.4,102.9 143,108.2 149.3,124.2 132.1,123.6 132.5,140.8 116.6,134.3 111.1,150.6 98.3,139.1 87.6,152.6 
		79.6,137.4 64.9,146.4 62.5,129.3 45.7,132.7 49.3,115.9 32.2,113.4 41.4,98.8 26.3,90.6 39.8,80 28.4,67.1 44.8,61.8 38.5,45.8 
		55.7,46.4 55.3,29.2 71.2,35.7 76.7,19.4 89.4,30.9 	"/>
	<g>
		<path class="st2" d="M195,135.9c-63.3-24.5-126.7,24.5-190,0c3.4-3.6,6.8-7.5,10.2-11.5c-3.4-6.2-6.8-12.5-10.2-19.1
			c63.3,24.5,126.7-24.5,190,0c-3.1,3.9-6.2,8-9.4,12.2C188.8,123.4,191.9,129.6,195,135.9z"/>
		<path class="st3" d="M195,135.9c-63.3-24.5-126.7,24.5-190,0c3.4-3.6,6.8-7.5,10.2-11.5c-3.4-6.2-6.8-12.5-10.2-19.1
			c63.3,24.5,126.7-24.5,190,0c-3.1,3.9-6.2,8-9.4,12.2C188.8,123.4,191.9,129.6,195,135.9z"/>
	</g>
	<polygon class="st4" points="60,115 63.7,122.5 72,123.7 66,129.6 67.4,137.8 60,133.9 52.5,137.8 53.9,129.6 47.9,123.7 
		56.2,122.5 	"/>
	<polygon class="st4" points="86,110.4 89.7,118 98.1,119.2 92,125 93.5,133.3 86,129.4 78.6,133.3 80,125 74,119.2 82.3,118 	"/>
	<polygon class="st4" points="113.4,104.3 117.1,111.9 125.5,113.1 119.4,119 120.9,127.2 113.4,123.3 106,127.2 107.4,119 
		101.4,113.1 109.7,111.9 	"/>
	<polygon class="st4" points="140.9,102.9 144.6,110.5 152.9,111.7 146.9,117.5 148.3,125.8 140.9,121.9 133.4,125.8 134.9,117.5 
		128.8,111.7 137.1,110.5 	"/>
	<g>
		<path class="st4" d="M102.5,75.6c3.5-0.1,6.4-0.5,8.7-1l0.7-0.2c0.9,0,1.4,0.3,1.4,0.9c0,0.4-0.3,1.7-1,3.9
			c-0.7,2.1-1.2,3.3-1.5,3.6c-0.4,0.2-1.3,0.4-2.8,0.6c-1.5,0.1-4,0.2-7.6,0.2L98,92.2c-0.7,2.4-1.2,4.3-1.8,5.7
			c-0.5,1.3-1.1,2.2-1.8,2.6c-0.7,0.4-2,0.7-4,1c-2,0.3-4.2,0.4-6.5,0.4c-1.4,0-2.1-0.4-2.1-1.1c0-0.6,0.2-1.5,0.6-2.6l5.4-14.7
			L72.1,83c-1.4-0.1-2.3-0.1-2.7-0.3c-0.3-0.1-0.5-0.4-0.5-0.9c0-1.9,0.3-3.5,0.9-4.8c1.4-3,3.6-6.6,6.4-10.7
			c4.2-6,9-11.8,14.6-17.4s9.6-9.1,12.1-10.4c1.5-0.8,3.7-1.3,6.4-1.3c1.7,0,2.5,0.4,2.5,1.3c0,0.4-0.7,3.5-2.1,9.4l-1.3,5.8
			c-0.7,3.1-2.3,9-4.7,17.6L102.5,75.6z M99.2,45.9c-2.9,2-6.9,6-12.1,12.1s-9.6,12.3-13.3,18.7c6.9,0.1,12.3,0,16.1-0.2
			C92.5,69.1,95.5,58.9,99.2,45.9z"/>
	</g>
</g>
</svg>
