<?xml version="1.0" encoding="utf-8"?>
<!-- Generator: Adobe Illustrator 18.1.1, SVG Export Plug-In . SVG Version: 6.00 Build 0)  -->
<svg version="1.1" id="Capa_1" xmlns="http://www.w3.org/2000/svg" xmlns:xlink="http://www.w3.org/1999/xlink" x="0px" y="0px"
	 viewBox="0 0 200 170" style="enable-background:new 0 0 200 170;" xml:space="preserve">
<style type="text/css">
	.st0{fill:#0A94D6;}
	.st1{fill:#0A94D6;stroke:#FFFFFF;stroke-width:2.8431;stroke-miterlimit:10;stroke-dasharray:2.1323;}
	.st2{fill:#054664;}
	.st3{fill:none;stroke:#FFFFFF;stroke-width:1.4215;stroke-miterlimit:10;}
	.st4{fill:#FFFFFF;}
</style>
<g>
	<polygon class="st0" points="101.5,3 111.3,21.4 129.1,10.5 132,31.2 152.4,27 148.1,47.5 168.7,50.6 157.6,68.3 176,78.2 
		159.5,91.1 173.4,106.7 153.5,113.2 161.1,132.6 140.2,131.8 140.8,152.7 121.4,144.9 114.8,164.7 99.3,150.7 86.3,167 76.5,148.6 
		58.7,159.5 55.8,138.8 35.3,143 39.7,122.5 19,119.4 30.1,101.7 11.8,91.8 28.3,78.9 14.4,63.3 34.3,56.8 26.6,37.4 47.5,38.2 
		47,17.3 66.3,25.1 73,5.3 88.5,19.3 	"/>
	<polygon class="st1" points="100.2,17.4 108.2,32.6 122.9,23.6 125.3,40.7 142.1,37.3 138.5,54.1 155.5,56.6 146.4,71.2 
		161.5,79.4 147.9,90 159.3,102.9 143,108.2 149.3,124.2 132.1,123.6 132.5,140.8 116.6,134.3 111.1,150.6 98.3,139.1 87.6,152.6 
		79.6,137.4 64.9,146.4 62.5,129.3 45.6,132.7 49.3,115.9 32.2,113.4 41.4,98.8 26.2,90.6 39.8,80 28.4,67.1 44.8,61.8 38.5,45.8 
		55.7,46.4 55.3,29.2 71.2,35.7 76.7,19.4 89.4,30.9 	"/>
	<g>
		<path class="st2" d="M195,135.9c-63.3-24.5-126.7,24.5-190,0c3.4-3.6,6.8-7.5,10.2-11.5c-3.4-6.2-6.8-12.5-10.2-19.1
			c63.3,24.5,126.7-24.5,190,0c-3.1,3.9-6.2,8-9.4,12.2C188.8,123.4,191.9,129.6,195,135.9z"/>
		<path class="st3" d="M195,135.9c-63.3-24.5-126.7,24.5-190,0c3.4-3.6,6.8-7.5,10.2-11.5c-3.4-6.2-6.8-12.5-10.2-19.1
			c63.3,24.5,126.7-24.5,190,0c-3.1,3.9-6.2,8-9.4,12.2C188.8,123.4,191.9,129.6,195,135.9z"/>
	</g>
	<polygon class="st4" points="73.5,112.8 77.2,120.4 85.5,121.6 79.5,127.4 80.9,135.7 73.5,131.8 66,135.7 67.4,127.4 61.4,121.6 
		69.7,120.4 	"/>
	<polygon class="st4" points="99.5,107.6 103.2,115.1 111.6,116.3 105.5,122.2 107,130.5 99.5,126.6 92.1,130.5 93.5,122.2 
		87.5,116.3 95.8,115.1 	"/>
	<g>
		<path class="st4" d="M113.7,42.8c-0.8,3.4-1.9,6-3.1,7.6c-1.3,1.7-2.7,2.7-4.3,3.2c-1.6,0.5-3.8,0.7-6.4,0.7c-2.7,0-6-0.2-9.7-0.7
			l-3.5,13c2.5-0.6,4.8-1,7-1c5,0,9.2,1.6,12.6,4.9c3.4,3.3,5,7.3,5,12.2c0,5.9-2.2,10.9-6.7,14.9c-4.4,4-9.9,6-16.5,6
			c-5,0-9-1.2-11.9-3.6c-2.9-2.4-4.4-5.1-4.4-7.9c0-0.9,0.1-1.6,0.4-2.2c0.3-0.5,0.8-1,1.5-1.4c0.8-0.4,2-1,3.7-1.7
			c1.7-0.7,2.8-1.1,3.5-1.1c0.7,0,1,0.3,1,1c0,0.3-0.2,1.3-0.5,3c-0.3,1.7-0.5,2.7-0.5,3c0,2.3,0.7,4.1,2,5.6
			c1.4,1.5,3.1,2.2,5.2,2.2c3,0,5.6-1.7,7.7-5.2c2.2-3.5,3.2-7.7,3.2-12.8c0-3.5-1-6.3-2.9-8.3c-1.9-2-4.6-3-8-3
			c-1.5,0-2.7,0.1-3.6,0.3c-0.8,0.2-1.4,0.3-1.7,0.3c-0.5,0-0.8-0.3-0.8-0.8c0-0.2,0.2-0.9,0.5-2.2l6.6-23.7
			c0.5-1.7,1.1-2.5,2.1-2.5c0.2,0,0.7,0.1,1.4,0.3c2.7,0.6,5.7,0.9,8.9,0.9C105.5,44,109.5,43.6,113.7,42.8z"/>
	</g>
	<polygon class="st4" points="44.5,115.8 48.2,123.3 56.6,124.5 50.5,130.4 52,138.7 44.5,134.8 37.1,138.7 38.5,130.4 32.5,124.5 
		40.8,123.3 	"/>
	<polygon class="st4" points="126.9,102.9 130.6,110.5 139,111.7 132.9,117.5 134.4,125.8 126.9,121.9 119.5,125.8 120.9,117.5 
		114.9,111.7 123.2,110.5 	"/>
	<polygon class="st4" points="154.4,102.9 158.1,110.5 166.4,111.7 160.4,117.5 161.8,125.8 154.4,121.9 146.9,125.8 148.3,117.5 
		142.3,111.7 150.6,110.5 	"/>
</g>
</svg>
