<?xml version="1.0" encoding="utf-8"?>
<!-- Generator: Adobe Illustrator 22.1.0, SVG Export Plug-In . SVG Version: 6.00 Build 0)  -->
<svg version="1.1" id="Capa_1" xmlns="http://www.w3.org/2000/svg" xmlns:xlink="http://www.w3.org/1999/xlink" x="0px" y="0px"
	 viewBox="0 0 160.2 170.1" style="enable-background:new 0 0 160.2 170.1;" xml:space="preserve">
<style type="text/css">
	.st0{fill:#0A94D6;}
</style>
<path class="st0" d="M117.2,25.6V9.2c0-5-4.1-9.2-9.2-9.2H52.2c-5,0-9.2,4.1-9.2,9.2v16.5H0v17.5h15.5l9.7,111.8
	c2.5,7.3,6.4,15.2,15.2,15.2h79.4c8.8,0,14.2-6.4,15.2-15.2l9.7-111.8h15.5V25.6H117.2z M53.7,15.8c0-2.7,2.2-5,5-5h42.8
	c2.7,0,5,2.2,5,5v9.8H53.7V15.8z M49.7,149.1c-5,0.5-9.5-3.3-10-8.3L33,68.9c-0.5-5,3.3-9.5,8.3-10c5-0.5,9.5,3.3,10,8.3l6.7,71.9
	C58.5,144.2,54.7,148.7,49.7,149.1z M89.3,140.1c0,5.1-4.1,9.2-9.2,9.2c-5.1,0-9.2-4.1-9.2-9.2V67.9c0-5.1,4.1-9.2,9.2-9.2
	c5.1,0,9.2,4.1,9.2,9.2V140.1z M120.5,140.8c-0.5,5-5,8.8-10,8.3c-5-0.5-8.8-5-8.3-10l6.7-71.9c0.5-5,5-8.8,10-8.3
	c5,0.5,8.8,5,8.3,10L120.5,140.8z"/>
</svg>
