<?xml version="1.0" encoding="utf-8"?>
<!-- Generator: Adobe Illustrator 18.1.1, SVG Export Plug-In . SVG Version: 6.00 Build 0)  -->
<svg version="1.1" id="Capa_1" xmlns="http://www.w3.org/2000/svg" xmlns:xlink="http://www.w3.org/1999/xlink" x="0px" y="0px"
	 viewBox="0 0 200 200" style="enable-background:new 0 0 200 200;" xml:space="preserve">
<style type="text/css">
	.st0{fill:#0A94D6;stroke:#0A94D6;stroke-width:2.0593;stroke-miterlimit:10;}
	.st1{fill:#FFFFFF;}
	.st2{fill:#0A94D6;}
	.st3{fill:#FFFFFF;stroke:#0A94D6;stroke-width:3.8901;stroke-miterlimit:10;}
</style>
<g>
	<g>
		<path class="st0" d="M165.4,36.2H33.6c-3.1,0-5.5,2.5-5.5,5.5v142.1c0,3.1,2.5,5.5,5.5,5.5h131.9c3.1,0,5.5-2.5,5.5-5.5V41.8
			C171,38.7,168.5,36.2,165.4,36.2z M63,171.9c-8.9,0-16.8-2.8-20.7-5.4l2.9-8.3c3.1,2,10.1,5,17.6,5c13.8,0,18.1-8.8,18-15.4
			c-0.1-11.1-10.1-15.9-20.5-15.9h-6v-8.1h6c7.8,0,17.7-4,17.7-13.5c0-6.4-4-12-13.9-12c-6.4,0-12.5,2.8-15.9,5.3l-2.8-7.8
			c4.2-3.1,12.2-6.1,20.8-6.1c15.7,0,22.7,9.3,22.7,19c0,8.2-4.9,15.2-14.7,18.7v0.2c9.8,2,17.7,9.3,17.7,20.4
			C92,160.8,82.1,171.9,63,171.9z M130.7,171.9c-15.5,0-26.1-14.5-26.3-40.8c0-26.7,11.5-41.3,27.6-41.3c16.8,0,26.3,14.9,26.3,40.2
			C158.3,157,148.3,171.9,130.7,171.9z"/>
		<path class="st0" d="M131.4,98c-9.4,0-16.3,11.5-16.3,33.1c0,20.7,6.4,32.4,16.1,32.4c11,0,16.3-12.8,16.3-33.1
			C147.5,110.9,142.5,98,131.4,98z"/>
	</g>
	<path class="st1" d="M166.2,83.1V46.3c0-2.9-2.3-5.2-5.2-5.2H37.9c-2.9,0-5.2,2.3-5.2,5.2v36.9H166.2z"/>
	<circle class="st2" cx="67.1" cy="56.4" r="16.5"/>
	<path class="st3" d="M67,56.7L67,56.7c-4.5,0-8.2-3.7-8.2-8.2V17.6c0-4.5,3.7-8.2,8.2-8.2h0c4.5,0,8.2,3.7,8.2,8.2v30.8
		C75.3,53,71.6,56.7,67,56.7z"/>
	<circle class="st2" cx="131.2" cy="57.6" r="16.5"/>
	<path class="st3" d="M131.1,57.9L131.1,57.9c-4.5,0-8.2-3.7-8.2-8.2V18.8c0-4.5,3.7-8.2,8.2-8.2h0c4.5,0,8.2,3.7,8.2,8.2v30.8
		C139.4,54.2,135.7,57.9,131.1,57.9z"/>
</g>
</svg>
