<?xml version="1.0" encoding="utf-8"?>
<!-- Generator: Adobe Illustrator 22.1.0, SVG Export Plug-In . SVG Version: 6.00 Build 0)  -->
<svg version="1.1" id="Capa_1" xmlns="http://www.w3.org/2000/svg" xmlns:xlink="http://www.w3.org/1999/xlink" x="0px" y="0px"
	 viewBox="0 0 127.1 163.1" style="enable-background:new 0 0 127.1 163.1;" xml:space="preserve">
<style type="text/css">
	.st0{fill:#0A94D6;}
</style>
<polygon class="st0" points="93.8,108.7 63.6,67.9 33.3,108.7 52.7,108.7 52.7,163.1 74.4,163.1 74.4,108.7 "/>
<path class="st0" d="M88.6,0H14.5C6.5,0,0,6.5,0,14.5v115.7c0,8,6.5,14.5,14.5,14.5h18.8v-13H14.5c-0.8,0-1.5-0.7-1.5-1.5V14.5
	c0-0.8,0.7-1.5,1.5-1.5H79v26.3c0,5.2,4.2,9.4,9.4,9.4h25.8v81.5c0,0.8-0.7,1.5-1.5,1.5H93.8v13h18.8c8,0,14.5-6.5,14.5-14.5V39.9
	L88.6,0z"/>
</svg>
