<?xml version="1.0" encoding="utf-8"?>
<!-- Generator: Adobe Illustrator 22.1.0, SVG Export Plug-In . SVG Version: 6.00 Build 0)  -->
<svg version="1.1" id="Capa_1" xmlns="http://www.w3.org/2000/svg" xmlns:xlink="http://www.w3.org/1999/xlink" x="0px" y="0px"
	 viewBox="0 0 167.6 170.2" style="enable-background:new 0 0 167.6 170.2;" xml:space="preserve">
<style type="text/css">
	.st0{fill:#0A94D6;}
	.st1{fill:#FFFFFF;}
</style>
<g>
	<g>
		<path class="st0" d="M157.9,61.8h-54L96.3,42c-2.2-3.2-4.4-4.8-7-4.8H56.1c-2.6,0-4.8,2.2-4.8,4.8v22.7v25.5v29.4
			c0,2.6,2.2,4.8,4.8,4.8h101.9c2.6,0,4.8-2.2,4.8-4.8v-53C162.7,64,160.6,61.8,157.9,61.8z"/>
		<path class="st0" d="M157.9,129.3H56.1c-5.3,0-9.7-4.4-9.7-9.7V42c0-5.3,4.4-9.7,9.7-9.7h33.2c6.2,0,9.9,5.2,11.1,6.9l0.3,0.5
			l6.7,17.2h50.6c5.3,0,9.7,4.4,9.7,9.7v53C167.6,125,163.3,129.3,157.9,129.3z M56.2,119.5h101.6V66.7h-57.2L92,44.4
			c-0.8-1.1-1.9-2.2-2.7-2.2H56.2V119.5z"/>
	</g>
	<g>
		<path class="st0" d="M160.2,49.3V37.2c0-1.8-1.5-3.2-3.2-3.2h-28.1c-1.8,0-3.8,1.3-4.5,3.2l-5,12.1H160.2z"/>
	</g>
	<g>
		<g>
			<path class="st1" d="M124.5,102.7h-54l-7.7-19.8c-2.2-3.2-4.4-4.8-7-4.8H22.6c-2.6,0-4.8,2.2-4.8,4.8v22.7v25.5v29.4
				c0,2.6,2.2,4.8,4.8,4.8h101.9c2.6,0,4.8-2.2,4.8-4.8v-53C129.3,104.9,127.1,102.7,124.5,102.7z"/>
		</g>
		<g>
			<path class="st0" d="M124.5,170.2H22.6c-5.3,0-9.7-4.4-9.7-9.7V82.9c0-5.3,4.4-9.7,9.7-9.7h33.2c6.2,0,9.9,5.2,11.1,6.9l0.3,0.5
				l6.7,17.2h50.6c5.3,0,9.7,4.4,9.7,9.7v53C134.2,165.8,129.8,170.2,124.5,170.2z M22.7,160.4h101.6v-52.8H67.1l-8.7-22.4
				c-0.8-1.1-1.9-2.2-2.7-2.2H22.7V160.4z"/>
		</g>
	</g>
	<g>
		<path class="st1" d="M126.7,91.1V79c0-1.8-1.5-3.2-3.2-3.2H95.4c-1.8,0-3.8,1.3-4.5,3.2l-5,12.1H126.7z"/>
	</g>
	<g>
		<g>
			<path class="st0" d="M115.9,150.3c-6.9,0-13.9-1.4-20.5-4.3l2.6-6c16.3,7.2,35.2,4,48.2-8.3C163.9,115,164.7,87,148,69.2l4.8-4.5
				c19.2,20.4,18.2,52.5-2.1,71.7C141,145.5,128.5,150.3,115.9,150.3z"/>
		</g>
		<g>
			<g>
				<polygon class="st0" points="107.4,133.7 81.3,132.1 93,155.5 				"/>
			</g>
		</g>
	</g>
	<g>
		<g>
			<path class="st0" d="M13.8,90.7C4.5,80.9-0.4,68,0,54.4c0.4-13.5,6-26.1,15.9-35.4C30.8,5,52.5,1.2,71.2,9.5l-2.6,6
				c-16.3-7.2-35.2-3.9-48.2,8.3C11.8,31.9,6.9,42.8,6.6,54.6c-0.3,11.8,3.9,23,12,31.6L13.8,90.7z"/>
		</g>
		<g>
			<g>
				<polygon class="st0" points="59.2,21.8 85.3,23.3 73.6,0 				"/>
			</g>
		</g>
	</g>
</g>
</svg>
