<?xml version="1.0" encoding="utf-8"?>
<!-- Generator: Adobe Illustrator 18.1.1, SVG Export Plug-In . SVG Version: 6.00 Build 0)  -->
<svg version="1.1" id="Capa_1" xmlns="http://www.w3.org/2000/svg" xmlns:xlink="http://www.w3.org/1999/xlink" x="0px" y="0px"
	 viewBox="0 0 200 200" style="enable-background:new 0 0 200 200;" xml:space="preserve">
<style type="text/css">
	.st0{fill:#0A94D6;}
	.st1{fill:#FFFFFF;}
	.st2{fill:#FFFFFF;stroke:#0A94D6;stroke-width:4.3456;stroke-miterlimit:10;}
	.st3{fill:none;stroke:#0A94D6;stroke-width:4.3456;stroke-miterlimit:10;}
</style>
<g>
	<path class="st0" d="M167,82.6h-41.1v-16c0-6.8-5.5-12.3-12.3-12.3H85c-6.8,0-12.3,5.5-12.3,12.3v16H31.6
		c-6.8,0-12.3,5.5-12.3,12.3V172c0,6.8,5.5,12.3,12.3,12.3H167c6.8,0,12.3-5.5,12.3-12.3V94.9C179.3,88.1,173.8,82.6,167,82.6z"/>
	<circle class="st1" cx="100.5" cy="134.7" r="36.1"/>
	<circle class="st2" cx="100.5" cy="134.7" r="20.3"/>
	<path class="st1" d="M105.1,83.3H93.5c-6.2,0-11.2-5.1-11.2-11.2v0c0-6.2,5.1-11.2,11.2-11.2h11.6c6.2,0,11.2,5.1,11.2,11.2v0
		C116.3,78.3,111.3,83.3,105.1,83.3z"/>
	<line class="st3" x1="99.3" y1="13.1" x2="99.3" y2="45.2"/>
	<line class="st3" x1="64.5" y1="24.9" x2="87.2" y2="47.6"/>
	<line class="st3" x1="133" y1="24.9" x2="110.3" y2="47.6"/>
</g>
</svg>
