<?xml version="1.0" encoding="utf-8"?>
<!-- Generator: Adobe Illustrator 19.1.0, SVG Export Plug-In . SVG Version: 6.00 Build 0)  -->
<svg version="1.1" id="Capa_1" xmlns="http://www.w3.org/2000/svg" xmlns:xlink="http://www.w3.org/1999/xlink" x="0px" y="0px"
	 viewBox="0 0 400 400" style="enable-background:new 0 0 400 400;" xml:space="preserve">
<style type="text/css">
	.st0{fill:none;stroke:#FFFFFF;stroke-width:18;stroke-miterlimit:10;}
	.st1{fill:#FFFFFF;stroke:#FFFFFF;stroke-width:0.6015;stroke-miterlimit:10;}
	.st2{fill:#FFFFFF;}
	.st3{fill:#FFFFFF;stroke:#FFFFFF;stroke-width:1.5038;stroke-miterlimit:10;}
</style>
<g>
	<path class="st0" d="M207,45.7H78.5c-14.2,0-25.9,11.6-25.9,25.9v256.8c0,14.2,11.6,25.9,25.9,25.9h191.9
		c14.2,0,25.9-11.6,25.9-25.9V133L207,45.7z"/>
	<path class="st1" d="M232.9,133h63.4L207,45.7v61.4C207,121.4,218.6,133,232.9,133z"/>
	<path class="st2" d="M364,64.2c-8.8-7.9-20.6-8.4-20.6-8.4L333,68l0,0L183.9,245.7l0.3,0.3l-3,3.4c-2.7,3.1-3.9,23.4-3.8,30.5
		l-1.4,4.3l-1.5,4.5l4.3-2.1l4.3-2.1l0,0c7.1-1.1,27.7-4.6,30.3-7.6l2.8-3.2l0.3,0.3l152.9-182l-0.1-0.1l7.3-8.5
		C376.5,83.3,375.8,74.7,364,64.2z"/>
	<path class="st3" d="M361.1,94.9l-36.5-31.1c1.5-2.1,1.2-5-0.7-6.7c-2.1-1.8-5.3-1.6-7.1,0.5l-52.2,59.7l-2.9,3.4
		c0,0-2.5-1.9-3.4-1.7c-2.7,0.5-4.1,6.2,1.7,11.3c2.1,1.8,5.3,1.6,7.1-0.5l49-56l36.5,31.1L361.1,94.9z"/>
</g>
</svg>
