<?xml version="1.0" encoding="utf-8"?>
<!-- Generator: Adobe Illustrator 19.1.0, SVG Export Plug-In . SVG Version: 6.00 Build 0)  -->
<svg version="1.1" id="Capa_1" xmlns="http://www.w3.org/2000/svg" xmlns:xlink="http://www.w3.org/1999/xlink" x="0px" y="0px"
	 viewBox="0 0 400 400" style="enable-background:new 0 0 400 400;" xml:space="preserve">
<style type="text/css">
	.st0{fill:#0A94D6;}
	.st1{fill:#0A94D6;stroke:#0A94D6;stroke-width:12.7842;stroke-miterlimit:10;}
</style>
<g>
	<path class="st0" d="M276.8,44.3C266.1,34.7,251.8,34,251.8,34l-12.7,14.8l0,0L57.4,265.3l0.4,0.3l-3.6,4.2
		c-3.3,3.8-4.7,28.5-4.6,37.1l-1.8,5.3l-1.9,5.5l5.2-2.6l5.2-2.6l0,0c8.7-1.4,33.8-5.6,36.9-9.3l3.4-3.9l0.3,0.3L283.2,77.9
		l-0.1-0.1l8.8-10.3C292,67.5,291.2,57,276.8,44.3z"/>
	<path class="st1" d="M273.3,81.6l-44.5-37.9c1.8-2.5,1.5-6.1-0.9-8.2c-2.5-2.2-6.4-2-8.6,0.6l-63.6,72.8l-3.6,4.1
		c0,0-3-2.3-4.2-2.1c-3.3,0.7-5,7.6,2.1,13.8c2.5,2.2,6.4,2,8.6-0.6l59.7-68.2l44.4,37.9L273.3,81.6z"/>
	<g>
		<g>
			<path class="st0" d="M183.5,242.8c22.4,28.8,43.7,58.3,64.1,88.5c3.7,5.5,17.1,3.2,22,1.8c6.5-1.9,15.8-5.4,18.1-12.6
				c8.8-27.7,18.5-56.7,32.2-81.4c6.9-12.5,15-24.5,24.6-35.1c0.5-0.5,0.9-1,1.4-1.6c-1.1,1.2-1,1.1,0.2-0.2c1.3-1.3,2.7-2.6,4-3.9
				c2.6-2.4,5.2-4.7,8-6.9c1.3-1,2.6-2,3.9-3c-3.7,2.8,1.3-0.9,2.1-1.3c3.2-2.1,6.6-4,10-5.7c5.7-3,12.3-11.4,3.9-15.4
				c-9-4.3-21.3-0.1-29.4,4.1c-59.1,30.7-83.4,96.2-102.4,155.9c13.4-3.6,26.7-7.2,40.1-10.7c-20.4-30.2-41.7-59.7-64.1-88.5
				c-2.1-2.7-8.2-3.3-11.1-3.3c-5.3-0.1-11.5,1.2-16.3,3.3C189.4,229.3,177.9,235.6,183.5,242.8L183.5,242.8z"/>
		</g>
	</g>
</g>
</svg>
