<?xml version="1.0" encoding="utf-8"?>
<!-- Generator: Adobe Illustrator 19.1.0, SVG Export Plug-In . SVG Version: 6.00 Build 0)  -->
<svg version="1.1" id="Capa_1" xmlns="http://www.w3.org/2000/svg" xmlns:xlink="http://www.w3.org/1999/xlink" x="0px" y="0px"
	 viewBox="0 0 400 400" style="enable-background:new 0 0 400 400;" xml:space="preserve">
<style type="text/css">
	.st0{fill:#0A94D6;}
</style>
<g>
	<path class="st0" d="M350,307.4c0,4.3-2.3,7.8-5.2,7.8h-246c-2.9,0-5.2-3.5-5.2-7.8l0,0c0-4.3,2.3-7.8,5.2-7.8h246
		C347.7,299.6,350,303.1,350,307.4L350,307.4z"/>
	<path class="st0" d="M365.7,114.6c7,10.9,6.7,23.5-0.6,28.2L177.3,262.5c-7.3,4.6-18.8-0.4-25.8-11.3l-39.2-61.5
		c-7-10.9-6.7-23.5,0.6-28.2L300.7,41.8c7.3-4.6,18.8,0.4,25.8,11.3L365.7,114.6z"/>
	<path class="st0" d="M144.1,281.6c0,0-45.2-56.4-59.1-102.4l-35.2,22.5c-9.6,6.1-11.7,19.9-4.8,30.8L84.2,294
		c6.9,10.9,20.4,14.8,29.9,8.7l31-19.7C144.8,282.5,144.4,282.1,144.1,281.6z"/>
</g>
</svg>
