<?xml version="1.0" encoding="utf-8"?>
<!-- Generator: Adobe Illustrator 19.1.0, SVG Export Plug-In . SVG Version: 6.00 Build 0)  -->
<svg version="1.1" id="Capa_1" xmlns="http://www.w3.org/2000/svg" xmlns:xlink="http://www.w3.org/1999/xlink" x="0px" y="0px"
	 viewBox="0 0 400 400" style="enable-background:new 0 0 400 400;" xml:space="preserve">
<style type="text/css">
	.st0{fill:#FFFFFF;}
</style>
<g>
	<path class="st0" d="M344,324.8c0,4.3-2.3,7.8-5.2,7.8h-246c-2.9,0-5.2-3.5-5.2-7.8l0,0c0-4.3,2.3-7.8,5.2-7.8h246
		C341.7,316.9,344,320.4,344,324.8L344,324.8z"/>
	<path class="st0" d="M359.7,131.9c7,10.9,6.7,23.5-0.6,28.2L171.3,279.8c-7.3,4.6-18.8-0.4-25.8-11.3l-39.2-61.5
		c-7-10.9-6.7-23.5,0.6-28.2L294.7,59.1c7.3-4.6,18.8,0.4,25.8,11.3L359.7,131.9z"/>
	<path class="st0" d="M138.1,299c0,0-45.2-56.4-59.1-102.4l-35.2,22.5c-9.6,6.1-11.7,19.9-4.8,30.8l39.2,61.5
		c6.9,10.9,20.4,14.8,29.9,8.7l31-19.7C138.8,299.9,138.4,299.5,138.1,299z"/>
</g>
</svg>
