<?xml version="1.0" encoding="utf-8"?>
<!-- Generator: Adobe Illustrator 19.1.0, SVG Export Plug-In . SVG Version: 6.00 Build 0)  -->
<svg version="1.1" id="Capa_1" xmlns="http://www.w3.org/2000/svg" xmlns:xlink="http://www.w3.org/1999/xlink" x="0px" y="0px"
	 viewBox="0 0 400 400" style="enable-background:new 0 0 400 400;" xml:space="preserve">
<style type="text/css">
	.st0{fill:#FFFFFF;}
</style>
<g>
	<path class="st0" d="M290.4,111.2c5.3,8.3,5.1,18-0.5,21.5l-143.6,91.6c-5.6,3.6-14.4-0.3-19.7-8.7l-30-47.1
		c-5.3-8.3-5.1-18,0.5-21.5l143.6-91.6c5.6-3.6,14.4,0.3,19.7,8.7L290.4,111.2z"/>
	<path class="st0" d="M120.8,239c0,0-34.6-43.2-45.2-78.3l-27,17.2c-7.3,4.7-9,15.2-3.6,23.6l30,47.1c5.3,8.3,15.6,11.3,22.9,6.6
		l23.7-15.1C121.4,239.7,121.1,239.4,120.8,239z"/>
	<g>
		<g>
			<g>
				<path class="st0" d="M234.9,220.7c0.8,0.3,1.5,0.6,2.3,0.9c-1.4-0.6-1.3-0.6,0.1,0.1c1.1,0.5,2.1,1,3.2,1.6
					c2.4,1.3,4.7,2.8,7,4.4c1.2,0.9,1.3,0.9,0.1,0c0.6,0.5,1.2,1,1.8,1.5c0.9,0.8,1.8,1.5,2.7,2.3c2,1.9,4,3.9,5.9,5.9
					c1.9,2.1,3.7,4.3,5.5,6.5c1,1.2,1,1.3,0.1,0.2c0.5,0.7,1,1.3,1.5,2c0.7,1,1.5,2,2.2,3c3.5,5,6.9,10,10.2,15.1
					c13.5,20.6,27.5,42.1,49.5,54.5c6.4,3.6,14.8,1.5,18.5-4.9c3.7-6.3,1.5-14.9-4.9-18.5c-2.7-1.5-5.2-3.1-7.7-4.9
					c-0.8-0.6-0.7-0.5,0.3,0.3c-0.6-0.5-1.3-1-1.9-1.5c-1.2-1-2.4-2.1-3.6-3.2c-4.2-3.9-7.9-8.3-11.5-12.8c1.6,2.1-1-1.3-1.3-1.7
					c-0.9-1.2-1.7-2.4-2.6-3.6c-1.7-2.4-3.4-4.8-5-7.3c-3.4-5.1-6.7-10.2-10.1-15.3c-14.2-21.4-30.2-41.6-55.1-50.6
					c-6.9-2.5-14.8,2.8-16.6,9.5C223.3,211.6,228,218.3,234.9,220.7L234.9,220.7z"/>
			</g>
		</g>
		<g>
			<g>
				<path class="st0" d="M239.6,313.1c23.8-9.8,41.3-27.5,59-45.7c7.9-8.1,16.4-16.6,25.1-22.7c4.8-3.4,9.8-6.5,15.2-8.8
					c2.9-1.3,10.8-3.6,13.7-3.9c7.3-0.9,13.5-5.6,13.5-13.5c0-6.7-6.2-14.4-13.5-13.5c-27.1,3.2-48.5,18.9-67.4,37.6
					c-8.6,8.6-16.8,17.6-25.7,25.8c-8,7.4-17.4,14.7-27,18.7c-6.8,2.8-11.6,9-9.5,16.6C224.7,310,232.8,315.9,239.6,313.1
					L239.6,313.1z"/>
			</g>
		</g>
	</g>
</g>
</svg>
