<?xml version="1.0" encoding="utf-8"?>
<!-- Generator: Adobe Illustrator 18.1.1, SVG Export Plug-In . SVG Version: 6.00 Build 0)  -->
<svg version="1.1" id="Capa_1" xmlns="http://www.w3.org/2000/svg" xmlns:xlink="http://www.w3.org/1999/xlink" x="0px" y="0px"
	 viewBox="0 0 200 200" style="enable-background:new 0 0 200 200;" xml:space="preserve">
<style type="text/css">
	.st0{fill:#3C997A;}
</style>
<g>
	<g>
		<path class="st0" d="M6,92.9c21.2,27.2,41.4,55.1,60.7,83.7c3.5,5.2,16.2,3.1,20.8,1.7c6.2-1.8,15-5.1,17.1-11.9
			c8.3-26.2,17.3-53.3,30.4-77c6.6-11.9,14.3-22.9,23.2-33.2c1.2-1.3,1.3-1.4,0.3-0.4c0.5-0.5,1-1,1.5-1.5c1.2-1.2,2.3-2.3,3.5-3.4
			c2.4-2.2,4.9-4.4,7.4-6.4c1.5-1.2,3-2.3,4.5-3.4c-3.1,2.3,0.4-0.2,1.1-0.7c3.2-2.1,6.5-4,9.9-5.7c5.4-2.8,11.6-10.8,3.6-14.6
			c-8.5-4-20.1-0.1-27.8,3.9c-55.9,29.1-78.9,91-96.9,147.5c12.6-3.4,25.3-6.8,37.9-10.2C84,133,63.7,105.1,42.6,77.8
			c-2-2.6-7.7-3.1-10.5-3.1c-5-0.1-10.8,1.1-15.4,3.1C11.5,80.1,0.7,86.1,6,92.9L6,92.9z"/>
	</g>
</g>
</svg>
