<?xml version="1.0" encoding="utf-8"?>
<!-- Generator: Adobe Illustrator 18.1.1, SVG Export Plug-In . SVG Version: 6.00 Build 0)  -->
<svg version="1.1" id="Capa_1" xmlns="http://www.w3.org/2000/svg" xmlns:xlink="http://www.w3.org/1999/xlink" x="0px" y="0px"
	 viewBox="0 0 200 200" style="enable-background:new 0 0 200 200;" xml:space="preserve">
<style type="text/css">
	.st0{fill:#B7DDF0;}
	.st1{fill:#B7DDF0;stroke:#054664;stroke-width:8.7954;stroke-miterlimit:10;}
</style>
<g>
	<path class="st0" d="M13.3,177.8H9.7v-31.2h17.4v3.2H13.3v11.4h13v3.2h-13V177.8z"/>
	<path class="st0" d="M46.1,177.8l-0.7-3.3h-0.2c-1.2,1.5-2.3,2.5-3.5,3c-1.2,0.5-2.6,0.8-4.3,0.8c-2.3,0-4.1-0.6-5.5-1.8
		c-1.3-1.2-2-2.9-2-5.1c0-4.7,3.8-7.2,11.3-7.4l4-0.1v-1.5c0-1.8-0.4-3.2-1.2-4.1c-0.8-0.9-2.1-1.3-3.8-1.3c-2,0-4.2,0.6-6.6,1.8
		l-1.1-2.7c1.2-0.6,2.4-1.1,3.8-1.5c1.4-0.4,2.8-0.5,4.1-0.5c2.8,0,4.9,0.6,6.2,1.9s2,3.2,2,6v16H46.1z M38.1,175.3
		c2.2,0,3.9-0.6,5.2-1.8c1.3-1.2,1.9-2.9,1.9-5.1v-2.1l-3.5,0.1c-2.8,0.1-4.9,0.5-6.1,1.3c-1.2,0.8-1.9,2-1.9,3.6
		c0,1.3,0.4,2.3,1.2,2.9S36.7,175.3,38.1,175.3z"/>
	<path class="st0" d="M61.2,177.8l-8.9-23.4h3.8l5,13.9c1.1,3.2,1.8,5.4,2,6.3h0.2c0.2-0.8,0.7-2.3,1.5-4.7
		c0.8-2.4,2.7-7.5,5.6-15.5h3.8l-8.9,23.4H61.2z"/>
	<path class="st0" d="M98.2,166.1c0,3.8-1,6.8-2.9,8.9c-1.9,2.1-4.6,3.2-8,3.2c-2.1,0-4-0.5-5.6-1.5s-2.9-2.4-3.8-4.2
		c-0.9-1.8-1.3-4-1.3-6.5c0-3.8,1-6.8,2.9-8.9s4.6-3.2,7.9-3.2c3.3,0,5.9,1.1,7.8,3.3C97.3,159.4,98.2,162.4,98.2,166.1z
		 M80.4,166.1c0,3,0.6,5.3,1.8,6.8s3,2.4,5.3,2.4s4.1-0.8,5.3-2.3c1.2-1.6,1.8-3.8,1.8-6.8c0-3-0.6-5.2-1.8-6.8
		c-1.2-1.5-3-2.3-5.3-2.3c-2.3,0-4.1,0.8-5.3,2.3S80.4,163.1,80.4,166.1z"/>
	<path class="st0" d="M115.1,154c1,0,2,0.1,2.8,0.3l-0.5,3.3c-1-0.2-1.8-0.3-2.6-0.3c-1.9,0-3.5,0.8-4.9,2.3c-1.3,1.5-2,3.5-2,5.7
		v12.6h-3.5v-23.4h2.9l0.4,4.3h0.2c0.9-1.5,1.9-2.7,3.1-3.5C112.3,154.4,113.7,154,115.1,154z"/>
	<path class="st0" d="M122,148.1c0-0.8,0.2-1.4,0.6-1.8c0.4-0.4,0.9-0.6,1.5-0.6c0.6,0,1.1,0.2,1.5,0.6c0.4,0.4,0.6,1,0.6,1.8
		s-0.2,1.4-0.6,1.8c-0.4,0.4-0.9,0.6-1.5,0.6c-0.6,0-1.1-0.2-1.5-0.6C122.2,149.5,122,148.9,122,148.1z M125.9,177.8h-3.5v-23.4h3.5
		V177.8z"/>
	<path class="st0" d="M140.9,175.3c0.6,0,1.2,0,1.8-0.1s1-0.2,1.4-0.3v2.7c-0.4,0.2-1,0.3-1.7,0.5c-0.7,0.1-1.4,0.2-2,0.2
		c-4.5,0-6.8-2.4-6.8-7.2v-13.9h-3.4v-1.7l3.4-1.5l1.5-5h2.1v5.4h6.8v2.8h-6.8v13.8c0,1.4,0.3,2.5,1,3.2S139.8,175.3,140.9,175.3z"
		/>
	<path class="st0" d="M169,166.1c0,3.8-1,6.8-2.9,8.9c-1.9,2.1-4.6,3.2-8,3.2c-2.1,0-4-0.5-5.6-1.5c-1.6-1-2.9-2.4-3.8-4.2
		c-0.9-1.8-1.3-4-1.3-6.5c0-3.8,1-6.8,2.9-8.9s4.6-3.2,7.9-3.2c3.3,0,5.9,1.1,7.8,3.3C168.1,159.4,169,162.4,169,166.1z
		 M151.2,166.1c0,3,0.6,5.3,1.8,6.8c1.2,1.6,3,2.4,5.3,2.4s4.1-0.8,5.3-2.3c1.2-1.6,1.8-3.8,1.8-6.8c0-3-0.6-5.2-1.8-6.8
		c-1.2-1.5-3-2.3-5.3-2.3c-2.3,0-4.1,0.8-5.3,2.3C151.8,160.8,151.2,163.1,151.2,166.1z"/>
	<path class="st0" d="M190.4,171.4c0,2.2-0.8,3.9-2.4,5c-1.6,1.2-3.9,1.8-6.8,1.8c-3.1,0-5.5-0.5-7.3-1.5v-3.3
		c1.1,0.6,2.3,1,3.6,1.3c1.3,0.3,2.5,0.5,3.7,0.5c1.9,0,3.3-0.3,4.3-0.9c1-0.6,1.5-1.5,1.5-2.7c0-0.9-0.4-1.7-1.2-2.3
		c-0.8-0.6-2.3-1.4-4.6-2.3c-2.2-0.8-3.7-1.5-4.6-2.1c-0.9-0.6-1.6-1.3-2.1-2.1c-0.4-0.8-0.7-1.7-0.7-2.8c0-1.9,0.8-3.4,2.3-4.5
		c1.6-1.1,3.7-1.7,6.4-1.7c2.5,0,5,0.5,7.4,1.5l-1.3,2.9c-2.4-1-4.5-1.5-6.4-1.5c-1.7,0-2.9,0.3-3.8,0.8c-0.9,0.5-1.3,1.3-1.3,2.2
		c0,0.6,0.2,1.2,0.5,1.6c0.3,0.4,0.8,0.9,1.5,1.3s2.1,1,4.1,1.7c2.8,1,4.7,2,5.6,3.1S190.4,169.9,190.4,171.4z"/>
</g>
<g>
	<polygon class="st0" points="94.4,14.7 106.5,51.8 145.5,51.8 114,74.8 126,111.9 94.4,88.9 62.9,111.9 74.9,74.8 43.4,51.8 
		82.4,51.8 	"/>
	<polygon class="st1" points="105,24.8 117.9,64.6 159.8,64.6 125.9,89.2 138.9,129 105,104.4 71.2,129 84.1,89.2 50.3,64.6 
		92.1,64.6 	"/>
</g>
</svg>
