<?xml version="1.0" encoding="utf-8"?>
<!-- Generator: Adobe Illustrator 19.1.0, SVG Export Plug-In . SVG Version: 6.00 Build 0)  -->
<svg version="1.1" id="Capa_1" xmlns="http://www.w3.org/2000/svg" xmlns:xlink="http://www.w3.org/1999/xlink" x="0px" y="0px"
	 viewBox="-147 270.9 300 300" style="enable-background:new -147 270.9 300 300;" xml:space="preserve">
<style type="text/css">
	.st0{fill:#054664;stroke:#054664;stroke-width:14;stroke-miterlimit:10;}
	.st1{fill:#FFFFFF;}
	.st2{fill:#FFFFFF;stroke:#054664;stroke-width:11.0588;stroke-miterlimit:10;}
</style>
<g>
	<path class="st0" d="M23.3,303.2c-55.2,0-99.9,44.7-99.9,99.9S-31.9,503,23.3,503s99.9-44.7,99.9-99.9S78.5,303.2,23.3,303.2z
		 M105.8,395.7H83.6c-1-13.1-4.4-25.5-10-36.7c4.6-2.7,9-5.8,13.1-9.2C97.4,362.5,104.3,378.3,105.8,395.7z M29.6,329.4
		c10,6.2,18.7,14.4,25.4,24c-8,3.1-16.5,5.1-25.4,5.8V329.4z M43.2,322.7c12.8,3.2,24.5,9.3,34.2,17.7c-3.3,2.6-6.7,5-10.4,7.2
		C60.6,338,52.5,329.5,43.2,322.7z M17,329.4v29.7c-8.9-0.6-17.5-2.6-25.4-5.8C-1.6,343.8,7,335.6,17,329.4z M-20.4,347.6
		c-3.6-2.1-7.1-4.5-10.4-7.2c9.7-8.4,21.4-14.6,34.2-17.7C-5.9,329.5-14,338-20.4,347.6z M17,372.4v23.3h-40.8
		c0.9-11,3.9-21.4,8.6-30.8C-5.2,369.1,5.7,371.7,17,372.4z M17,408.3v23.6c-11.7,0.7-22.8,3.4-33,7.8c-4.5-9.6-7.3-20.2-7.9-31.4
		H17z M17,445.1v31.7c-10.5-6.5-19.6-15.2-26.5-25.5C-1.2,447.9,7.7,445.8,17,445.1z M29.6,445.1c9.3,0.7,18.2,2.8,26.5,6.2
		c-6.9,10.3-15.9,19-26.5,25.5V445.1z M29.6,431.8v-23.6h40.9c-0.7,11.2-3.4,21.8-7.9,31.4C52.4,435.3,41.2,432.6,29.6,431.8z
		 M29.6,395.7v-23.3c11.4-0.7,22.2-3.3,32.2-7.5c4.6,9.4,7.6,19.8,8.6,30.8H29.6z M-40.1,349.9c4.1,3.4,8.5,6.5,13.1,9.2
		c-5.5,11.2-9,23.6-10,36.7h-22.2C-57.7,378.3-50.8,362.5-40.1,349.9z M-59.4,408.3h22.2c0.7,13.3,4,26,9.4,37.4
		c-4.7,2.8-9.2,6-13.3,9.5C-51.6,442.2-58.3,426-59.4,408.3z M-39.8,456.7c2.6,2.7,5.3,5.3,8.2,7.7c3.2-2.6,6.7-5,10.2-7.2
		c6.6,10.2,15,19.1,24.7,26.3C-13.7,479.3-28.8,469.8-39.8,456.7z M43.2,483.5c9.7-7.2,18.1-16.1,24.7-26.3c3.6,2.2,7,4.6,10.2,7.2
		c2.9-2.4,5.7-5,8.2-7.7C75.3,469.8,60.3,479.3,43.2,483.5z M87.7,455.2c-4.2-3.5-8.6-6.7-13.3-9.5c5.4-11.4,8.7-24.1,9.4-37.4H106
		C104.9,426,98.2,442.2,87.7,455.2z"/>
	<path class="st1" d="M23.3,303.2c-55.2,0-99.9,44.7-99.9,99.9S-31.9,503,23.3,503s99.9-44.7,99.9-99.9S78.5,303.2,23.3,303.2z
		 M105.8,395.7H83.6c-1-13.1-4.4-25.5-10-36.7c4.6-2.7,9-5.8,13.1-9.2C97.4,362.5,104.3,378.3,105.8,395.7z M29.6,329.4
		c10,6.2,18.7,14.4,25.4,24c-8,3.1-16.5,5.1-25.4,5.8V329.4z M43.2,322.7c12.8,3.2,24.5,9.3,34.2,17.7c-3.3,2.6-6.7,5-10.4,7.2
		C60.6,338,52.5,329.5,43.2,322.7z M17,329.4v29.7c-8.9-0.6-17.5-2.6-25.4-5.8C-1.6,343.8,7,335.6,17,329.4z M-20.4,347.6
		c-3.6-2.1-7.1-4.5-10.4-7.2c9.7-8.4,21.4-14.6,34.2-17.7C-5.9,329.5-14,338-20.4,347.6z M17,372.4v23.3h-40.8
		c0.9-11,3.9-21.4,8.6-30.8C-5.2,369.1,5.7,371.7,17,372.4z M17,408.3v23.6c-11.7,0.7-22.8,3.4-33,7.8c-4.5-9.6-7.3-20.2-7.9-31.4
		H17z M17,445.1v31.7c-10.5-6.5-19.6-15.2-26.5-25.5C-1.2,447.9,7.7,445.8,17,445.1z M29.6,445.1c9.3,0.7,18.2,2.8,26.5,6.2
		c-6.9,10.3-15.9,19-26.5,25.5V445.1z M29.6,431.8v-23.6h40.9c-0.7,11.2-3.4,21.8-7.9,31.4C52.4,435.3,41.2,432.6,29.6,431.8z
		 M29.6,395.7v-23.3c11.4-0.7,22.2-3.3,32.2-7.5c4.6,9.4,7.6,19.8,8.6,30.8H29.6z M-40.1,349.9c4.1,3.4,8.5,6.5,13.1,9.2
		c-5.5,11.2-9,23.6-10,36.7h-22.2C-57.7,378.3-50.8,362.5-40.1,349.9z M-59.4,408.3h22.2c0.7,13.3,4,26,9.4,37.4
		c-4.7,2.8-9.2,6-13.3,9.5C-51.6,442.2-58.3,426-59.4,408.3z M-39.8,456.7c2.6,2.7,5.3,5.3,8.2,7.7c3.2-2.6,6.7-5,10.2-7.2
		c6.6,10.2,15,19.1,24.7,26.3C-13.7,479.3-28.8,469.8-39.8,456.7z M43.2,483.5c9.7-7.2,18.1-16.1,24.7-26.3c3.6,2.2,7,4.6,10.2,7.2
		c2.9-2.4,5.7-5,8.2-7.7C75.3,469.8,60.3,479.3,43.2,483.5z M87.7,455.2c-4.2-3.5-8.6-6.7-13.3-9.5c5.4-11.4,8.7-24.1,9.4-37.4H106
		C104.9,426,98.2,442.2,87.7,455.2z"/>
	<path class="st2" d="M-125.7,535.6c0,0,40-6.5,58.8-16c30.9-15.6,40.6-41.7,40.6-41.7l-27.6-19.3l99.3-40.8l0.8,107.5l-31.8-17.5
		c0,0-16,20.3-42.4,32.8C-85.2,567.8-125.7,535.6-125.7,535.6z"/>
</g>
</svg>
