<?xml version="1.0" encoding="utf-8"?>
<!-- Generator: Adobe Illustrator 19.1.0, SVG Export Plug-In . SVG Version: 6.00 Build 0)  -->
<svg version="1.1" id="Capa_1" xmlns="http://www.w3.org/2000/svg" xmlns:xlink="http://www.w3.org/1999/xlink" x="0px" y="0px"
	 viewBox="-147 270.9 300 300" style="enable-background:new -147 270.9 300 300;" xml:space="preserve">
<style type="text/css">
	.st0{fill:#0A94D6;}
</style>
<g>
	<g>
		<path class="st0" d="M71.7,449.9c1.8,9,6.6,16.4,12.6,25.4c8.5-5.7,16.5-10.8,24.1-16.4c1.2-0.9,1.4-4,1-5.8
			c-3.5-16.3-10.4-30.5-17.7-45.4c-6.9-14-12.3-21.5-27-21.5c-22.6,0-45.3,0-67.9,0c-16.7,0-21.3,7.1-28.6,22.2
			c-7.1,14.8-14.3,28.6-17.7,44.6c-0.4,2,0.5,5.3,1.9,6.4c7.2,5.4,14.8,10.2,23.2,15.9c7-10.8,10.6-15.3,12.4-23.9
			c0.5,0.1,1,0.2,1.6,0.2c0,8,0.1,16-0.1,24c-0.1,3.7,0.8,5.9,4.7,7.3c23.8,8.2,47.5,8.2,71.4,0c4-1.4,4.8-3.4,4.7-7.2
			c-0.2-8.6-0.1-17.2-0.1-25.7C70.8,449.9,71.3,449.9,71.7,449.9z"/>
		<path class="st0" d="M-1,337.4c0,18.4,13.2,32.3,30.8,32.5c17.7,0.1,31.6-14.3,31.5-32.7c-0.1-17.9-14-32.6-31-32.8
			C13,304.1-1.1,319-1,337.4z"/>
	</g>
	<path class="st0" d="M-54,410.9l-14.1-25.1c-13.4,12.2-22.2,26.6-26.5,43.3c-4.2,16-4.6,32,2,46.6c15.2,33.3,46.4,39.7,59.6,42.3
		l-9.3,16.3l47.7-12L-17.7,491l-9.8,14.9c-17-4.9-35-13.5-41.4-31C-77.2,452.5-75,433-54,410.9z"/>
	<path class="st0" d="M-105.4,462.4c-6.6-14.6-6.2-30.5-2-46.6c4.1-16.3,12.7-30.5,25.7-42.5l-5.9-10.5
		c-13.4,12.2-22.2,26.6-26.5,43.3c-4.2,16-4.6,32,2,46.6c2.7,6,6,11.1,9.6,15.5C-103.5,466.3-104.5,464.4-105.4,462.4z"/>
</g>
</svg>
