<?xml version="1.0" encoding="utf-8"?>
<!-- Generator: Adobe Illustrator 18.1.1, SVG Export Plug-In . SVG Version: 6.00 Build 0)  -->
<svg version="1.1" id="Capa_1" xmlns="http://www.w3.org/2000/svg" xmlns:xlink="http://www.w3.org/1999/xlink" x="0px" y="0px"
	 viewBox="0 0 300 300" style="enable-background:new 0 0 300 300;" xml:space="preserve">
<style type="text/css">
	.st0{fill:#0A94D6;}
	.st1{fill:#0A94D6;stroke:#0A94D6;stroke-width:2.346;stroke-miterlimit:10;}
</style>
<g>
	<polygon class="st0" points="146.8,9.2 12.7,157.2 56.7,157.2 56.7,286.2 146.8,286.2 146.8,157.2 280.9,157.2 	"/>
	<g>
		<polygon class="st1" points="228.4,250.1 245.5,234.2 278.3,270.1 260.8,285.9 		"/>
		<path class="st1" d="M216.4,169.9c-20.8-7.3-43.7,4-51.1,24.8c-1.4,4.3-2.2,8.7-2.2,13c0,16.7,10.5,32.1,27,37.9
			c20.8,7.3,43.7-4,51.1-24.8c1.4-4.3,2.2-8.7,2.2-13C243.6,191.1,233.1,175.5,216.4,169.9z M231.2,217.3c-2.5,7.3-8,13.2-14.6,16.7
			c-7,3.3-15,4-22.3,1.4c-11.6-4-19.7-15.3-19.7-27.7c0-3.3,0.6-6.5,1.7-9.5l0,0c2.5-7.3,8-13.2,14.6-16.7c6.8-3.3,15-4,22.3-1.4
			c11.6,4,19.7,15.3,19.7,27.7C232.8,210.8,232.3,214.1,231.2,217.3z"/>
	</g>
</g>
</svg>
