<?xml version="1.0" encoding="utf-8"?>
<!-- Generator: Adobe Illustrator 18.1.1, SVG Export Plug-In . SVG Version: 6.00 Build 0)  -->
<svg version="1.1" id="Capa_1" xmlns="http://www.w3.org/2000/svg" xmlns:xlink="http://www.w3.org/1999/xlink" x="0px" y="0px"
	 viewBox="0 0 200 200" enable-background="new 0 0 200 200" xml:space="preserve">
<g>
	<polygon fill="#FFFFFF" points="99.1,18.5 20.5,105.2 46.3,105.2 46.3,180.9 99.1,180.9 99.1,105.2 177.7,105.2 	"/>
	<g>
		<polygon fill="#FFFFFF" stroke="#FFFFFF" stroke-width="0.8686" stroke-miterlimit="10" points="147,159.7 157.1,150.4 
			176.3,171.4 166,180.7 		"/>
		<path fill="#FFFFFF" stroke="#FFFFFF" stroke-width="0.8686" stroke-miterlimit="10" d="M140,112.7c-12.2-4.3-25.7,2.3-30,14.6
			c-0.8,2.5-1.3,5.1-1.3,7.6c0,9.8,6.1,18.9,15.9,22.2c12.2,4.3,25.7-2.3,30-14.6c0.8-2.5,1.3-5.1,1.3-7.6
			C155.9,125.1,149.8,116,140,112.7z M148.6,140.5c-1.5,4.3-4.6,7.8-8.6,9.8c-4.1,2-8.8,2.3-13.1,0.8c-6.8-2.3-11.6-8.9-11.6-16.2
			c0-2,0.3-3.8,1-5.6l0,0c1.5-4.3,4.6-7.8,8.6-9.8s8.8-2.3,13.1-0.8c6.8,2.3,11.6,8.9,11.6,16.2
			C149.6,136.7,149.3,138.7,148.6,140.5z"/>
	</g>
</g>
</svg>
