<?xml version="1.0" encoding="utf-8"?>
<!-- Generator: Adobe Illustrator 19.1.0, SVG Export Plug-In . SVG Version: 6.00 Build 0)  -->
<svg version="1.1" id="Capa_1" xmlns="http://www.w3.org/2000/svg" xmlns:xlink="http://www.w3.org/1999/xlink" x="0px" y="0px"
	 viewBox="62 -125 300 300" style="enable-background:new 62 -125 300 300;" xml:space="preserve">
<style type="text/css">
	.st0{fill:#FFFFFF;stroke:#FFFFFF;stroke-width:24;stroke-miterlimit:10;}
	.st1{fill:#0A94D6;}
</style>
<g>
	<path class="st0" d="M320.8,63.3L200.5-30.9c-10.8-8.5-70.9-18.8-79.4-8L98.3-9.7C89.8,1.1,114.2,57,125,65.5l120.2,94.2
		c7.6,6,18.8,4.6,24.8-3l53.7-68.6C329.8,80.4,328.4,69.3,320.8,63.3z M163.8,17.4c-6.5,8.4-18.6,9.8-27,3.3s-9.8-18.6-3.3-27
		s18.6-9.8,27-3.3S170.4,9,163.8,17.4z"/>
	<g>
		<g>
			<path class="st1" d="M145.8-16.1c-7.1-11.5-9-25.3-4.9-38.2c1.5-4.7,4.2-11.6,9.4-13.2c5.2-1.7,11.7,2,16.6,3.4
				c14,3.9,28.7-1.2,32.4-16.5c3.7-15.6-5.9-28.2-15.9-38.9c-7.8-8.3-20.2,4.2-12.5,12.5c4.4,4.7,10,10.1,11.3,16.8
				c0.7,3.3,0.3,8.4-3.3,9.8c-4.5,1.9-11.3-2-15.6-3.2c-6.5-1.9-13.3-2.6-19.8-0.1c-13.3,5.2-19.8,20.7-21.7,34
				c-2.1,14.8,0.8,29.9,8.7,42.7C136.5,2.5,151.8-6.4,145.8-16.1L145.8-16.1z"/>
		</g>
	</g>
	<g>
		<path class="st1" d="M320.8,63.3L200.5-30.9c-10.8-8.5-70.9-18.8-79.4-8L98.3-9.7C89.8,1.1,114.2,57,125,65.5l120.2,94.2
			c7.6,6,18.8,4.6,24.8-3l53.7-68.6C329.8,80.4,328.4,69.3,320.8,63.3z M163.8,17.4c-6.5,8.4-18.6,9.8-27,3.3s-9.8-18.6-3.3-27
			s18.6-9.8,27-3.3S170.4,9,163.8,17.4z M196.9,21c10.7-13.3,24-15,32.8-7.9c9.3,7.5,9.7,19.6-0.5,32.3c-11.3,14-24.3,15.1-32.9,8.2
			C188,46.9,186.2,34.5,196.9,21z M250.4,107.8c-11.3,14.1-24.3,15.1-32.8,8.3c-8.3-6.7-10.1-19.1,0.5-32.5
			c10.8-13.4,24.1-15.1,32.9-8C260.3,83.1,260.6,95.1,250.4,107.8z M179,85.7l-5.7-4.6l94.5-37.5l5.7,4.6L179,85.7z"/>
		<path class="st1" d="M246.3,80.8c-5.6-4.5-14.1-0.3-20.8,8.1c-6.9,8.4-8.8,17.5-3.3,22c6,4.8,13.7,0.6,20.8-8.3
			C249.5,94.4,252.6,85.8,246.3,80.8z"/>
		<path class="st1" d="M200.9,48.3c6,4.8,13.7,0.6,20.8-8.3c6.5-8.1,9.6-16.8,3.3-21.8c-5.6-4.5-14-0.2-20.7,8.2
			C197.2,34.8,195.2,43.8,200.9,48.3z"/>
	</g>
</g>
</svg>
