<?xml version="1.0" encoding="utf-8"?>
<!-- Generator: Adobe Illustrator 19.1.0, SVG Export Plug-In . SVG Version: 6.00 Build 0)  -->
<svg version="1.1" id="Capa_1" xmlns="http://www.w3.org/2000/svg" xmlns:xlink="http://www.w3.org/1999/xlink" x="0px" y="0px"
	 viewBox="62 -125 300 300" style="enable-background:new 62 -125 300 300;" xml:space="preserve">
<style type="text/css">
	.st0{fill:#0A94D6;stroke:#FFFFFF;stroke-width:7;stroke-miterlimit:10;}
</style>
<g>
	<path class="st0" d="M302.7-24.2l-57.9-53.3c-0.8-0.7-0.8-2-0.1-2.7l11.9-13c0.7-0.8,2-0.8,2.7-0.1L317.2-40c0.8,0.7,0.8,2,0.1,2.7
		l-11.9,13C304.8-23.6,303.5-23.5,302.7-24.2z"/>
	<polygon class="st0" points="113.5,140.5 97.7,140.6 96.5,124.9 186.4,27 203.5,42.7 	"/>
	<path class="st0" d="M262,37.6l-4.8-4.4L294-23.3l-49.2-45.3l-53.2,41.4l-4.8-4.4c-10.9-10-27.9-9.3-37.9,1.6
		c-1.8,2-3.3,4.2-4.4,6.6L257.7,80.7c2.2-1.3,4.3-3,6.2-5C273.6,64.6,272.9,47.6,262,37.6z"/>
</g>
</svg>
