<?xml version="1.0" encoding="utf-8"?>
<!-- Generator: Adobe Illustrator 18.1.1, SVG Export Plug-In . SVG Version: 6.00 Build 0)  -->
<svg version="1.1" id="Capa_1" xmlns="http://www.w3.org/2000/svg" xmlns:xlink="http://www.w3.org/1999/xlink" x="0px" y="0px"
	 viewBox="0 0 200 200" style="enable-background:new 0 0 200 200;" xml:space="preserve">
<style type="text/css">
	.st0{fill:#FFFFFF;stroke:#EC145B;stroke-width:8.8159;stroke-miterlimit:10;}
	.st1{fill:#EC145B;stroke:#EC145B;stroke-width:1.7118;stroke-miterlimit:10;}
	.st2{fill:#EC145B;stroke:#EC145B;stroke-width:3.8148;stroke-miterlimit:10;}
	.st3{fill:none;stroke:#EC145B;stroke-width:7.7807;stroke-miterlimit:10;stroke-dasharray:13.4091,13.4091;}
</style>
<g>
	<path class="st0" d="M152.5,189.6H45c-7.8,0-14.2-6.4-14.2-14.2V57.5c0-7.8,6.4-14.2,14.2-14.2h107.6c7.8,0,14.2,6.4,14.2,14.2
		v117.9C166.7,183.2,160.3,189.6,152.5,189.6z"/>
	<path class="st1" d="M140.8,56.7c0.2-1,0.4-2,0.4-3V49c0-6.8-5.6-12.4-12.4-12.4c0,0-9.8-6.1-9.8-9.7c0-10.6-8.6-19.2-19.2-19.2
		c-10.6,0-19.2,8.6-19.2,19.2c0,3.5-11.1,9.7-11.1,9.7c-6.8,0-12.4,5.6-12.4,12.4v4.6c0,1,0.1,2.1,0.4,3H140.8z M99.7,16.9
		c5.6,0,10.1,4.5,10.1,10.1c0,4.6-3.1,8.5-7.3,9.7h-5.6c-4.2-1.2-7.3-5.1-7.3-9.7C89.6,21.4,94.1,16.9,99.7,16.9z"/>
	<g>
		<path class="st2" d="M100.3,128.2l-1.6-1.3c-0.6-0.5-0.7-1.3-0.2-2l27.3-32.1c0.5-0.6,1.3-0.7,2-0.2l1.6,1.3
			c0.6,0.5,0.7,1.3,0.2,2l-27.4,32.2C101.7,128.7,100.9,128.8,100.3,128.2z"/>
		<path class="st2" d="M100.3,126.4L100.3,126.4c-0.5,0.6-1.3,0.7-2,0.2l-23.7-20.3c-0.6-0.5-0.7-1.3-0.2-2l0,0
			c0.5-0.6,1.3-0.7,2-0.2l23.8,20.2C100.8,124.9,100.9,125.9,100.3,126.4z"/>
	</g>
	<g>
		<circle class="st3" cx="99.7" cy="121.5" r="51.2"/>
	</g>
</g>
</svg>
