<?xml version="1.0" encoding="utf-8"?>
<!-- Generator: Adobe Illustrator 19.1.0, SVG Export Plug-In . SVG Version: 6.00 Build 0)  -->
<svg version="1.1" id="Capa_1" xmlns="http://www.w3.org/2000/svg" xmlns:xlink="http://www.w3.org/1999/xlink" x="0px" y="0px"
	 viewBox="62 -125 300 300" style="enable-background:new 62 -125 300 300;" xml:space="preserve">
<style type="text/css">
	.st0{fill:#FFFFFF;}
	.st1{fill:#0A94D6;stroke:#0A94D6;stroke-width:18.4031;stroke-miterlimit:10;}
</style>
<g>
	<polygon class="st0" points="274.2,20.4 282,10.7 294.3,9.3 297.8,-2.7 308.7,-8.7 307.3,-21.1 315,-30.9 309.1,-41.8 312.5,-53.7 
		302.8,-61.5 301.3,-73.9 289.4,-77.4 283.3,-88.2 271,-86.9 261.2,-94.6 250.3,-88.7 238.3,-92 230.5,-82.4 218.2,-80.9 214.7,-69 
		203.8,-62.9 205.2,-50.5 197.5,-40.8 203.4,-29.9 200,-17.9 209.7,-10.1 210.2,-5.9 133,76.1 157.1,76.7 157.6,100.8 230,23.6 
		187.1,139 206.9,125.4 221.5,144.6 266.1,18.1 	"/>
	<path class="st1" d="M300,65.7L158.7-28.8c1.5-14.9-5-30.2-18.4-39.1c-11.1-7.4-24.5-8.8-36.3-4.9l27.4,18.3l11.4,23.1l-14.4,21.3
		l-25.7-1.7L75.4-30.1c0.9,12.4,7.3,24.3,18.5,31.7c13.3,8.9,29.9,9.1,43.1,2l141.4,94.5c0.1,11.1,5.5,22,15.4,28.7
		c16,10.7,37.6,6.4,48.2-9.6s6.4-37.6-9.6-48.2C322.5,62.3,310.3,61.5,300,65.7z M333,110.7c-7.2,10.8-21.8,13.7-32.7,6.5
		c-10.8-7.2-13.7-21.8-6.5-32.7c7.2-10.8,21.8-13.7,32.7-6.5C337.3,85.2,340.2,99.9,333,110.7z"/>
	<path class="st0" d="M300,65.7L158.7-28.8c1.5-14.9-5-30.2-18.4-39.1c-11.1-7.4-24.5-8.8-36.3-4.9l27.4,18.3l11.4,23.1l-14.4,21.3
		l-25.7-1.7L75.4-30.1c0.9,12.4,7.3,24.3,18.5,31.7c13.3,8.9,29.9,9.1,43.1,2l141.4,94.5c0.1,11.1,5.5,22,15.4,28.7
		c16,10.7,37.6,6.4,48.2-9.6s6.4-37.6-9.6-48.2C322.5,62.4,310.3,61.5,300,65.7z M333,110.7c-7.2,10.8-21.8,13.7-32.7,6.5
		c-10.8-7.2-13.7-21.8-6.5-32.7c7.2-10.8,21.8-13.7,32.7-6.5C337.3,85.3,340.2,99.9,333,110.7z"/>
</g>
</svg>
