<?xml version="1.0" encoding="utf-8"?>
<!-- Generator: Adobe Illustrator 19.1.0, SVG Export Plug-In . SVG Version: 6.00 Build 0)  -->
<svg version="1.1" id="Capa_1" xmlns="http://www.w3.org/2000/svg" xmlns:xlink="http://www.w3.org/1999/xlink" x="0px" y="0px"
	 viewBox="62 -125 300 300" style="enable-background:new 62 -125 300 300;" xml:space="preserve">
<style type="text/css">
	.st0{fill:none;stroke:#FFFFFF;stroke-width:19.0875;stroke-miterlimit:10;}
	.st1{fill:#FFFFFF;}
</style>
<g>
	<circle class="st0" cx="212" cy="25.5" r="134"/>
	<g>
		<path class="st1" d="M201.1-42.3l-79.9,86.9H147v75.8h107.2V44.6h24.4L201.1-42.3z M200.9,41.4v57.1h-31.6V41.4h-15.4l47-51.9
			l47,51.9H200.9z"/>
		<path class="st1" d="M260.8-76.3l-44.5,48.4h14.4v42.3h59.7v-42.3H304L260.8-76.3z M260.6-29.6V2.2H243v-31.8h-8.6l26.2-28.9
			l26.2,28.9H260.6z"/>
		<path class="st1" d="M139.1-50l-28.2,30.6h9.1V7.3h37.8v-26.7h8.6L139.1-50z M139-20.5v20.1h-11.2v-20.1h-5.4L139-38.8l16.6,18.3
			H139z"/>
	</g>
</g>
</svg>
