<?xml version="1.0" encoding="utf-8"?>
<!-- Generator: Adobe Illustrator 18.1.1, SVG Export Plug-In . SVG Version: 6.00 Build 0)  -->
<svg version="1.1" id="Capa_1" xmlns="http://www.w3.org/2000/svg" xmlns:xlink="http://www.w3.org/1999/xlink" x="0px" y="0px"
	 viewBox="0 0 200 200" style="enable-background:new 0 0 200 200;" xml:space="preserve">
<style type="text/css">
	.st0{fill:#FFFFFF;}
</style>
<g>
	<path class="st0" d="M44.1,174.8l-4.3-10.9H26.1l-4.2,10.9h-4l13.5-34.4h3.4l13.5,34.4H44.1z M38.6,160.3l-4-10.6
		c-0.5-1.3-1-3-1.6-4.9c-0.3,1.5-0.8,3.1-1.5,4.9l-4,10.6H38.6z"/>
	<path class="st0" d="M73.4,149.1v2.5l-4.8,0.6c0.4,0.5,0.8,1.3,1.2,2.1s0.5,1.9,0.5,3c0,2.5-0.9,4.5-2.6,6s-4.1,2.3-7.1,2.3
		c-0.8,0-1.5-0.1-2.2-0.2c-1.7,0.9-2.5,2-2.5,3.3c0,0.7,0.3,1.2,0.9,1.6s1.6,0.5,3,0.5h4.5c2.8,0,4.9,0.6,6.4,1.8s2.2,2.9,2.2,5.1
		c0,2.8-1.1,5-3.4,6.5s-5.6,2.2-10,2.2c-3.4,0-5.9-0.6-7.8-1.9s-2.7-3-2.7-5.3c0-1.6,0.5-2.9,1.5-4.1s2.4-1.9,4.2-2.3
		c-0.7-0.3-1.2-0.8-1.7-1.4s-0.7-1.4-0.7-2.2c0-0.9,0.3-1.8,0.8-2.5s1.3-1.4,2.4-2c-1.3-0.5-2.4-1.5-3.2-2.8s-1.3-2.8-1.3-4.5
		c0-2.8,0.8-5,2.5-6.5s4.1-2.3,7.2-2.3c1.3,0,2.6,0.2,3.6,0.5H73.4z M52.9,179.1c0,1.4,0.6,2.4,1.8,3.2s2.9,1.1,5,1.1
		c3.3,0,5.7-0.5,7.3-1.5s2.4-2.3,2.4-4c0-1.4-0.4-2.4-1.3-2.9s-2.5-0.8-4.9-0.8h-4.7c-1.8,0-3.1,0.4-4.1,1.3S52.9,177.5,52.9,179.1z
		 M55,157.3c0,1.8,0.5,3.2,1.5,4.1s2.4,1.4,4.2,1.4c3.8,0,5.7-1.8,5.7-5.5c0-3.9-1.9-5.8-5.8-5.8c-1.8,0-3.2,0.5-4.2,1.5
		S55,155.4,55,157.3z"/>
	<path class="st0" d="M89.5,175.3c-3.8,0-6.8-1.2-9-3.5s-3.3-5.5-3.3-9.6c0-4.1,1-7.4,3.1-9.9s4.8-3.7,8.2-3.7
		c3.2,0,5.8,1.1,7.6,3.2s2.8,4.9,2.8,8.4v2.5H81.3c0.1,3,0.8,5.3,2.3,6.9s3.5,2.3,6.1,2.3c2.8,0,5.5-0.6,8.2-1.7v3.5
		c-1.4,0.6-2.7,1-3.9,1.3S91.2,175.3,89.5,175.3z M88.5,151.9c-2.1,0-3.7,0.7-4.9,2s-1.9,3.2-2.2,5.6h13.4c0-2.5-0.5-4.3-1.6-5.6
		S90.5,151.9,88.5,151.9z"/>
	<path class="st0" d="M123.2,174.8v-16.6c0-2.1-0.5-3.7-1.4-4.7s-2.4-1.5-4.5-1.5c-2.7,0-4.7,0.7-5.9,2.2s-1.9,3.9-1.9,7.2v13.5
		h-3.9v-25.7h3.2l0.6,3.5h0.2c0.8-1.3,1.9-2.2,3.4-2.9s3-1,4.8-1c3.1,0,5.4,0.7,7,2.2s2.3,3.9,2.3,7.2v16.8H123.2z"/>
	<path class="st0" d="M152.5,171.3h-0.2c-1.8,2.6-4.5,3.9-8.1,3.9c-3.4,0-6-1.1-7.8-3.4s-2.8-5.6-2.8-9.8s0.9-7.5,2.8-9.9
		s4.5-3.5,7.8-3.5c3.5,0,6.2,1.3,8,3.8h0.3l-0.2-1.9l-0.1-1.8v-10.5h3.9v36.5H153L152.5,171.3z M144.8,172c2.7,0,4.6-0.7,5.8-2.2
		s1.8-3.8,1.8-7V162c0-3.6-0.6-6.2-1.8-7.8s-3.1-2.3-5.8-2.3c-2.3,0-4,0.9-5.2,2.7s-1.8,4.3-1.8,7.5c0,3.3,0.6,5.8,1.8,7.4
		S142.4,172,144.8,172z"/>
	<path class="st0" d="M180.3,174.8l-0.8-3.7h-0.2c-1.3,1.6-2.6,2.7-3.8,3.3s-2.9,0.9-4.8,0.9c-2.5,0-4.5-0.7-6-2s-2.2-3.2-2.2-5.6
		c0-5.2,4.1-7.9,12.4-8.2l4.4-0.1v-1.6c0-2-0.4-3.5-1.3-4.5s-2.3-1.4-4.2-1.4c-2.1,0-4.6,0.7-7.3,2l-1.2-3c1.3-0.7,2.7-1.2,4.2-1.6
		s3-0.6,4.5-0.6c3.1,0,5.3,0.7,6.8,2s2.2,3.5,2.2,6.5v17.5H180.3z M171.5,172c2.4,0,4.3-0.7,5.7-2s2.1-3.2,2.1-5.6v-2.3l-3.9,0.2
		c-3.1,0.1-5.3,0.6-6.7,1.4s-2.1,2.2-2.1,4c0,1.4,0.4,2.5,1.3,3.2S169.9,172,171.5,172z"/>
</g>
<g>
	<path class="st0" d="M146.8,24.5h-3.5v-5.1c0-2.2-1.4-3.9-3.1-3.9H61c-1.7,0-3.1,1.7-3.1,3.9v92.8c0,2.2,1.4,3.9,3.1,3.9h79.2
		c1.7,0,3.1-1.7,3.1-3.9V49.7h3.5c3.7,0,6.8-3,6.8-6.8V31.3C153.5,27.6,150.5,24.5,146.8,24.5z M85.2,113H64.6
		c-1.6,0-2.9-1.6-2.9-3.6V23.3c0-2,1.3-3.6,2.9-3.6h20.6V113z"/>
	<g>
		<g>
			<circle class="st0" cx="69.2" cy="103.4" r="5.4"/>
			<path class="st0" d="M50.4,93c0.4-1,1.6-1.5,2.6-1.1l17.4,8.7c1,0.4,1.5,1.6,1.1,2.6l-0.7,1.6c-0.4,1-1.6,1.5-2.6,1.1l-17.4-8.7
				c-1-0.4-1.5-1.6-1.1-2.6L50.4,93z"/>
		</g>
		<g>
			<circle class="st0" cx="69.2" cy="84.9" r="5.4"/>
			<path class="st0" d="M50.4,74.5c0.4-1,1.6-1.5,2.6-1.1l17.4,8.7c1,0.4,1.5,1.6,1.1,2.6l-0.7,1.6c-0.4,1-1.6,1.5-2.6,1.1
				l-17.4-8.7c-1-0.4-1.5-1.6-1.1-2.6L50.4,74.5z"/>
		</g>
		<g>
			<circle class="st0" cx="69.2" cy="66.4" r="5.4"/>
			<path class="st0" d="M50.4,56c0.4-1,1.6-1.5,2.6-1.1l17.4,8.7c1,0.4,1.5,1.6,1.1,2.6l-0.7,1.6c-0.4,1-1.6,1.5-2.6,1.1l-17.4-8.7
				c-1-0.4-1.5-1.6-1.1-2.6L50.4,56z"/>
		</g>
		<g>
			<circle class="st0" cx="69.2" cy="47.9" r="5.4"/>
			<path class="st0" d="M50.4,37.5c0.4-1,1.6-1.5,2.6-1.1l17.4,8.7c1,0.4,1.5,1.6,1.1,2.6l-0.7,1.6c-0.4,1-1.6,1.5-2.6,1.1
				l-17.4-8.7c-1-0.4-1.5-1.6-1.1-2.6L50.4,37.5z"/>
		</g>
		<g>
			<circle class="st0" cx="69.2" cy="29.4" r="5.4"/>
			<path class="st0" d="M50.4,18.9c0.4-1,1.6-1.5,2.6-1.1l17.4,8.7c1,0.4,1.5,1.6,1.1,2.6l-0.7,1.6c-0.4,1-1.6,1.5-2.6,1.1
				l-17.4-8.7c-1-0.4-1.5-1.6-1.1-2.6L50.4,18.9z"/>
		</g>
	</g>
</g>
</svg>
