<?xml version="1.0" encoding="utf-8"?>
<!-- Generator: Adobe Illustrator 19.1.0, SVG Export Plug-In . SVG Version: 6.00 Build 0)  -->
<svg version="1.1" id="Capa_1" xmlns="http://www.w3.org/2000/svg" xmlns:xlink="http://www.w3.org/1999/xlink" x="0px" y="0px"
	 viewBox="-133 63.2 300 300" style="enable-background:new -133 63.2 300 300;" xml:space="preserve">
<style type="text/css">
	.st0{fill:#FFFFFF;}
	.st1{fill:#FFFFFF;stroke:#0A94D6;stroke-width:11.5821;stroke-miterlimit:10;}
</style>
<g>
	<g>
		<path class="st0" d="M51,95.9c-57.8,0-104.6,46.8-104.6,104.6S-6.7,305.1,51,305.1s104.6-46.8,104.6-104.6S108.8,95.9,51,95.9z
			 M51,287.3c-47.9,0-86.8-38.8-86.8-86.8S3.1,113.7,51,113.7c47.9,0,86.8,38.8,86.8,86.8S99,287.3,51,287.3z"/>
		<rect x="-46.9" y="192.8" class="st0" width="195.9" height="13.1"/>
		<rect x="44.5" y="101.4" class="st0" width="13.1" height="195.9"/>
		<path class="st0" d="M108.5,264.8c3.6-2.9,7-6.2,10.1-9.6c-18.2-15.4-41.8-24.8-67.5-24.8s-49.3,9.3-67.5,24.8
			c3.1,3.5,6.5,6.7,10.1,9.6c15.7-12.8,35.7-20.5,57.5-20.5S92.9,251.9,108.5,264.8z"/>
		<path class="st0" d="M-12.4,200.5c0,38.5,20.8,72.1,51.7,90.2c3.2,0.3,6.4,0.5,9.6,0.5c7.5,0,14.7-0.9,21.6-2.6
			c-39.7-9.7-69.1-45.5-69.1-88.1c0-42.7,29.4-78.4,69.1-88.1c-6.9-1.7-14.2-2.6-21.6-2.6c-3.2,0-6.5,0.2-9.6,0.5
			C8.3,128.5-12.4,162-12.4,200.5z"/>
		<path class="st0" d="M114.5,200.5c0-38.5-20.8-72.1-51.7-90.2c-3.2-0.3-6.4-0.5-9.6-0.5c-7.5,0-14.7,0.9-21.6,2.6
			c39.7,9.7,69.1,45.5,69.1,88.1c0,42.7-29.4,78.4-69.1,88.1c6.9,1.7,14.2,2.6,21.6,2.6c3.2,0,6.5-0.2,9.6-0.5
			C93.8,272.6,114.5,239,114.5,200.5z"/>
		<path class="st0" d="M-6.4,134.2c-3.6,2.9-7,6.2-10.1,9.6c18.2,15.4,41.8,24.8,67.5,24.8s49.3-9.3,67.5-24.8
			c-3.1-3.5-6.5-6.7-10.1-9.6C92.9,147,72.9,154.7,51,154.7S9.2,147-6.4,134.2z"/>
	</g>
	<path class="st1" d="M-113.6,301.5c0,0,42.4,1.5,63.7-4.4c35-9.6,50.2-34.5,50.2-34.5l-24.4-25.4l110.3-21.6L65,326.2l-29.1-24.5
		c0,0-20.6,17.5-50.3,25C-78.7,342.9-113.6,301.5-113.6,301.5z"/>
</g>
</svg>
