<?xml version="1.0" encoding="utf-8"?>
<!-- Generator: Adobe Illustrator 19.1.0, SVG Export Plug-In . SVG Version: 6.00 Build 0)  -->
<svg version="1.1" id="Capa_1" xmlns="http://www.w3.org/2000/svg" xmlns:xlink="http://www.w3.org/1999/xlink" x="0px" y="0px"
	 viewBox="62 -125 300 300" style="enable-background:new 62 -125 300 300;" xml:space="preserve">
<style type="text/css">
	.st0{fill:none;stroke:#FFFFFF;stroke-width:13.3644;stroke-miterlimit:10;}
	.st1{fill:#FFFFFF;stroke:#FFFFFF;stroke-miterlimit:10;}
	.st2{fill:#FFFFFF;stroke:#FFFFFF;stroke-width:2.8638;stroke-miterlimit:10;}
</style>
<g>
	<path class="st0" d="M299.8-18.3c0-11.4-9.4-20.7-20.8-20.7h-0.1v-3.9c0-11.6-9.6-21.1-21.2-21.1c0,0-16.7-10.4-16.7-16.4
		c0-18-14.7-32.6-32.8-32.6s-32.7,14.7-32.7,32.7c0,6-18.9,16.5-18.9,16.5c-11.6,0-21.2,9.5-21.1,21.2v3.9H135
		c-11.4,0-20.7,9.4-20.7,20.8l0.3,158.1c0,11.4,9.4,20.7,20.8,20.7l144-0.3c11.4,0,20.7-9.4,20.7-20.8L299.8-18.3z"/>
	<path class="st1" d="M208.4-94.2c8,0,14.5,6.4,14.5,14.4c0,6.6-4.4,12.1-10.4,13.9h-8c-6-1.7-10.5-7.3-10.5-13.9
		C193.9-87.7,200.4-94.2,208.4-94.2z"/>
	<path class="st2" d="M261.8,16H158.7c-0.5,0-0.9-0.4-0.9-0.9V4.8c0-0.5,0.4-0.9,0.9-0.9h103.1c0.5,0,0.9,0.4,0.9,0.9v10.3
		C262.7,15.5,262.3,16,261.8,16z"/>
	<path class="st2" d="M261.8,70.5H158.7c-0.5,0-0.9-0.4-0.9-0.9V59.3c0-0.5,0.4-0.9,0.9-0.9h103.1c0.5,0,0.9,0.4,0.9,0.9v10.3
		C262.7,70.1,262.3,70.5,261.8,70.5z"/>
	<path class="st2" d="M261.8,125H158.7c-0.5,0-0.9-0.4-0.9-0.9v-10.3c0-0.5,0.4-0.9,0.9-0.9h103.1c0.5,0,0.9,0.4,0.9,0.9v10.3
		C262.7,124.6,262.3,125,261.8,125z"/>
</g>
</svg>
