<?xml version="1.0" encoding="utf-8"?>
<!-- Generator: Adobe Illustrator 18.1.1, SVG Export Plug-In . SVG Version: 6.00 Build 0)  -->
<svg version="1.1" id="Capa_1" xmlns="http://www.w3.org/2000/svg" xmlns:xlink="http://www.w3.org/1999/xlink" x="0px" y="0px"
	 viewBox="0 0 200 200" style="enable-background:new 0 0 200 200;" xml:space="preserve">
<style type="text/css">
	.st0{fill:#0A94D6;}
</style>
<g>
	<path class="st0" d="M169.3,38.3H164v-7.6c0-3.3-2.1-5.8-4.6-5.8H40.7c-2.5,0-4.6,2.5-4.6,5.8v139.1c0,3.3,2.1,5.8,4.6,5.8h118.7
		c2.5,0,4.6-2.5,4.6-5.8V76.1h5.2c5.5,0,10.2-4.5,10.2-10.2V48.5C179.3,43,174.8,38.3,169.3,38.3z M77,171H46.1
		c-2.4,0-4.3-2.4-4.3-5.4v-129c0-3,1.9-5.4,4.3-5.4H77V171z"/>
	<g>
		<g>
			<circle class="st0" cx="53" cy="156.6" r="8.1"/>
			<path class="st0" d="M24.8,141c0.6-1.5,2.4-2.2,3.9-1.6l26.1,13c1.5,0.6,2.2,2.4,1.6,3.9l-1,2.4c-0.6,1.5-2.4,2.2-3.9,1.6
				l-26.1-13c-1.5-0.6-2.2-2.4-1.6-3.9L24.8,141z"/>
		</g>
		<g>
			<circle class="st0" cx="53" cy="128.9" r="8.1"/>
			<path class="st0" d="M24.8,113.3c0.6-1.5,2.4-2.2,3.9-1.6l26.1,13c1.5,0.6,2.2,2.4,1.6,3.9l-1,2.4c-0.6,1.5-2.4,2.2-3.9,1.6
				l-26.1-13c-1.5-0.6-2.2-2.4-1.6-3.9L24.8,113.3z"/>
		</g>
		<g>
			<circle class="st0" cx="53" cy="101.1" r="8.1"/>
			<path class="st0" d="M24.8,85.5c0.6-1.5,2.4-2.2,3.9-1.6l26.1,13c1.5,0.6,2.2,2.4,1.6,3.9l-1,2.4c-0.6,1.5-2.4,2.2-3.9,1.6
				l-26.1-13c-1.5-0.6-2.2-2.4-1.6-3.9L24.8,85.5z"/>
		</g>
		<g>
			<circle class="st0" cx="53" cy="73.4" r="8.1"/>
			<path class="st0" d="M24.8,57.8c0.6-1.5,2.4-2.2,3.9-1.6l26.1,13c1.5,0.6,2.2,2.4,1.6,3.9l-1,2.4c-0.6,1.5-2.4,2.2-3.9,1.6
				l-26.1-13c-1.5-0.6-2.2-2.4-1.6-3.9L24.8,57.8z"/>
		</g>
		<g>
			<circle class="st0" cx="53" cy="45.7" r="8.1"/>
			<path class="st0" d="M24.8,29.9c0.6-1.5,2.4-2.2,3.9-1.6l26.1,13c1.5,0.6,2.2,2.4,1.6,3.9l-1,2.4c-0.6,1.5-2.4,2.2-3.9,1.6
				l-26.1-13c-1.5-0.6-2.2-2.4-1.6-3.9L24.8,29.9z"/>
		</g>
	</g>
</g>
</svg>
