<?xml version="1.0" encoding="utf-8"?>
<!-- Generator: Adobe Illustrator 19.1.0, SVG Export Plug-In . SVG Version: 6.00 Build 0)  -->
<svg version="1.1" id="Capa_1" xmlns="http://www.w3.org/2000/svg" xmlns:xlink="http://www.w3.org/1999/xlink" x="0px" y="0px"
	 viewBox="-147 270.9 300 300" style="enable-background:new -147 270.9 300 300;" xml:space="preserve">
<style type="text/css">
	.st0{fill:#FFFFFF;stroke:#054664;stroke-width:6.7153;stroke-miterlimit:10;}
	.st1{fill:none;stroke:#054664;stroke-width:6.7153;stroke-miterlimit:10;}
	.st2{fill:#FFFFFF;stroke:#054664;stroke-width:10.073;stroke-miterlimit:10;}
	.st3{fill:#FFFFFF;stroke:#054664;stroke-width:8.3942;stroke-miterlimit:10;}
</style>
<g>
	
		<rect x="7.5" y="314.2" transform="matrix(-0.7016 -0.7126 0.7126 -0.7016 -167.1705 666.1326)" class="st0" width="96.8" height="107.7"/>
	<g>
		
			<rect x="-58.7" y="335.5" transform="matrix(-0.971 -0.2389 0.2389 -0.971 -113.3053 764.9385)" class="st0" width="96.8" height="107.7"/>
		<g>
			<line class="st1" x1="-35.7" y1="352" x2="29.6" y2="368"/>
			<line class="st1" x1="-40.9" y1="373" x2="24.4" y2="389.1"/>
			<line class="st1" x1="-45.6" y1="392.4" x2="19.7" y2="408.5"/>
			<line class="st1" x1="-50.2" y1="410.8" x2="15.1" y2="426.8"/>
		</g>
	</g>
	<path class="st2" d="M20.5,433.3h-48.3l-3.7-14.9c0-2.3-1.9-4.2-4.2-4.2h-49.9c-2.3,0-4.2,1.9-4.2,4.2l-3.9,14.9h-19.4
		c-6.9,0-12.6,5.7-12.6,12.6v87.9c0,6.9,5.7,12.6,12.6,12.6H20.5c6.9,0,12.6-5.7,12.6-12.6v-87.9C33.1,439,27.5,433.3,20.5,433.3z"
		/>
	<path class="st3" d="M-22.6,499.9c0,0,21.7-21.7,36.2-29.3c23.7-12.5,45.1-7.8,45.1-7.8l0.6,24.6l70.2-43.8l-70.2-44.1L56.9,426
		c0,0-20.3,1.5-40.1,12.5C-26.1,462.2-22.6,499.9-22.6,499.9z"/>
</g>
</svg>
