<?xml version="1.0" encoding="utf-8"?>
<!-- Generator: Adobe Illustrator 19.1.0, SVG Export Plug-In . SVG Version: 6.00 Build 0)  -->
<svg version="1.1" id="Capa_1" xmlns="http://www.w3.org/2000/svg" xmlns:xlink="http://www.w3.org/1999/xlink" x="0px" y="0px"
	 viewBox="-147 270.9 300 300" style="enable-background:new -147 270.9 300 300;" xml:space="preserve">
<style type="text/css">
	.st0{fill:#0A94D6;stroke:#0A94D6;stroke-width:14;stroke-miterlimit:10;}
	.st1{fill:#B7DDF0;}
	.st2{fill:#B7DDF0;stroke:#0A94D6;stroke-width:11.0588;stroke-miterlimit:10;}
</style>
<g>
	<path class="st0" d="M34.6,296.7c-55.2,0-99.9,44.7-99.9,99.9s44.7,99.9,99.9,99.9s99.9-44.7,99.9-99.9S89.8,296.7,34.6,296.7z
		 M117.1,389.2H94.9c-1-13.1-4.4-25.5-10-36.7c4.6-2.7,9-5.8,13.1-9.2C108.7,356,115.6,371.8,117.1,389.2z M40.9,322.9
		c10,6.2,18.7,14.4,25.4,24c-8,3.1-16.5,5.1-25.4,5.8V322.9z M54.5,316.2c12.8,3.2,24.5,9.3,34.2,17.7c-3.3,2.6-6.7,5-10.4,7.2
		C71.9,331.5,63.8,323,54.5,316.2z M28.3,322.9v29.7c-8.9-0.6-17.5-2.6-25.4-5.8C9.7,337.3,18.3,329.1,28.3,322.9z M-9.1,341.1
		c-3.6-2.1-7.1-4.5-10.4-7.2c9.7-8.4,21.4-14.6,34.2-17.7C5.4,323-2.7,331.5-9.1,341.1z M28.3,365.9v23.3h-40.8
		c0.9-11,3.9-21.4,8.6-30.8C6.1,362.6,17,365.2,28.3,365.9z M28.3,401.8v23.6c-11.7,0.7-22.8,3.4-33,7.8c-4.5-9.6-7.3-20.2-7.9-31.4
		H28.3z M28.3,438.6v31.7c-10.5-6.5-19.6-15.2-26.5-25.5C10.1,441.4,19,439.3,28.3,438.6z M40.9,438.6c9.3,0.7,18.2,2.8,26.5,6.2
		c-6.9,10.3-15.9,19-26.5,25.5V438.6z M40.9,425.3v-23.6h40.9c-0.7,11.2-3.4,21.8-7.9,31.4C63.7,428.8,52.5,426.1,40.9,425.3z
		 M40.9,389.2v-23.3c11.4-0.7,22.2-3.3,32.2-7.5c4.6,9.4,7.6,19.8,8.6,30.8H40.9z M-28.8,343.4c4.1,3.4,8.5,6.5,13.1,9.2
		c-5.5,11.2-9,23.6-10,36.7h-22.2C-46.4,371.8-39.5,356-28.8,343.4z M-48.1,401.8h22.2c0.7,13.3,4,26,9.4,37.4
		c-4.7,2.8-9.2,6-13.3,9.5C-40.3,435.7-47,419.5-48.1,401.8z M-28.5,450.2c2.6,2.7,5.3,5.3,8.2,7.7c3.2-2.6,6.7-5,10.2-7.2
		c6.6,10.2,15,19.1,24.7,26.3C-2.4,472.8-17.5,463.3-28.5,450.2z M54.5,477c9.7-7.2,18.1-16.1,24.7-26.3c3.6,2.2,7,4.6,10.2,7.2
		c2.9-2.4,5.7-5,8.2-7.7C86.6,463.3,71.6,472.8,54.5,477z M99,448.7c-4.2-3.5-8.6-6.7-13.3-9.5c5.4-11.4,8.7-24.1,9.4-37.4h22.2
		C116.2,419.5,109.5,435.7,99,448.7z"/>
	<path class="st1" d="M34.6,296.7c-55.2,0-99.9,44.7-99.9,99.9s44.7,99.9,99.9,99.9s99.9-44.7,99.9-99.9S89.8,296.7,34.6,296.7z
		 M117.1,389.2H94.9c-1-13.1-4.4-25.5-10-36.7c4.6-2.7,9-5.8,13.1-9.2C108.7,356,115.6,371.8,117.1,389.2z M40.9,322.9
		c10,6.2,18.7,14.4,25.4,24c-8,3.1-16.5,5.1-25.4,5.8V322.9z M54.5,316.2c12.8,3.2,24.5,9.3,34.2,17.7c-3.3,2.6-6.7,5-10.4,7.2
		C71.9,331.5,63.8,323,54.5,316.2z M28.3,322.9v29.7c-8.9-0.6-17.5-2.6-25.4-5.8C9.7,337.3,18.3,329.1,28.3,322.9z M-9.1,341.1
		c-3.6-2.1-7.1-4.5-10.4-7.2c9.7-8.4,21.4-14.6,34.2-17.7C5.4,323-2.7,331.5-9.1,341.1z M28.3,365.9v23.3h-40.8
		c0.9-11,3.9-21.4,8.6-30.8C6.1,362.6,17,365.2,28.3,365.9z M28.3,401.8v23.6c-11.7,0.7-22.8,3.4-33,7.8c-4.5-9.6-7.3-20.2-7.9-31.4
		H28.3z M28.3,438.6v31.7c-10.5-6.5-19.6-15.2-26.5-25.5C10.1,441.4,19,439.3,28.3,438.6z M40.9,438.6c9.3,0.7,18.2,2.8,26.5,6.2
		c-6.9,10.3-15.9,19-26.5,25.5V438.6z M40.9,425.3v-23.6h40.9c-0.7,11.2-3.4,21.8-7.9,31.4C63.7,428.8,52.5,426.1,40.9,425.3z
		 M40.9,389.2v-23.3c11.4-0.7,22.2-3.3,32.2-7.5c4.6,9.4,7.6,19.8,8.6,30.8H40.9z M-28.8,343.4c4.1,3.4,8.5,6.5,13.1,9.2
		c-5.5,11.2-9,23.6-10,36.7h-22.2C-46.4,371.8-39.5,356-28.8,343.4z M-48.1,401.8h22.2c0.7,13.3,4,26,9.4,37.4
		c-4.7,2.8-9.2,6-13.3,9.5C-40.3,435.7-47,419.5-48.1,401.8z M-28.5,450.2c2.6,2.7,5.3,5.3,8.2,7.7c3.2-2.6,6.7-5,10.2-7.2
		c6.6,10.2,15,19.1,24.7,26.3C-2.4,472.8-17.5,463.3-28.5,450.2z M54.5,477c9.7-7.2,18.1-16.1,24.7-26.3c3.6,2.2,7,4.6,10.2,7.2
		c2.9-2.4,5.7-5,8.2-7.7C86.6,463.3,71.6,472.8,54.5,477z M99,448.7c-4.2-3.5-8.6-6.7-13.3-9.5c5.4-11.4,8.7-24.1,9.4-37.4h22.2
		C116.2,419.5,109.5,435.7,99,448.7z"/>
	<path class="st2" d="M-114.4,529.1c0,0,40-6.5,58.8-16c30.9-15.6,40.6-41.7,40.6-41.7l-27.6-19.3l99.3-40.8l0.8,107.5l-31.8-17.5
		c0,0-16,20.3-42.4,32.8C-73.9,561.3-114.4,529.1-114.4,529.1z"/>
</g>
</svg>
