<?xml version="1.0" encoding="utf-8"?>
<!-- Generator: Adobe Illustrator 19.1.0, SVG Export Plug-In . SVG Version: 6.00 Build 0)  -->
<svg version="1.1" id="Capa_1" xmlns="http://www.w3.org/2000/svg" xmlns:xlink="http://www.w3.org/1999/xlink" x="0px" y="0px"
	 viewBox="62 -125 300 300" style="enable-background:new 62 -125 300 300;" xml:space="preserve">
<style type="text/css">
	.st0{fill:#FFFFFF;}
</style>
<g>
	<path class="st0" d="M307.5-22.6l-57.9-53.3c-0.8-0.7-0.8-2-0.1-2.7l11.9-13c0.7-0.8,2-0.8,2.7-0.1l58,53.2c0.8,0.7,0.8,2,0.1,2.7
		l-11.9,13C309.6-21.9,308.3-21.9,307.5-22.6z"/>
	<polygon class="st0" points="118.3,142.2 102.5,142.3 101.3,126.5 191.2,28.7 208.3,44.3 	"/>
	<path class="st0" d="M266.8,39.2l-4.8-4.4l36.8-56.5L249.6-67l-53.2,41.4l-4.8-4.4c-10.9-10-27.9-9.3-37.9,1.6
		c-1.8,2-3.3,4.2-4.4,6.6L262.5,82.3c2.2-1.3,4.3-3,6.2-5C278.4,66.3,277.7,49.2,266.8,39.2z"/>
</g>
</svg>
