<?xml version="1.0" encoding="utf-8"?>
<!-- Generator: Adobe Illustrator 19.1.0, SVG Export Plug-In . SVG Version: 6.00 Build 0)  -->
<svg version="1.1" id="Capa_1" xmlns="http://www.w3.org/2000/svg" xmlns:xlink="http://www.w3.org/1999/xlink" x="0px" y="0px"
	 viewBox="0 0 283.5 283.5" style="enable-background:new 0 0 283.5 283.5;" xml:space="preserve">
<style type="text/css">
	.st0{fill:#0A94D6;}
	.st1{fill:#FFFFFF;}
</style>
<path class="st0" d="M219.5,245.7H56.2c-9.7,0-17.6-7.9-17.6-17.6V64.8c0-9.7,7.9-17.6,17.6-17.6h163.3c9.7,0,17.6,7.9,17.6,17.6
	v163.3C237,237.8,229.2,245.7,219.5,245.7z"/>
<path class="st1" d="M100.7,209.9c-0.6,0-1.2,0.1-1.8,0.1c-10.8-0.1-19.7-8.5-20.5-19.1c0-0.4-0.1-0.8-0.1-1.2
	c0-0.7-0.5-0.9-0.8-0.2c-1.4,2.5-2.2,5.4-2.2,8.4c0,0.5,0,1,0.1,1.6c0.7,9.2,8.4,16.6,17.9,16.7c0.5,0,1.1,0,1.6-0.1
	c5.3-0.4,9.9-3.1,13-7.1c0.3-0.5,0-0.9-0.6-0.7C105.2,209.1,103,209.7,100.7,209.9z"/>
<path class="st1" d="M191.6,211.6c-0.6,0-1.2,0.1-1.8,0.1c-10.8-0.1-19.7-8.5-20.5-19.1c0-0.4-0.1-0.8-0.1-1.2
	c0-0.7-0.5-0.9-0.8-0.2c-1.4,2.5-2.2,5.4-2.2,8.4c0,0.5,0,1,0.1,1.6c0.7,9.2,8.4,16.6,17.9,16.7c0.5,0,1.1,0,1.6-0.1
	c5.3-0.4,9.9-3.1,13-7.1c0.3-0.5,0-0.9-0.6-0.7C196.1,210.9,193.9,211.4,191.6,211.6z"/>
<path class="st1" d="M84.9,142.8c5-4.1,11.3-6.4,18.2-6.4l1-1H89.9v-33.5h-9l27.6-30.4l27.6,30.4h-27.6v29.2l1.6-1.6l0,0.1
	c2.8-3,6.9-4.8,11.4-4.4c5.4,0.5,9.8,4,11.7,8.7c1.8-1.2,3.9-1.8,6.2-1.8c0.1,0,0.3,0,0.4,0v-28.3h14.3l-45.5-51l-46.9,51h15.1v44.5
	H78C81.8,145.2,84.8,142.8,84.9,142.8L84.9,142.8z"/>
<path class="st1" d="M220.9,194.2c-0.8-9.3-5-17.7-11.4-23.4c-6.4-5.7-15.3-12.6-15.3-12.6h-0.1c-5-4.1-11.3-6.4-18.2-6.4l-7-6.9
	v0.1c-2.8-3-6.9-4.8-11.4-4.4c-5.5,0.5-9.9,4.1-11.8,8.8c-1.9-1.2-4.1-2-6.5-2c-2.3,0-4.4,0.7-6.2,1.8c-1.9-4.7-6.3-8.2-11.7-8.7
	c-4.4-0.4-8.5,1.4-11.4,4.4l0-0.1l-7,6.9c-6.8,0-13.2,2.4-18.2,6.4h-0.1c0,0-8.8,6.9-15.3,12.6c-6.4,5.7-10.6,14.1-11.4,23.4
	c-0.1,1.1-0.1,2.2-0.1,3.2c0,18.6,14.2,34.4,33.1,36.1c1.1,0.1,2.1,0.1,3.2,0.1c17.7,0,32.8-12.8,35.7-30.3c2.8,1.6,5.9,2.5,9.3,2.5
	c3.5,0,6.8-1,9.6-2.7c2.9,17.5,18,30.4,35.8,30.4c1.1,0,2.1,0,3.2-0.1c18.9-1.7,33.1-17.5,33.1-36.1
	C221,196.3,221,195.3,220.9,194.2z M118.5,199.5c-1.1,12.6-11.7,22.2-24.2,22.2c-0.7,0-1.4,0-2.2-0.1c-12.6-1.1-22.2-11.7-22.2-24.2
	c0-0.7,0-1.4,0.1-2.1c1.1-12.7,11.7-22.2,24.2-22.2c0,0,0,0,0,0c0.7,0,1.4,0,2.1,0.1c12.7,1.1,22.3,11.7,22.3,24.2
	C118.6,198,118.5,198.8,118.5,199.5L118.5,199.5z M186.9,221.6c-0.7,0.1-1.5,0.1-2.2,0.1c-12.5,0-23.1-9.5-24.2-22.2h0
	c-0.1-0.8-0.1-1.5-0.1-2.2c0-12.5,9.5-23.1,22.3-24.2c0.7-0.1,1.4-0.1,2.1-0.1c0,0,0,0,0,0c12.4,0,23.1,9.6,24.2,22.2
	c0.1,0.7,0.1,1.4,0.1,2.1C209.1,209.8,199.5,220.5,186.9,221.6z"/>
</svg>
