<?xml version="1.0" encoding="utf-8"?>
<!-- Generator: Adobe Illustrator 19.1.0, SVG Export Plug-In . SVG Version: 6.00 Build 0)  -->
<svg version="1.1" id="Capa_1" xmlns="http://www.w3.org/2000/svg" xmlns:xlink="http://www.w3.org/1999/xlink" x="0px" y="0px"
	 viewBox="-147 270.9 300 300" style="enable-background:new -147 270.9 300 300;" xml:space="preserve">
<style type="text/css">
	.st0{fill:#054664;stroke:#054664;stroke-width:14;stroke-miterlimit:10;}
	.st1{fill:#FFFFFF;}
	.st2{fill:#054664;stroke:#054664;stroke-width:18.4031;stroke-miterlimit:10;}
</style>
<g>
	<polygon class="st0" points="65.1,414.6 74,406 86.4,406.2 91.4,394.7 103,390.1 103.1,377.6 112,368.9 107.5,357.3 112.4,346 
		103.8,337 103.8,324.5 92.5,319.5 87.8,308.1 75.4,307.8 66.7,298.9 55.1,303.4 43.6,298.6 34.7,307.2 22.3,307.1 17.3,318.5 
		5.7,323.1 5.6,335.6 -3.3,344.3 1.2,355.8 -3.7,367.3 4.9,376.3 4.9,380.5 -82,452.1 -58.2,455.8 -60.7,479.7 20.8,412.3 
		-36.3,521.3 -14.9,510.3 -2.8,531.2 57.3,411.3 	"/>
	<polygon class="st1" points="65.1,414.6 74,406 86.4,406.2 91.4,394.7 103,390.1 103.1,377.6 112,368.9 107.5,357.3 112.4,346 
		103.8,337 103.8,324.5 92.5,319.5 87.8,308.1 75.4,307.8 66.7,298.9 55.1,303.4 43.6,298.6 34.7,307.2 22.3,307.1 17.3,318.5 
		5.7,323.1 5.6,335.6 -3.3,344.3 1.2,355.8 -3.7,367.3 4.9,376.3 4.9,380.5 -82,452.1 -58.2,455.8 -60.7,479.7 20.8,412.3 
		-36.3,521.3 -14.9,510.3 -2.8,531.2 57.3,411.3 	"/>
	<path class="st2" d="M92.1,458.1l-141.3-94.5c1.5-14.9-5-30.2-18.4-39.1c-11.1-7.4-24.5-8.8-36.3-4.9l27.4,18.3l11.4,23.1
		l-14.4,21.3l-25.7-1.7l-27.3-18.3c0.9,12.4,7.3,24.3,18.5,31.7c13.3,8.9,29.9,9.1,43.1,2l141.4,94.5c0.1,11.1,5.5,22,15.4,28.7
		c16,10.7,37.6,6.4,48.2-9.6s6.4-37.6-9.6-48.2C114.6,454.7,102.4,453.9,92.1,458.1z M125.1,503.1c-7.2,10.8-21.8,13.7-32.7,6.5
		c-10.8-7.2-13.7-21.8-6.5-32.7c7.2-10.8,21.8-13.7,32.7-6.5C129.4,477.6,132.3,492.3,125.1,503.1z"/>
	<path class="st1" d="M92.1,458.1l-141.3-94.5c1.5-14.9-5-30.2-18.4-39.1c-11.1-7.4-24.5-8.8-36.3-4.9l27.4,18.3l11.4,23.1
		l-14.4,21.3l-25.7-1.7l-27.3-18.3c0.9,12.4,7.3,24.3,18.5,31.7c13.3,8.9,29.9,9.1,43.1,2l141.4,94.5c0.1,11.1,5.5,22,15.4,28.7
		c16,10.7,37.6,6.4,48.2-9.6s6.4-37.6-9.6-48.2C114.6,454.8,102.4,453.9,92.1,458.1z M125.1,503.1c-7.2,10.8-21.8,13.7-32.7,6.5
		c-10.8-7.2-13.7-21.8-6.5-32.7c7.2-10.8,21.8-13.7,32.7-6.5C129.4,477.7,132.3,492.3,125.1,503.1z"/>
</g>
</svg>
