<?xml version="1.0" encoding="utf-8"?>
<!-- Generator: Adobe Illustrator 19.1.0, SVG Export Plug-In . SVG Version: 6.00 Build 0)  -->
<svg version="1.1" id="Capa_1" xmlns="http://www.w3.org/2000/svg" xmlns:xlink="http://www.w3.org/1999/xlink" x="0px" y="0px"
	 viewBox="62 -125 300 300" style="enable-background:new 62 -125 300 300;" xml:space="preserve">
<style type="text/css">
	.st0{fill:#FFFFFF;stroke:#FFFFFF;stroke-width:20;stroke-miterlimit:10;}
	.st1{fill:#0A94D6;}
	.st2{fill:#FFFFFF;stroke:#FFFFFF;stroke-width:18.4031;stroke-miterlimit:10;}
</style>
<g>
	<polygon class="st0" points="274.6,26.1 282.4,16.4 294.8,15 298.3,3 309.1,-3 307.8,-15.4 315.5,-25.1 309.6,-36.1 312.9,-48 
		303.3,-55.8 301.8,-68.2 289.9,-71.7 283.8,-82.5 271.4,-81.2 261.7,-88.9 250.8,-83 238.8,-86.3 231,-76.7 218.7,-75.2 
		215.1,-63.3 204.3,-57.2 205.6,-44.8 197.9,-35.1 203.9,-24.2 200.5,-12.2 210.2,-4.4 210.7,-0.2 133.5,81.9 157.5,82.4 
		158.1,106.5 230.5,29.3 187.6,144.7 207.4,131.1 221.9,150.3 266.6,23.8 	"/>
	<polygon class="st1" points="274.6,26.7 282.4,17 294.8,15.6 298.3,3.6 309.1,-2.4 307.8,-14.8 315.5,-24.6 309.6,-35.5 
		312.9,-47.4 303.3,-55.2 301.8,-67.6 289.9,-71.1 283.8,-81.9 271.4,-80.6 261.7,-88.3 250.8,-82.4 238.8,-85.7 231,-76.1 
		218.7,-74.6 215.1,-62.7 204.3,-56.6 205.6,-44.2 197.9,-34.5 203.9,-23.6 200.5,-11.6 210.2,-3.8 210.7,0.4 133.5,82.4 157.5,83 
		158.1,107.1 230.5,29.9 187.6,145.3 207.4,131.7 221.9,150.9 266.6,24.4 	"/>
	<path class="st2" d="M300.5,72L159.1-22.5c1.5-14.9-5-30.2-18.4-39.1c-11.1-7.4-24.5-8.8-36.3-4.9l27.4,18.3l11.4,23.1L128.9-3.8
		l-25.7-1.7L75.8-23.8c0.9,12.4,7.3,24.3,18.5,31.7c13.3,8.9,29.9,9.1,43.1,2l141.4,94.5c0.1,11.1,5.5,22,15.4,28.7
		c16,10.7,37.6,6.4,48.2-9.6s6.4-37.6-9.6-48.2C323,68.6,310.8,67.8,300.5,72z M333.5,117c-7.2,10.8-21.8,13.7-32.7,6.5
		c-10.8-7.2-13.7-21.8-6.5-32.7c7.2-10.8,21.8-13.7,32.7-6.5C337.8,91.5,340.7,106.2,333.5,117z"/>
	<path class="st1" d="M300.5,72L159.1-22.5c1.5-14.9-5-30.2-18.4-39.1c-11.1-7.4-24.5-8.8-36.3-4.9l27.4,18.3l11.4,23.1L128.9-3.8
		l-25.7-1.7L75.8-23.8c0.9,12.4,7.3,24.3,18.5,31.7c13.3,8.9,29.9,9.1,43.1,2l141.4,94.5c0.1,11.1,5.5,22,15.4,28.7
		c16,10.7,37.6,6.4,48.2-9.6s6.4-37.6-9.6-48.2C323,68.6,310.8,67.8,300.5,72z M333.5,117c-7.2,10.8-21.8,13.7-32.7,6.5
		c-10.8-7.2-13.7-21.8-6.5-32.7c7.2-10.8,21.8-13.7,32.7-6.5C337.8,91.5,340.7,106.2,333.5,117z"/>
</g>
</svg>
