<?xml version="1.0" encoding="utf-8"?>
<!-- Generator: Adobe Illustrator 18.1.1, SVG Export Plug-In . SVG Version: 6.00 Build 0)  -->
<svg version="1.1" id="Capa_1" xmlns="http://www.w3.org/2000/svg" xmlns:xlink="http://www.w3.org/1999/xlink" x="0px" y="0px"
	 viewBox="0 0 200 200" style="enable-background:new 0 0 200 200;" xml:space="preserve">
<style type="text/css">
	.st0{fill:none;stroke:#FFFFFF;stroke-width:7.869;stroke-miterlimit:10;}
	.st1{fill:#FFFFFF;stroke:#FFFFFF;stroke-width:1.731;stroke-miterlimit:10;}
	.st2{fill:#FFFFFF;stroke:#FFFFFF;stroke-width:1.937;stroke-miterlimit:10;}
</style>
<g>
	<path class="st0" d="M138.4,182.9l-76.5,0.1c-12.3,0-22.4-10-22.5-22.4L39.3,75c0-12.3,10-22.4,22.4-22.5l76.5-0.1
		c12.3,0,22.4,10,22.5,22.4l0.2,85.7C160.8,172.8,150.7,182.9,138.4,182.9z"/>
	<path class="st1" d="M141,62.7c0.2-1,0.4-2,0.4-3.1l0-4.7c0-6.9-5.7-12.5-12.6-12.5c0,0-9.9-6.2-9.9-9.8c0-10.7-8.7-19.4-19.5-19.4
		C88.7,13.3,80,22,80,32.7c0,3.6-11.2,9.8-11.2,9.8c-6.9,0-12.6,5.7-12.6,12.6l0,4.7c0,1.1,0.2,2.1,0.4,3.1L141,62.7z M99.4,22.5
		c5.6,0,10.2,4.5,10.2,10.2c0,4.6-3.1,8.6-7.4,9.8l-5.7,0c-4.3-1.2-7.4-5.1-7.4-9.8C89.2,27.1,93.8,22.5,99.4,22.5z"/>
	<path class="st2" d="M132.4,88.3H71.6c-2.2,0-4-1.8-4-4v0c0-2.2,1.8-4,4-4h60.7c2.2,0,4,1.8,4,4v0
		C136.3,86.5,134.5,88.3,132.4,88.3z"/>
	<path class="st2" d="M132.4,124H71.6c-2.2,0-4-1.8-4-4v0c0-2.2,1.8-4,4-4h60.7c2.2,0,4,1.8,4,4v0C136.3,122.2,134.5,124,132.4,124z
		"/>
	<path class="st2" d="M132.4,159.6H71.6c-2.2,0-4-1.8-4-4v0c0-2.2,1.8-4,4-4h60.7c2.2,0,4,1.8,4,4v0
		C136.3,157.9,134.5,159.6,132.4,159.6z"/>
</g>
</svg>
