<?xml version="1.0" encoding="utf-8"?>
<!-- Generator: Adobe Illustrator 18.1.1, SVG Export Plug-In . SVG Version: 6.00 Build 0)  -->
<svg version="1.1" id="Capa_1" xmlns="http://www.w3.org/2000/svg" xmlns:xlink="http://www.w3.org/1999/xlink" x="0px" y="0px"
	 viewBox="0 0 300 300" style="enable-background:new 0 0 300 300;" xml:space="preserve">
<style type="text/css">
	.st0{fill:none;stroke:#0A94D6;stroke-width:19.4847;stroke-miterlimit:10;}
	.st1{fill:#0A94D6;stroke:#0A94D6;stroke-width:4.286;stroke-miterlimit:10;}
	.st2{fill:#0A94D6;stroke:#0A94D6;stroke-width:4.796;stroke-miterlimit:10;}
</style>
<g>
	<path class="st0" d="M210,279.2l-119.6,0.2c-19.2,0-35.2-15.6-35.2-35L55,110.3C55,91,70.6,75.1,90,75.1l119.6-0.2
		c19.2,0,35.2,15.6,35.2,35L245,244C245.1,263.3,229.2,279.2,210,279.2z"/>
	<path class="st1" d="M214.2,91.2c0.5-1.5,0.6-3.2,0.6-4.8V79c0-10.8-8.9-19.5-19.7-19.5c0,0-15.5-9.8-15.5-15.3
		c0-16.7-13.5-30.4-30.5-30.4c-16.7,0-30.4,13.5-30.4,30.4c0,5.6-17.6,15.3-17.6,15.3C90.3,59.3,81.5,68.2,81.5,79v7.4
		c0,1.7,0.2,3.2,0.6,4.8H214.2z M149.1,28.4c8.9,0,15.9,7.1,15.9,15.9c0,7.2-4.8,13.4-11.4,15.3h-9c-6.6-2-11.4-8.1-11.4-15.3
		C133.2,35.4,140.4,28.4,149.1,28.4z"/>
	<path class="st2" d="M200.7,131.2h-95c-3.5,0-6.2-2.7-6.2-6.2l0,0c0-3.5,2.7-6.2,6.2-6.2h95c3.5,0,6.2,2.7,6.2,6.2l0,0
		C206.8,128.5,204,131.2,200.7,131.2z"/>
	<path class="st2" d="M200.7,186.9h-95c-3.5,0-6.2-2.7-6.2-6.2l0,0c0-3.5,2.7-6.2,6.2-6.2h95c3.5,0,6.2,2.7,6.2,6.2l0,0
		C206.8,184.2,204,186.9,200.7,186.9z"/>
	<path class="st2" d="M200.7,242.7h-95c-3.5,0-6.2-2.7-6.2-6.2l0,0c0-3.5,2.7-6.2,6.2-6.2h95c3.5,0,6.2,2.7,6.2,6.2l0,0
		C206.8,240,204,242.7,200.7,242.7z"/>
</g>
</svg>
