<?xml version="1.0" encoding="utf-8"?>
<!-- Generator: Adobe Illustrator 19.1.0, SVG Export Plug-In . SVG Version: 6.00 Build 0)  -->
<svg version="1.1" id="Capa_1" xmlns="http://www.w3.org/2000/svg" xmlns:xlink="http://www.w3.org/1999/xlink" x="0px" y="0px"
	 viewBox="-133 63.2 300 300" style="enable-background:new -133 63.2 300 300;" xml:space="preserve">
<style type="text/css">
	.st0{fill:#FFFFFF;}
	.st1{fill-rule:evenodd;clip-rule:evenodd;fill:#FFFFFF;}
</style>
<g>
	<path class="st0" d="M-25.8,125c-33.9,16.3-46,42.6-52,74.1c-5.8,30.1,10.1,59.3,36.7,71.6l19.7-31.5l22,75l-80.8,18.8l21.3-34
		c-37.9-19.5-56.8-62.8-44-105.7C-86.2,138.1-25.8,125-25.8,125z"/>
	<path class="st1" d="M24.4,81.3c-33.4,0-60.4,27.1-60.4,60.4c0,33.4,27.1,60.4,60.4,60.4c33.4,0,60.4-27.1,60.4-60.4
		C84.8,108.3,57.8,81.3,24.4,81.3z M39.9,129.5l-1.6,7.9H10.9c0,0.8-0.1,1.8-0.1,3c0,1.2,0,2.4,0.1,3.7h26l-1.6,7.9H12
		c0.8,3.6,2.2,6.5,3.9,8.6c3.4,4,7.8,6,13.3,6c6.5,0,11.7-2,15.6-6v15.6c-4.4,2.2-9.6,3.3-15.4,3.3c-9.9,0-18.1-3.4-24.5-10.2
		c-4.4-4.6-7.2-10.4-8.6-17.3h-7.5l1.6-7.9h5c0-0.8-0.1-1.7-0.1-2.6c0-1.6,0-2.9,0.1-4.1h-6.7l1.6-7.9h6.1c1.4-6.8,4.3-12.4,8.5-17
		c6.4-6.9,14.9-10.3,25.3-10.3c5.7,0,10.7,1,14.9,3.1l-3,14.1c-2.9-2.9-7.1-4.3-12.6-4.3s-10,2-13.5,6c-1.9,2.2-3.3,5-4.1,8.4H39.9z
		"/>
	<path class="st0" d="M75.6,194L0.6,275.5h24.2v71.1h100.6v-71.1h22.9L75.6,194z M75.3,272.6v53.5H45.7v-53.5H31.2l44.1-48.7
		l44.1,48.7H75.3z"/>
</g>
</svg>
