<?xml version="1.0" encoding="utf-8"?>
<!-- Generator: Adobe Illustrator 19.1.0, SVG Export Plug-In . SVG Version: 6.00 Build 0)  -->
<svg version="1.1" id="Capa_1" xmlns="http://www.w3.org/2000/svg" xmlns:xlink="http://www.w3.org/1999/xlink" x="0px" y="0px"
	 viewBox="8 -37.2 300 300" style="enable-background:new 8 -37.2 300 300;" xml:space="preserve">
<style type="text/css">
	.st0{fill:#FFFFFF;}
</style>
<g>
	<g>
		<path class="st0" d="M132,39.9l-2.5,16.3c-0.6,3.5,2,7,5.5,7.5l15.5,3.5h0.2c0.6,5.7,2,11.3,4,16.5L142.7,94
			c-2.9,2.2-3.5,6.3-1.4,9.2l9.7,13.2c2.2,2.9,6.3,3.5,9.2,1.4l13.3-8.4c4.4,3.6,9.4,6.7,14.8,9l-1.2,15.6c-0.6,3.5,2,7,5.5,7.5
			l16.3,2.5c3.5,0.6,7-2,7.5-5.5l3.5-15.2c5.7-0.6,11.3-2,16.5-4l0,0l10.3,12.1c2.2,2.9,6.3,3.5,9.2,1.4l13.2-9.7
			c2.9-2.2,3.5-6.3,1.4-9.2l-8.4-13.4c3.6-4.4,6.7-9.3,8.9-14.7h0.2l15.9,1.3c3.5,0.6,7-2,7.5-5.5l2.5-16.3c0.6-3.5-2-7-5.5-7.5
			L276.2,54h-0.1c-0.6-6-2.1-11.9-4.3-17.3l12-10.3c2.9-2.2,3.5-6.3,1.4-9.2L275.4,4c-2.2-2.9-6.3-3.5-9.2-1.4l-13.4,8.4l-0.1,0.1
			c-4.3-3.4-9.1-6.4-14.3-8.6l0,0l1.3-15.9c0.6-3.5-2-7-5.5-7.5l-16.3-2.5c-3.5-0.6-7,2-7.5,5.5l-3.5,15.5l0,0
			c-5.7,0.6-11.3,2-16.5,4l0,0L180-10.3c-2.2-2.9-6.3-3.5-9.2-1.4L157.5-2c-2.9,2.2-3.5,6.3-1.4,9.2l8.4,13.4
			c-3.6,4.5-6.8,9.5-9.1,15h-0.1l-15.9-1.3C135.9,33.8,132.6,36.3,132,39.9z M169.8,53.8c3.7-24.1,26.3-40.7,50.4-37.1
			c24.1,3.7,40.7,26.3,37.1,50.4c-3.7,24.1-26.3,40.7-50.4,37.1C182.7,100.5,166.1,77.9,169.8,53.8z"/>
		<circle class="st0" cx="213.5" cy="60.4" r="12.7"/>
	</g>
	<g>
		<path class="st0" d="M23.3,79.8L19.1,91c-1,2.5,0.3,5.3,2.8,6.2l10.6,4.9l0.2,0.1c-0.4,4.2-0.3,8.4,0.4,12.5l-10.2,5.6
			c-2.5,1.1-3.5,4-2.5,6.4l5,11c1.1,2.5,4,3.5,6.4,2.5l10.9-4c2.6,3.2,5.8,6.2,9.3,8.7l-3.2,11.1c-1,2.5,0.3,5.3,2.8,6.2l11.3,4.2
			c2.5,1,5.3-0.3,6.2-2.8l4.8-10.4c4.2,0.5,8.4,0.3,12.5-0.4l0,0L92,163c1.1,2.5,4,3.5,6.4,2.5l11-5c2.5-1.1,3.5-4,2.5-6.4l-4-10.9
			c3.2-2.6,6.2-5.7,8.7-9.2l0.2,0.1l11.2,3.3c2.5,1,5.3-0.3,6.2-2.8l4.2-11.3c1-2.5-0.3-5.3-2.8-6.2l-10.6-4.9h-0.1
			c0.5-4.4,0.3-8.8-0.5-13.1l10.2-5.6c2.5-1.1,3.5-4,2.5-6.4l-5-11c-1.1-2.5-4-3.5-6.4-2.5l-11,4l-0.1,0.1c-2.6-3.1-5.6-6-9-8.3l0,0
			l3.3-11.2c1-2.5-0.3-5.3-2.8-6.2l-11.3-4.2c-2.5-1-5.3,0.3-6.2,2.8l-4.9,10.6l0,0c-4.2-0.4-8.4-0.3-12.5,0.4l0,0l-5.6-10.3
			c-1.1-2.5-4-3.5-6.4-2.5l-11,5c-2.5,1.1-3.5,4-2.5,6.4l4,10.9c-3.3,2.6-6.3,5.8-8.8,9.4h-0.1l-11.2-3.3C27,76,24.2,77.3,23.3,79.8
			z M48.3,95.5c6.3-16.8,25.1-25.3,41.9-19c16.8,6.3,25.3,25.1,19,41.9c-6.3,16.8-25.1,25.3-41.9,19C50.5,131.1,42,112.2,48.3,95.5z
			"/>
		<circle class="st0" cx="78.8" cy="106.9" r="9.3"/>
	</g>
	<g>
		<path class="st0" d="M105.5,175.4l-2.9,10.3c-0.7,2.3,0.7,4.6,2.9,5.3l9.7,3.5h0.1c-0.1,3.7,0.4,7.4,1.3,10.9l-8.6,5.7
			c-2.1,1.2-2.7,3.7-1.7,5.8l5.2,9.3c1.2,2.1,3.7,2.7,5.8,1.7l9.3-4.3c2.6,2.6,5.5,5,8.8,7l-2.1,9.9c-0.7,2.3,0.7,4.6,2.9,5.3
			l10.3,2.9c2.3,0.7,4.6-0.7,5.3-2.9l3.4-9.5c3.7,0.1,7.5-0.4,11-1.3l0,0l5.7,8.6c1.2,2.1,3.7,2.7,5.8,1.7l9.3-5.2
			c2.1-1.2,2.7-3.7,1.7-5.8l-4.3-9.3c2.6-2.6,5-5.5,7-8.7h0.1l10.1,2.1c2.3,0.7,4.6-0.7,5.3-2.9l2.9-10.3c0.7-2.3-0.7-4.6-2.9-5.3
			l-9.7-3.5h-0.1c0.1-3.9-0.4-7.8-1.4-11.5l8.5-5.7c2.1-1.2,2.7-3.7,1.7-5.8l-5.2-9.3c-1.2-2.1-3.7-2.7-5.8-1.7l-9.3,4.3l-0.1,0.1
			c-2.6-2.6-5.4-4.8-8.5-6.7l0,0l2.1-10.1c0.7-2.3-0.7-4.6-2.9-5.3l-10.3-2.9c-2.3-0.7-4.6,0.7-5.3,2.9l-3.5,9.7l0,0
			c-3.7-0.1-7.5,0.4-11,1.3l0,0l-5.7-8.6c-1.2-2.1-3.7-2.7-5.8-1.7l-9.3,5.2c-2.1,1.2-2.7,3.7-1.7,5.8l4.3,9.3
			c-2.7,2.6-5.1,5.6-7.1,8.9h-0.1l-10.1-2.1C108.6,171.9,106.2,173.2,105.5,175.4z M128.8,187.4c4.3-15.3,20.2-24.1,35.5-19.8
			c15.3,4.3,24.1,20.2,19.8,35.5s-20.2,24.1-35.5,19.8C133.4,218.5,124.5,202.6,128.8,187.4z"/>
		<circle class="st0" cx="156.5" cy="195.1" r="8.1"/>
	</g>
</g>
</svg>
