<?xml version="1.0" encoding="utf-8"?>
<!-- Generator: Adobe Illustrator 19.1.0, SVG Export Plug-In . SVG Version: 6.00 Build 0)  -->
<svg version="1.1" id="Capa_1" xmlns="http://www.w3.org/2000/svg" xmlns:xlink="http://www.w3.org/1999/xlink" x="0px" y="0px"
	 viewBox="62 -125 300 300" style="enable-background:new 62 -125 300 300;" xml:space="preserve">
<style type="text/css">
	.st0{fill:#FFFFFF;stroke:#0A94D6;stroke-width:19.0875;stroke-miterlimit:10;}
	.st1{fill:#0A94D6;}
</style>
<g>
	<circle class="st0" cx="217" cy="25" r="134"/>
	<g>
		<path class="st1" d="M206.1-42.8l-79.9,86.9H152v75.8h107.2V44.1h24.4L206.1-42.8z M205.9,40.9V98h-31.6V40.9h-15.4l47-51.9
			l47,51.9H205.9z"/>
		<path class="st1" d="M265.8-76.8l-44.5,48.4h14.4v42.3h59.7v-42.3H309L265.8-76.8z M265.6-30.1V1.7H248v-31.8h-8.6L265.6-59
			l26.2,28.9H265.6z"/>
		<path class="st1" d="M144.1-50.5l-28.2,30.6h9.1V6.8h37.8v-26.7h8.6L144.1-50.5z M144-21v20.1h-11.2V-21h-5.4L144-39.3L160.6-21
			H144z"/>
	</g>
</g>
</svg>
