<?xml version="1.0" encoding="utf-8"?>
<!-- Generator: Adobe Illustrator 19.1.0, SVG Export Plug-In . SVG Version: 6.00 Build 0)  -->
<svg version="1.1" id="Capa_1" xmlns="http://www.w3.org/2000/svg" xmlns:xlink="http://www.w3.org/1999/xlink" x="0px" y="0px"
	 viewBox="-147 270.9 300 300" style="enable-background:new -147 270.9 300 300;" xml:space="preserve">
<style type="text/css">
	.st0{fill:#0A94D6;stroke:#0A94D6;stroke-width:3.4776;stroke-miterlimit:10;}
	.st1{fill:#0A94D6;}
	.st2{fill:#B7DDF0;stroke:#0A94D6;stroke-width:8.6941;stroke-miterlimit:10;}
	.st3{fill:none;stroke:#0A94D6;stroke-width:6.9553;stroke-miterlimit:10;}
	.st4{fill:none;stroke:#0A94D6;stroke-width:8.6941;stroke-miterlimit:10;}
	.st5{fill:#0A94D6;stroke:#B7DDF0;stroke-width:5.2259;stroke-miterlimit:10;}
	.st6{fill:#B7DDF0;}
	.st7{fill:#B7DDF0;stroke:#B7DDF0;stroke-width:5.7383;stroke-miterlimit:10;}
	.st8{fill:#054664;stroke:#B7DDF0;stroke-width:5.7383;stroke-miterlimit:10;}
</style>
<g>
	<path class="st0" d="M106.9,524H51.1c-0.8,0-1.4-0.6-1.4-1.4v-6.2c0-0.8,0.6-1.4,1.4-1.4h55.9c0.8,0,1.4,0.6,1.4,1.4v6.2
		C108.3,523.4,107.7,524,106.9,524z"/>
	<polygon class="st1" points="132.3,348.7 68.1,353.7 71.5,289.4 	"/>
	<path class="st2" d="M67.2,353v-59.3H-57.5c-10.8,0-19.7,8.9-19.7,19.7v210.6c0,10.8,8.9,19.7,19.7,19.7h165.8
		c10.8,0,19.7-8.9,19.7-19.7V353H67.2z"/>
	<rect x="-55.5" y="323.3" class="st3" width="100.9" height="29.7"/>
	<rect x="-57.7" y="381.7" class="st4" width="163.4" height="112.3"/>
	<line class="st3" x1="-55.5" y1="411.8" x2="105.8" y2="411.8"/>
	<line class="st3" x1="76.2" y1="381.7" x2="76.2" y2="494"/>
	<line class="st3" x1="11.4" y1="383.9" x2="11.4" y2="496.2"/>
	<path class="st1" d="M31.2,521.3L-68,559.6c-7.4,2.9-15.8-0.9-18.7-8.3L-133,431.6c-2.9-7.4,0.9-15.8,8.3-18.7l99.2-38.4
		c7.4-2.9,15.8,0.9,18.7,8.3l46.3,119.8C42.4,510,38.6,518.4,31.2,521.3z"/>
	
		<rect x="-96" y="446.9" transform="matrix(0.9327 -0.3606 0.3606 0.9327 -173.6483 4.1967)" class="st5" width="40.9" height="40.9"/>
	
		<rect x="-43.3" y="426.5" transform="matrix(0.9327 -0.3606 0.3606 0.9327 -162.7354 21.8593)" class="st5" width="40.9" height="40.9"/>
	
		<rect x="-76.9" y="493.8" transform="matrix(0.9327 -0.3606 0.3606 0.9327 -189.2822 14.2542)" class="st5" width="40.9" height="40.9"/>
	
		<rect x="-25" y="473.8" transform="matrix(0.9327 -0.3606 0.3606 0.9327 -178.5472 31.6288)" class="st5" width="40.9" height="40.9"/>
	
		<rect x="-114.4" y="403.7" transform="matrix(0.9327 -0.3606 0.3606 0.9327 -153.9828 4.2488)" class="st6" width="97.5" height="22.1"/>
	<g>
		<path class="st7" d="M-81,449.7l5.6,14.5l14-5.4l1.4,3.7l-14,5.4l5.7,14.7l-4,1.5l-5.7-14.7l-14,5.4l-1.4-3.7l14-5.4l-5.6-14.5
			L-81,449.7z"/>
	</g>
	<g>
		<path class="st8" d="M-47.4,499l-6.3,14.3l13.7,6.1l-1.6,3.6l-13.7-6.1l-6.4,14.4l-3.9-1.7l6.4-14.4l-13.7-6.1l1.6-3.6l13.7,6.1
			l6.3-14.3L-47.4,499z"/>
	</g>
	
		<rect x="-43.3" y="441.3" transform="matrix(0.9327 -0.3606 0.3606 0.9327 -162.4835 21.7037)" class="st6" width="40.5" height="9.8"/>
	
		<rect x="-27.3" y="482.7" transform="matrix(0.9327 -0.3606 0.3606 0.9327 -176.3339 30.2613)" class="st6" width="40.5" height="9.8"/>
	
		<rect x="-22.1" y="496.1" transform="matrix(0.9327 -0.3606 0.3606 0.9327 -180.8251 33.0362)" class="st6" width="40.5" height="9.8"/>
</g>
</svg>
