<?xml version="1.0" encoding="utf-8"?>
<!-- Generator: Adobe Illustrator 19.1.0, SVG Export Plug-In . SVG Version: 6.00 Build 0)  -->
<svg version="1.1" id="Capa_1" xmlns="http://www.w3.org/2000/svg" xmlns:xlink="http://www.w3.org/1999/xlink" x="0px" y="0px"
	 viewBox="-147 270.9 300 300" style="enable-background:new -147 270.9 300 300;" xml:space="preserve">
<style type="text/css">
	.st0{fill:#B7DDF0;stroke:#0A94D6;stroke-width:12;stroke-miterlimit:10;}
	.st1{fill:none;stroke:#0A94D6;stroke-width:6;stroke-miterlimit:10;}
	.st2{fill:#0A94D6;stroke:#0A94D6;stroke-width:4;stroke-miterlimit:10;}
</style>
<g>
	<path class="st0" d="M106.2,376.7c0-9.1-7.5-16.6-16.6-16.5h-0.1V357c0-9.3-7.7-16.9-17-16.9c0,0-13.4-8.3-13.4-13.1
		c0-14.4-11.8-26.1-26.2-26.1c-14.5,0-26.2,11.7-26.1,26.2c0,4.8-15.1,13.2-15.1,13.2c-9.3,0-16.9,7.6-16.9,16.9v3.2h-0.4
		c-9.1,0-16.6,7.5-16.5,16.6l0.2,126.5c0,9.1,7.5,16.6,16.6,16.5l115.2-0.1c9.1,0,16.6-7.5,16.5-16.6L106.2,376.7z"/>
	<path class="st1" d="M33.1,319.1c6.4,0,11.6,5.2,11.6,11.5c0,5.3-3.5,9.7-8.4,11.1h-6.4c-4.8-1.4-8.4-5.8-8.4-11.1
		C21.5,324.3,26.7,319.1,33.1,319.1z"/>
	<path class="st2" d="M73.8,400.2H-6.7c-0.9,0-1.7-0.8-1.7-1.7v-6.2c0-0.9,0.8-1.7,1.7-1.7h80.5c0.9,0,1.7,0.8,1.7,1.7v6.2
		C75.6,399.4,74.8,400.2,73.8,400.2z"/>
	<path class="st2" d="M73.8,443.8H-6.7c-0.9,0-1.7-0.8-1.7-1.7v-6.2c0-0.9,0.8-1.7,1.7-1.7h80.5c0.9,0,1.7,0.8,1.7,1.7v6.2
		C75.6,443,74.8,443.8,73.8,443.8z"/>
	<path class="st2" d="M73.8,487.4H-6.7c-0.9,0-1.7-0.8-1.7-1.7v-6.2c0-0.9,0.8-1.7,1.7-1.7h80.5c0.9,0,1.7,0.8,1.7,1.7v6.2
		C75.6,486.6,74.8,487.4,73.8,487.4z"/>
</g>
</svg>
