<?xml version="1.0" encoding="utf-8"?>
<!-- Generator: Adobe Illustrator 19.1.0, SVG Export Plug-In . SVG Version: 6.00 Build 0)  -->
<svg version="1.1" id="Capa_1" xmlns="http://www.w3.org/2000/svg" xmlns:xlink="http://www.w3.org/1999/xlink" x="0px" y="0px"
	 viewBox="-147 270.9 300 300" style="enable-background:new -147 270.9 300 300;" xml:space="preserve">
<style type="text/css">
	.st0{fill:#FFFFFF;}
	.st1{fill:none;stroke:#FFFFFF;stroke-width:14.1361;stroke-miterlimit:10;}
</style>
<g>
	<g>
		<path class="st0" d="M-5.1,370.7L-64.2,435h19.1v56.2h79.4V435h18.1L-5.1,370.7z M-5.2,432.7V475h-23.4v-42.3H-40l34.8-38.4
			l34.8,38.4H-5.2z"/>
		<path class="st0" d="M39.1,345.5l-33,35.9h10.6v31.3H61v-31.3h10.1L39.1,345.5z M39,380.1v23.6H26v-23.6h-6.4L39,358.6L58.4,380
			H39V380.1z"/>
		<path class="st0" d="M-51,365l-20.9,22.7h6.7v19.8h28v-19.8h6.4L-51,365z M-51.1,386.8v14.9h-8.3v-14.9h-4l12.3-13.5l12.3,13.5
			H-51.1z"/>
	</g>
	<circle class="st1" cx="3" cy="420.9" r="99.2"/>
</g>
</svg>
