<?xml version="1.0" encoding="utf-8"?>
<!-- Generator: Adobe Illustrator 18.1.1, SVG Export Plug-In . SVG Version: 6.00 Build 0)  -->
<svg version="1.1" id="Capa_1" xmlns="http://www.w3.org/2000/svg" xmlns:xlink="http://www.w3.org/1999/xlink" x="0px" y="0px"
	 viewBox="0 0 300 300" style="enable-background:new 0 0 300 300;" xml:space="preserve">
<style type="text/css">
	.st0{fill:#0A94D6;}
</style>
<g>
	<path class="st0" d="M260.7,89.3l-64.2-58.9c-2.2-2-2.2-5.6-0.3-7.4l10.1-10.9c2-2.2,5.6-2.2,7.4-0.3l64.2,58.9
		c2.2,2,2.2,5.6,0.3,7.4L268.1,89C266.3,91.3,263,91.5,260.7,89.3z"/>
	<polygon class="st0" points="38.4,287 19.7,287.3 18,268.4 125,152.4 145,171 	"/>
	<path class="st0" d="M214.6,165l-5.9-5.3l43.7-67L194,39.1l-63.1,49l-5.9-5.3c-12.7-11.9-33-11.2-45,2c-2.2,2.5-3.9,5-5.3,7.8
		L209.1,216c2.8-1.7,5.3-3.6,7.3-5.9C228.4,196.9,227.7,176.9,214.6,165z"/>
</g>
</svg>
