<?xml version="1.0" encoding="utf-8"?>
<!-- Generator: Adobe Illustrator 19.1.0, SVG Export Plug-In . SVG Version: 6.00 Build 0)  -->
<svg version="1.1" id="Capa_1" xmlns="http://www.w3.org/2000/svg" xmlns:xlink="http://www.w3.org/1999/xlink" x="0px" y="0px"
	 viewBox="-147 270.9 300 300" style="enable-background:new -147 270.9 300 300;" xml:space="preserve">
<style type="text/css">
	.st0{fill:#0A94D6;stroke:#0A94D6;stroke-width:14;stroke-miterlimit:10;}
	.st1{fill:#FFFFFF;}
	.st2{fill:#FFFFFF;stroke:#0A94D6;stroke-width:11.0588;stroke-miterlimit:10;}
</style>
<g>
	<path class="st0" d="M27.5,300.6c-55.2,0-99.9,44.7-99.9,99.9s44.7,99.9,99.9,99.9s99.9-44.7,99.9-99.9S82.8,300.6,27.5,300.6z
		 M110,393.1H87.8c-1-13.1-4.4-25.5-10-36.7c4.6-2.7,9-5.8,13.1-9.2C101.6,359.9,108.5,375.7,110,393.1z M33.8,326.8
		c10,6.2,18.7,14.4,25.4,24c-8,3.1-16.5,5.1-25.4,5.8V326.8z M47.4,320.1c12.8,3.2,24.5,9.3,34.2,17.7c-3.3,2.6-6.7,5-10.4,7.2
		C64.8,335.4,56.7,326.9,47.4,320.1z M21.2,326.8v29.7c-8.9-0.6-17.5-2.6-25.4-5.8C2.6,341.2,11.2,333,21.2,326.8z M-16.2,345
		c-3.6-2.1-7.1-4.5-10.4-7.2c9.7-8.4,21.4-14.6,34.2-17.7C-1.7,326.9-9.8,335.4-16.2,345z M21.2,369.8v23.3h-40.8
		c0.9-11,3.9-21.4,8.6-30.8C-1,366.5,9.9,369.1,21.2,369.8z M21.2,405.7v23.6c-11.7,0.7-22.8,3.4-33,7.8c-4.5-9.6-7.3-20.2-7.9-31.4
		H21.2z M21.2,442.5v31.7C10.7,467.7,1.6,459-5.3,448.7C3,445.3,11.9,443.2,21.2,442.5z M33.8,442.5c9.3,0.7,18.2,2.8,26.5,6.2
		c-6.9,10.3-15.9,19-26.5,25.5V442.5z M33.8,429.2v-23.6h40.9c-0.7,11.2-3.4,21.8-7.9,31.4C56.6,432.7,45.4,430,33.8,429.2z
		 M33.8,393.1v-23.3c11.4-0.7,22.2-3.3,32.2-7.5c4.6,9.4,7.6,19.8,8.6,30.8H33.8z M-35.9,347.3c4.1,3.4,8.5,6.5,13.1,9.2
		c-5.5,11.2-9,23.6-10,36.7H-55C-53.5,375.7-46.6,359.9-35.9,347.3z M-55.2,405.7H-33c0.7,13.3,4,26,9.4,37.4
		c-4.7,2.8-9.2,6-13.3,9.5C-47.4,439.6-54.1,423.4-55.2,405.7z M-35.6,454.1c2.6,2.7,5.3,5.3,8.2,7.7c3.2-2.6,6.7-5,10.2-7.2
		c6.6,10.2,15,19.1,24.7,26.3C-9.5,476.7-24.6,467.2-35.6,454.1z M47.4,480.9c9.7-7.2,18.1-16.1,24.7-26.3c3.6,2.2,7,4.6,10.2,7.2
		c2.9-2.4,5.7-5,8.2-7.7C79.5,467.2,64.5,476.7,47.4,480.9z M91.9,452.6c-4.2-3.5-8.6-6.7-13.3-9.5c5.4-11.4,8.7-24.1,9.4-37.4h22.2
		C109.1,423.4,102.4,439.6,91.9,452.6z"/>
	<path class="st1" d="M27.5,300.6c-55.2,0-99.9,44.7-99.9,99.9s44.7,99.9,99.9,99.9s99.9-44.7,99.9-99.9S82.8,300.6,27.5,300.6z
		 M110,393.1H87.8c-1-13.1-4.4-25.5-10-36.7c4.6-2.7,9-5.8,13.1-9.2C101.6,359.9,108.5,375.7,110,393.1z M33.8,326.8
		c10,6.2,18.7,14.4,25.4,24c-8,3.1-16.5,5.1-25.4,5.8V326.8z M47.4,320.1c12.8,3.2,24.5,9.3,34.2,17.7c-3.3,2.6-6.7,5-10.4,7.2
		C64.8,335.4,56.7,326.9,47.4,320.1z M21.2,326.8v29.7c-8.9-0.6-17.5-2.6-25.4-5.8C2.6,341.2,11.2,333,21.2,326.8z M-16.2,345
		c-3.6-2.1-7.1-4.5-10.4-7.2c9.7-8.4,21.4-14.6,34.2-17.7C-1.7,326.9-9.8,335.4-16.2,345z M21.2,369.8v23.3h-40.8
		c0.9-11,3.9-21.4,8.6-30.8C-1,366.5,9.9,369.1,21.2,369.8z M21.2,405.7v23.6c-11.7,0.7-22.8,3.4-33,7.8c-4.5-9.6-7.3-20.2-7.9-31.4
		H21.2z M21.2,442.5v31.7C10.7,467.7,1.6,459-5.3,448.7C3,445.3,11.9,443.2,21.2,442.5z M33.8,442.5c9.3,0.7,18.2,2.8,26.5,6.2
		c-6.9,10.3-15.9,19-26.5,25.5V442.5z M33.8,429.2v-23.6h40.9c-0.7,11.2-3.4,21.8-7.9,31.4C56.6,432.7,45.4,430,33.8,429.2z
		 M33.8,393.1v-23.3c11.4-0.7,22.2-3.3,32.2-7.5c4.6,9.4,7.6,19.8,8.6,30.8H33.8z M-35.9,347.3c4.1,3.4,8.5,6.5,13.1,9.2
		c-5.5,11.2-9,23.6-10,36.7H-55C-53.5,375.7-46.6,359.9-35.9,347.3z M-55.2,405.7H-33c0.7,13.3,4,26,9.4,37.4
		c-4.7,2.8-9.2,6-13.3,9.5C-47.4,439.6-54.1,423.4-55.2,405.7z M-35.6,454.1c2.6,2.7,5.3,5.3,8.2,7.7c3.2-2.6,6.7-5,10.2-7.2
		c6.6,10.2,15,19.1,24.7,26.3C-9.5,476.7-24.6,467.2-35.6,454.1z M47.4,480.9c9.7-7.2,18.1-16.1,24.7-26.3c3.6,2.2,7,4.6,10.2,7.2
		c2.9-2.4,5.7-5,8.2-7.7C79.5,467.2,64.5,476.7,47.4,480.9z M91.9,452.6c-4.2-3.5-8.6-6.7-13.3-9.5c5.4-11.4,8.7-24.1,9.4-37.4h22.2
		C109.1,423.4,102.4,439.6,91.9,452.6z"/>
	<path class="st2" d="M-121.5,533c0,0,40-6.5,58.8-16c30.9-15.6,40.6-41.7,40.6-41.7L-49.7,456l99.3-40.8l0.8,107.5l-31.8-17.5
		c0,0-16,20.3-42.4,32.8C-81,565.2-121.5,533-121.5,533z"/>
</g>
</svg>
