<?xml version="1.0" encoding="utf-8"?>
<!-- Generator: Adobe Illustrator 19.1.0, SVG Export Plug-In . SVG Version: 6.00 Build 0)  -->
<svg version="1.1" id="Capa_1" xmlns="http://www.w3.org/2000/svg" xmlns:xlink="http://www.w3.org/1999/xlink" x="0px" y="0px"
	 viewBox="-99 0 300 300" style="enable-background:new -99 0 300 300;" xml:space="preserve">
<style type="text/css">
	.st0{fill:none;stroke:#FFFFFF;stroke-width:17.3996;stroke-miterlimit:10;}
	.st1{fill:#FFFFFF;stroke:#FFFFFF;stroke-width:3.4799;stroke-miterlimit:10;}
	.st2{fill:#FFFFFF;}
	.st3{fill:#0A94D6;stroke:#0A94D6;stroke-width:8.6998;stroke-miterlimit:10;}
</style>
<g>
	<path class="st0" d="M49,21H-57.6C-69.4,21-79,30.6-79,42.4v212.9c0,11.8,9.6,21.4,21.4,21.4h159.1c11.8,0,21.4-9.6,21.4-21.4v-162
		L49,21z"/>
	<path class="st1" d="M70.4,93.4h52.5L49,21v50.9C49,83.7,58.6,93.4,70.4,93.4z"/>
	<path class="st2" d="M179.2,36.3c-7.3-6.5-17.1-7-17.1-7l-8.7,10.1l0,0L29.8,186.8l0.3,0.2l-2.5,2.8c-2.3,2.6-3.2,19.4-3.2,25.3
		l-1.2,3.6l-1.3,3.8l3.5-1.8L29,219l0,0c5.9-0.9,23-3.8,25.1-6.3l2.3-2.7l0.2,0.2L183.5,59.2l-0.1-0.1l6-7
		C189.4,52.2,188.9,45,179.2,36.3z"/>
	<path class="st3" d="M176.7,61.8L146.5,36c1.3-1.7,1-4.1-0.6-5.6c-1.7-1.5-4.4-1.3-5.9,0.4L96.7,80.3l-2.4,2.8c0,0-2.1-1.6-2.9-1.4
		c-2.3,0.5-3.4,5.2,1.4,9.4c1.7,1.5,4.4,1.3,5.9-0.4l40.6-46.4L169.5,70L176.7,61.8z"/>
</g>
</svg>
