<?xml version="1.0" encoding="utf-8"?>
<!-- Generator: Adobe Illustrator 18.1.1, SVG Export Plug-In . SVG Version: 6.00 Build 0)  -->
<svg version="1.1" id="Capa_1" xmlns="http://www.w3.org/2000/svg" xmlns:xlink="http://www.w3.org/1999/xlink" x="0px" y="0px"
	 viewBox="0 0 200 200" style="enable-background:new 0 0 200 200;" xml:space="preserve">
<style type="text/css">
	.st0{fill:#FFFFFF;stroke:#EC145B;stroke-width:8.8159;stroke-miterlimit:10;}
	.st1{fill:#EC145B;stroke:#EC145B;stroke-width:1.7118;stroke-miterlimit:10;}
	.st2{fill:#EC145B;stroke:#EC145B;stroke-width:1.2322;stroke-miterlimit:10;}
</style>
<g>
	<path class="st0" d="M152.5,189.6H45c-7.8,0-14.2-6.4-14.2-14.2V57.5c0-7.8,6.4-14.2,14.2-14.2h107.6c7.8,0,14.2,6.4,14.2,14.2
		v117.9C166.7,183.2,160.3,189.6,152.5,189.6z"/>
	<path class="st1" d="M140.8,56.7c0.2-1,0.4-2,0.4-3V49c0-6.8-5.6-12.4-12.4-12.4c0,0-9.8-6.1-9.8-9.7c0-10.6-8.6-19.2-19.2-19.2
		s-19.2,8.6-19.2,19.2c0,3.5-11.1,9.7-11.1,9.7c-6.8,0-12.4,5.6-12.4,12.4v4.6c0,1,0.1,2.1,0.4,3h83.3V56.7z M99.7,16.9
		c5.6,0,10.1,4.5,10.1,10.1c0,4.6-3.1,8.5-7.3,9.7h-5.6c-4.2-1.2-7.3-5.1-7.3-9.7C89.6,21.4,94.1,16.9,99.7,16.9z"/>
	<g>
		<polygon class="st2" points="106.1,142.1 120.6,129 147.8,158.9 133.3,172 		"/>
		<path class="st2" d="M96.4,75.5c-17.4-6-36.4,3.2-42.4,20.6c-1.2,3.6-1.8,7.3-1.8,10.9c0,13.8,8.6,26.7,22.4,31.5
			c17.4,6,36.4-3.2,42.4-20.6c1.2-3.6,1.8-7.3,1.8-10.9C118.9,93.1,110.2,80.2,96.4,75.5z M108.5,114.9c-2.1,6.1-6.5,11.1-12.3,13.9
			c-5.8,2.8-12.4,3.2-18.6,1.1c-9.8-3.4-16.4-12.6-16.4-22.9c0-2.7,0.5-5.4,1.3-7.9l0,0c2.1-6.1,6.5-11.1,12.3-13.9
			c5.8-2.8,12.4-3.2,18.6-1.1c9.8,3.4,16.4,12.6,16.4,22.9C109.8,109.6,109.4,112.3,108.5,114.9z"/>
	</g>
</g>
</svg>
