<?xml version="1.0" encoding="utf-8"?>
<!-- Generator: Adobe Illustrator 19.1.0, SVG Export Plug-In . SVG Version: 6.00 Build 0)  -->
<svg version="1.1" id="Capa_1" xmlns="http://www.w3.org/2000/svg" xmlns:xlink="http://www.w3.org/1999/xlink" x="0px" y="0px"
	 viewBox="-147 270.9 300 300" style="enable-background:new -147 270.9 300 300;" xml:space="preserve">
<style type="text/css">
	.st0{fill:#FFFFFF;stroke:#FFFFFF;stroke-width:3.4776;stroke-miterlimit:10;}
	.st1{fill:#FFFFFF;}
	.st2{fill:none;stroke:#FFFFFF;stroke-width:8.6941;stroke-miterlimit:10;}
	.st3{fill:none;stroke:#FFFFFF;stroke-width:6.9553;stroke-miterlimit:10;}
	.st4{fill:#FFFFFF;stroke:#054664;stroke-width:5.2259;stroke-miterlimit:10;}
	.st5{fill:#054664;}
	.st6{fill:#054664;stroke:#054664;stroke-width:5.7383;stroke-miterlimit:10;}
</style>
<g>
	<g>
		<path class="st0" d="M101.8,519.9H45.9c-0.8,0-1.4-0.6-1.4-1.4v-6.2c0-0.8,0.6-1.4,1.4-1.4h55.9c0.8,0,1.4,0.6,1.4,1.4v6.2
			C103.2,519.3,102.6,519.9,101.8,519.9z"/>
		<g>
			<polygon class="st1" points="127.1,344.6 62.9,349.6 66.4,285.3 			"/>
			<path class="st2" d="M62.1,348.9v-59.3H-62.7c-10.8,0-19.7,8.9-19.7,19.7v210.6c0,10.8,8.9,19.7,19.7,19.7h165.8
				c10.8,0,19.7-8.9,19.7-19.7v-171H62.1z"/>
		</g>
		<rect x="-60.6" y="319.2" class="st3" width="100.9" height="29.7"/>
		<rect x="-62.8" y="377.6" class="st2" width="163.4" height="112.3"/>
		<line class="st3" x1="-60.6" y1="407.7" x2="100.6" y2="407.7"/>
		<line class="st3" x1="71.1" y1="377.6" x2="71.1" y2="489.9"/>
		<line class="st3" x1="6.3" y1="379.8" x2="6.3" y2="492"/>
	</g>
	<path class="st1" d="M26.1,517.2l-99.2,38.4c-7.4,2.9-15.8-0.9-18.7-8.3l-46.3-119.8c-2.9-7.4,0.9-15.8,8.3-18.7l99.2-38.4
		c7.4-2.9,15.8,0.9,18.7,8.3l46.3,119.8C37.2,505.9,33.5,514.3,26.1,517.2z"/>
	
		<rect x="-101.2" y="442.8" transform="matrix(0.9327 -0.3606 0.3606 0.9327 -172.5072 2.0651)" class="st4" width="40.9" height="40.9"/>
	
		<rect x="-48.4" y="422.4" transform="matrix(0.9327 -0.3606 0.3606 0.9327 -161.5942 19.7277)" class="st4" width="40.9" height="40.9"/>
	
		<rect x="-82.1" y="489.7" transform="matrix(0.9327 -0.3606 0.3606 0.9327 -188.1411 12.1226)" class="st4" width="40.9" height="40.9"/>
	
		<rect x="-30.1" y="469.6" transform="matrix(0.9327 -0.3606 0.3606 0.9327 -177.406 29.4971)" class="st4" width="40.9" height="40.9"/>
	
		<rect x="-119.5" y="399.6" transform="matrix(0.9327 -0.3606 0.3606 0.9327 -152.8417 2.1172)" class="st5" width="97.5" height="22.1"/>
	<g>
		<path class="st6" d="M-86.1,445.6l5.6,14.5l14-5.4l1.4,3.7l-14,5.4l5.7,14.7l-4,1.5l-5.7-14.7l-14,5.4l-1.4-3.7l14-5.4l-5.6-14.5
			L-86.1,445.6z"/>
	</g>
	<g>
		<path class="st6" d="M-52.5,494.9l-6.3,14.3l13.7,6.1l-1.6,3.6l-13.7-6.1l-6.4,14.4l-3.9-1.7l6.4-14.4L-78,505l1.6-3.6l13.7,6.1
			l6.3-14.3L-52.5,494.9z"/>
	</g>
	
		<rect x="-48.5" y="437.2" transform="matrix(0.9327 -0.3606 0.3606 0.9327 -161.3424 19.5721)" class="st5" width="40.5" height="9.8"/>
	
		<rect x="-32.5" y="478.6" transform="matrix(0.9327 -0.3606 0.3606 0.9327 -175.1928 28.1297)" class="st5" width="40.5" height="9.8"/>
	
		<rect x="-27.3" y="492" transform="matrix(0.9327 -0.3606 0.3606 0.9327 -179.6839 30.9045)" class="st5" width="40.5" height="9.8"/>
</g>
</svg>
