<?xml version="1.0" encoding="utf-8"?>
<!-- Generator: Adobe Illustrator 19.1.0, SVG Export Plug-In . SVG Version: 6.00 Build 0)  -->
<svg version="1.1" id="Capa_1" xmlns="http://www.w3.org/2000/svg" xmlns:xlink="http://www.w3.org/1999/xlink" x="0px" y="0px"
	 viewBox="-147 270.9 300 300" style="enable-background:new -147 270.9 300 300;" xml:space="preserve">
<style type="text/css">
	.st0{fill:#B7DDF0;stroke:#0A94D6;stroke-width:14.1361;stroke-miterlimit:10;}
	.st1{fill:#0A94D6;}
	.st2{fill:#B7DDF0;stroke:#0A94D6;stroke-width:7.0681;stroke-miterlimit:10;}
</style>
<g>
	<circle class="st0" cx="0.5" cy="420.9" r="99.2"/>
	<path class="st1" d="M36.6,345.5l-33,35.9h10.7v31.3h44.3v-31.3h10L36.6,345.5z M36.5,380.1v23.6h-13v-23.6h-6.4l19.4-21.4
		l19.4,21.4H36.5z"/>
	<path class="st2" d="M-7.5,370.7l-59.2,64.4h19.1v56.2h79.4v-56.2h18.1L-7.5,370.7z M-7.7,432.7V475h-23.4v-42.3h-11.4l34.8-38.4
		l34.8,38.4H-7.7z"/>
	<path class="st1" d="M-53.5,365l-20.9,22.7h6.7v19.8h28v-19.8h6.4L-53.5,365z M-53.6,386.9v14.9h-8.3v-14.9h-4l12.3-13.5l12.3,13.5
		H-53.6z"/>
</g>
</svg>
