<?xml version="1.0" encoding="utf-8"?>
<!-- Generator: Adobe Illustrator 18.1.1, SVG Export Plug-In . SVG Version: 6.00 Build 0)  -->
<svg version="1.1" id="Capa_1" xmlns="http://www.w3.org/2000/svg" xmlns:xlink="http://www.w3.org/1999/xlink" x="0px" y="0px"
	 viewBox="0 0 200 200" enable-background="new 0 0 200 200" xml:space="preserve">
<g>
	<g>
		<g>
			<path fill="#FFFFFF" d="M58.1,74.9c-4.5-7.3-5.7-16.1-3.1-24.4c1-3.1,2.9-7.6,6.4-8.4c3.3-0.8,7.3,1.5,10.4,2.4
				c8.9,2.4,18.1-1.2,20.3-10.9c2.1-9.8-3.9-17.7-10.2-24.4C77,4,69,11.9,74,17.2c2.8,2.9,6.1,6.2,7.1,10.2c0.6,2.1,0.4,5.5-1.8,6.6
				c-2.5,1.2-6.4-0.9-8.7-1.5c-4.2-1.3-8.8-2.2-13.1-0.8c-8.9,2.9-13.3,13.1-14.6,21.6c-1.4,9.5,0.4,19.2,5.5,27.4
				C52.2,86.7,61.9,81.1,58.1,74.9L58.1,74.9z"/>
		</g>
	</g>
	<g>
		<path fill="#FFFFFF" d="M169.2,125.3L92.9,65.5c-6.9-5.4-45-12-50.4-5.1L27.9,78.9c-5.4,6.9,10.1,42.4,17,47.7l76.3,59.8
			c4.8,3.8,12,2.9,15.8-1.9l34.1-43.5C174.9,136.2,174,129.1,169.2,125.3z M69.5,96.2c-4.2,5.3-11.8,6.3-17.2,2.1
			c-5.3-4.2-6.3-11.8-2.1-17.2c4.2-5.3,11.8-6.3,17.2-2.1C72.8,83.2,73.7,90.9,69.5,96.2z M90.6,98.5c6.8-8.5,15.3-9.5,20.8-5
			c5.9,4.8,6.2,12.4-0.3,20.5c-7.2,8.9-15.4,9.6-20.9,5.2C84.9,114.9,83.7,107.1,90.6,98.5z M124.5,153.6
			c-7.2,8.9-15.4,9.6-20.8,5.3c-5.3-4.2-6.4-12.1,0.3-20.7c6.9-8.5,15.3-9.6,20.9-5.1C130.8,137.9,131,145.5,124.5,153.6z
			 M79.2,139.5l-3.7-2.9l60-23.8l3.6,2.9L79.2,139.5z"/>
		<path fill="#FFFFFF" d="M121.9,136.4c-3.6-2.9-8.9-0.2-13.2,5.1c-4.4,5.3-5.6,11.2-2.1,14c3.8,3,8.7,0.4,13.2-5.3
			C124,145.1,125.9,139.6,121.9,136.4z"/>
		<path fill="#FFFFFF" d="M93.1,115.8c3.8,3,8.7,0.4,13.2-5.3c4.1-5.1,6.1-10.7,2.1-13.9c-3.6-2.9-8.9-0.2-13.2,5.2
			C90.7,107.2,89.5,112.9,93.1,115.8z"/>
	</g>
</g>
</svg>
