<?xml version="1.0" encoding="utf-8"?>
<!-- Generator: Adobe Illustrator 19.1.0, SVG Export Plug-In . SVG Version: 6.00 Build 0)  -->
<svg version="1.1" id="Capa_1" xmlns="http://www.w3.org/2000/svg" xmlns:xlink="http://www.w3.org/1999/xlink" x="0px" y="0px"
	 viewBox="-62 63.2 300 300" style="enable-background:new -62 63.2 300 300;" xml:space="preserve">
<style type="text/css">
	.st0{fill:#FFFFFF;}
</style>
<g>
	<g>
		<path class="st0" d="M74.8,130.2c-3-15.8-12.4-29.9-25.5-39.2C36.5,81.9,17.7,76.1,5,88.5c-3.8,3.8-6.4,8.7-9.2,13.2
			c-1.1,2-2.4,4.2-3.3,5.1c-1.5,1.8-2.2,2.3-3.4,2.7c-4.2,1.4-7.7-2.3-9.6-6.8c-2.5-6-2.2-13-2.1-19.2c0.1-11.4-17.6-10.6-17.7,0.8
			c-0.2,15,2,31.6,15.9,40.4c12.5,7.9,26.6-0.1,33.7-11c2.6-4,4.9-9.1,7.5-11.9c3.4-3.7,9.5-2.9,14.9-0.5
			c14.1,6.3,23.3,19.3,26.2,34.3c0.9,4.8,6.9,7.1,11.1,5.8C74,139.7,75.7,134.9,74.8,130.2L74.8,130.2z"/>
	</g>
</g>
<path class="st0" d="M215.1,282.6l-73-134.8c-6.6-12.2-57.8-45.7-69.9-39.1l-32.7,17.7c-12.2,6.6-12.1,67.8-5.5,79.9l73,134.9
	c4.7,8.6,15.4,11.8,24,7.1l76.9-41.7C216.6,302,219.8,291.2,215.1,282.6z M60.2,141.2c3.7-8.6,13.7-12.5,22.2-8.8
	c8.6,3.7,12.5,13.7,8.8,22.2c-3.7,8.6-13.7,12.5-22.2,8.8C60.4,159.7,56.4,149.8,60.2,141.2z M165.5,292.6
	c-11.8,5.9-23.5,6.8-35.2,2.5c-8-2.9-14.8-8-20.6-15.3l-9,4.6L97.8,274l6-3c-0.5-1-1-1.9-1.6-3c-0.9-1.9-1.7-3.6-2.3-5l-7.9,4
	l-2.8-10.4l7.2-3.6c-2.4-8.9-2.4-17.4-0.1-25.3c3.5-12,11.5-21.2,24-27.4c6.8-3.4,13.3-5.2,19.6-5.2l4.9,18.6
	c-5.2-1.7-11.1-0.9-17.7,2.5c-6.6,3.3-10.7,8.4-12.4,15.2c-1,3.8-0.9,8,0.2,12.5l33.4-16.8l2.8,10.4L118.3,254
	c0.4,0.9,1,2.1,1.7,3.6c0.7,1.4,1.4,2.9,2.4,4.4l30.9-15.6l2.8,10.4l-27.6,14c3.2,3.8,6.4,6.5,9.8,7.9c6.4,2.8,13,2.5,19.4-0.8
	c7.8-3.9,12.7-9.4,14.9-16.5l9.3,18.5C178,284.7,172.5,289.1,165.5,292.6z"/>
</svg>
