<?xml version="1.0" encoding="utf-8"?>
<!-- Generator: Adobe Illustrator 18.1.1, SVG Export Plug-In . SVG Version: 6.00 Build 0)  -->
<svg version="1.1" id="Capa_1" xmlns="http://www.w3.org/2000/svg" xmlns:xlink="http://www.w3.org/1999/xlink" x="0px" y="0px"
	 viewBox="0 0 200 200" style="enable-background:new 0 0 200 200;" xml:space="preserve">
<style type="text/css">
	.st0{fill:#054664;stroke:#054664;stroke-width:7;stroke-miterlimit:10;}
	.st1{fill:#054664;}
	.st2{fill:#FFFFFF;stroke:#054664;stroke-width:7;stroke-miterlimit:10;}
	.st3{fill:#054664;stroke:#054664;stroke-width:2.715;stroke-miterlimit:10;}
</style>
<g>
	<path class="st0" d="M86.6,165.5l-34.1-53.2l9.5-1.6l-7.5-43.3L21.9,73c-8.2,1.4-13.8,9.3-12.3,17.5l2.3,13.5
		c1.3,7.6,8.2,13,15.8,12.5L67.1,178c0.3,0.5,0.9,0.6,1.4,0.3l17.8-11.4C86.7,166.6,86.9,166,86.6,165.5z"/>
	<ellipse transform="matrix(0.17 0.9854 -0.9854 0.17 192.1495 -79.1322)" class="st1" cx="143.1" cy="74.5" rx="15.4" ry="13"/>
	<polygon class="st2" points="150.8,124.6 65.4,111 57.6,66 134.3,29.1 	"/>
	<path class="st3" d="M190.3,66.1l-22,3.8c-0.2,0-0.5-0.1-0.5-0.3l-0.7-3.9c0-0.2,0.1-0.5,0.3-0.5l22-3.8c0.2,0,0.5,0.1,0.5,0.3
		l0.7,3.9C190.7,65.9,190.6,66.1,190.3,66.1z"/>
	<path class="st3" d="M180.5,44l-19.7,10.4c-0.2,0.1-0.5,0-0.6-0.2l-1.9-3.5c-0.1-0.2,0-0.5,0.2-0.6l19.7-10.4
		c0.2-0.1,0.5,0,0.6,0.2l1.9,3.5C180.8,43.7,180.7,43.9,180.5,44z"/>
	<path class="st3" d="M187.7,85.4l-22.1-3.2c-0.2,0-0.5,0.1-0.5,0.4l-0.6,4c0,0.2,0.1,0.5,0.4,0.5l22.1,3.2c0.2,0,0.5-0.1,0.5-0.4
		l0.6-4C188.1,85.7,187.9,85.5,187.7,85.4z"/>
</g>
</svg>
