<?xml version="1.0" encoding="utf-8"?>
<!-- Generator: Adobe Illustrator 18.1.1, SVG Export Plug-In . SVG Version: 6.00 Build 0)  -->
<svg version="1.1" id="Capa_1" xmlns="http://www.w3.org/2000/svg" xmlns:xlink="http://www.w3.org/1999/xlink" x="0px" y="0px"
	 viewBox="0 0 200 200" enable-background="new 0 0 200 200" xml:space="preserve">
<g>
	<path fill="#FFFFFF" d="M172.8,65.7l-39.7-36.4c-1.4-1.2-1.4-3.4-0.2-4.6l6.2-6.7c1.2-1.4,3.4-1.4,4.6-0.2l39.7,36.4
		c1.4,1.2,1.4,3.4,0.2,4.6l-6.2,6.7C176.2,66.9,174.2,67.1,172.8,65.7z"/>
	<polygon fill="#FFFFFF" points="35.4,187.8 23.9,188 22.8,176.3 89,104.7 101.4,116.2 	"/>
	<path fill="#FFFFFF" d="M144.3,112.4l-3.6-3.3l27-41.4l-36.1-33.2l-39,30.2L89,61.6c-7.9-7.4-20.4-6.9-27.8,1.2
		c-1.4,1.5-2.4,3.1-3.3,4.8l83,76.3c1.7-1,3.3-2.2,4.5-3.6C152.9,132.2,152.4,119.8,144.3,112.4z"/>
</g>
</svg>
