<?xml version="1.0" encoding="utf-8"?>
<!-- Generator: Adobe Illustrator 18.1.1, SVG Export Plug-In . SVG Version: 6.00 Build 0)  -->
<svg version="1.1" id="Capa_1" xmlns="http://www.w3.org/2000/svg" xmlns:xlink="http://www.w3.org/1999/xlink" x="0px" y="0px"
	 viewBox="0 0 300 300" style="enable-background:new 0 0 300 300;" xml:space="preserve">
<style type="text/css">
	.st0{fill:#0A94D6;}
</style>
<g>
	<g>
		<g>
			<path class="st0" d="M89.8,116.6c-7-11.1-8.5-24.3-4.6-36.8c1.4-4.6,4.4-11.6,9.8-12.8c5-1.2,11.1,2.3,15.7,3.7
				c13.4,3.7,27.3-1.8,30.5-16.5c3.2-14.8-5.8-26.7-15.3-36.8c-7.5-7.9-19.5,4-12,12c4.1,4.4,9.3,9.3,10.7,15.6
				c0.9,3.2,0.8,8.4-2.7,9.9c-3.7,1.8-9.8-1.4-13.3-2.3c-6.6-2.1-13.3-3.2-20-1.2c-13.4,4.6-20.1,20-22,32.8
				c-2.1,14.3,0.8,29,8.4,41.5C81,134.5,95.6,125.9,89.8,116.6L89.8,116.6z"/>
		</g>
	</g>
	<g>
		<path class="st0" d="M257.9,192.9l-115.3-90.3c-10.4-8.1-68-18-76.1-7.6l-22.1,27.9c-8.1,10.4,15.3,63.9,25.8,72.3l115.3,90.3
			c7.5,5.8,18,4.4,23.8-2.7l51.7-65.7C266.4,209.3,265.1,198.7,257.9,192.9z M107,148.8c-6.3,8.1-17.8,9.5-25.9,3.2
			c-8.1-6.6-9.5-18-3.1-25.9s17.8-9.5,25.9-3.2C111.9,129.1,113.3,140.7,107,148.8z M138.8,152.3c10.2-12.8,23.2-14.3,31.4-7.6
			c9,7.2,9.3,18.8-0.5,31c-10.8,13.4-23.2,14.3-31.4,7.9C130.5,177.2,128.7,165.3,138.8,152.3z M190.2,235.4
			c-10.8,13.4-23.2,14.3-31.4,7.9c-7.9-6.6-9.8-18.3,0.5-31.3c10.4-13,23.2-14.3,31.4-7.6C199.8,211.8,199.9,223.4,190.2,235.4z
			 M121.7,214.4l-5.5-4.4l90.8-35.8l5.5,4.4L121.7,214.4z"/>
		<path class="st0" d="M186.4,209.5c-5.3-4.4-13.4-0.3-20,7.9c-6.7,8.1-8.5,16.9-3.2,21c5.8,4.6,13.3,0.5,20-7.9
			C189.3,222.8,192.3,214.4,186.4,209.5z"/>
		<path class="st0" d="M142.7,178.5c5.8,4.6,13.3,0.5,20-7.9c6.3-7.9,9.3-16.2,3.2-20.9c-5.3-4.4-13.4-0.3-20,7.9
			C139.2,165.6,137.4,174.1,142.7,178.5z"/>
	</g>
</g>
</svg>
