<?xml version="1.0" encoding="utf-8"?>
<!-- Generator: Adobe Illustrator 19.1.0, SVG Export Plug-In . SVG Version: 6.00 Build 0)  -->
<svg version="1.1" id="Capa_1" xmlns="http://www.w3.org/2000/svg" xmlns:xlink="http://www.w3.org/1999/xlink" x="0px" y="0px"
	 viewBox="62 -125 300 300" style="enable-background:new 62 -125 300 300;" xml:space="preserve">
<style type="text/css">
	.st0{fill:#FFFFFF;}
</style>
<g>
	<g>
		<g>
			<path class="st0" d="M132.1-11.7c-7.1-11.5-9-25.3-4.9-38.2c1.5-4.7,4.2-11.6,9.4-13.2c5.2-1.7,11.7,2,16.6,3.4
				c14,3.9,28.7-1.2,32.4-16.5c3.7-15.6-5.9-28.2-15.9-38.9c-7.8-8.3-20.2,4.2-12.5,12.5c4.4,4.7,10,10.1,11.3,16.8
				c0.7,3.3,0.3,8.4-3.3,9.8c-4.5,1.9-11.3-2-15.6-3.2c-6.5-1.9-13.3-2.6-19.8-0.1c-13.3,5.2-19.8,20.7-21.7,34
				c-2.1,14.8,0.8,29.9,8.7,42.7C122.8,6.8,138.1-2,132.1-11.7L132.1-11.7z"/>
		</g>
	</g>
	<g>
		<path class="st0" d="M307.1,67.7L186.8-26.5c-10.8-8.5-70.9-18.8-79.4-8L84.6-5.3c-8.5,10.8,15.9,66.7,26.7,75.2l120.2,94.2
			c7.6,6,18.8,4.6,24.8-3L310,92.5C316.1,84.8,314.7,73.7,307.1,67.7z M150.1,21.8c-6.5,8.4-18.6,9.8-27,3.3s-9.8-18.6-3.3-27
			s18.6-9.8,27-3.3C155.2,1.3,156.7,13.4,150.1,21.8z M183.2,25.3c10.7-13.3,24-15,32.8-7.9c9.3,7.5,9.7,19.6-0.5,32.3
			c-11.3,14-24.3,15.1-32.9,8.2C174.3,51.3,172.5,38.9,183.2,25.3z M236.7,112.2c-11.3,14.1-24.3,15.1-32.8,8.3
			c-8.3-6.7-10.1-19.1,0.5-32.5c10.8-13.4,24.1-15.1,32.9-8C246.6,87.4,246.9,99.5,236.7,112.2z M165.3,90.1l-5.7-4.6L254.1,48
			l5.7,4.6L165.3,90.1z"/>
		<path class="st0" d="M232.6,85.1c-5.6-4.5-14.1-0.3-20.8,8.1c-6.9,8.4-8.8,17.5-3.3,22c6,4.8,13.7,0.6,20.8-8.3
			C235.8,98.8,238.9,90.1,232.6,85.1z"/>
		<path class="st0" d="M187.2,52.7c6,4.8,13.7,0.6,20.8-8.3c6.5-8.1,9.6-16.8,3.3-21.8c-5.6-4.5-14-0.2-20.7,8.2
			C183.5,39.1,181.5,48.2,187.2,52.7z"/>
	</g>
</g>
</svg>
