<?xml version="1.0" encoding="utf-8"?>
<!-- Generator: Adobe Illustrator 19.1.0, SVG Export Plug-In . SVG Version: 6.00 Build 0)  -->
<svg version="1.1" id="Capa_1" xmlns="http://www.w3.org/2000/svg" xmlns:xlink="http://www.w3.org/1999/xlink" x="0px" y="0px"
	 viewBox="62 -125 300 300" style="enable-background:new 62 -125 300 300;" xml:space="preserve">
<style type="text/css">
	.st0{fill:#0A94D6;stroke:#FFFFFF;stroke-width:13.3644;stroke-miterlimit:10;}
	.st1{fill:#FFFFFF;}
	.st2{fill:#FFFFFF;stroke:#FFFFFF;stroke-width:2.8638;stroke-miterlimit:10;}
</style>
<g>
	<path class="st0" d="M304.6-17.3c0-11.4-9.4-20.7-20.8-20.7h-0.1v-3.9c0-11.6-9.6-21.1-21.2-21.1c0,0-16.7-10.4-16.7-16.4
		c0-18-14.7-32.6-32.8-32.6s-32.7,14.7-32.7,32.7c0,6-18.9,16.5-18.9,16.5c-11.6,0-21.2,9.5-21.1,21.2v3.9h-0.5
		c-11.4,0-20.7,9.4-20.7,20.8l0.3,158.2c0,11.4,9.4,20.7,20.8,20.7l144-0.3c11.4,0,20.7-9.4,20.7-20.8L304.6-17.3z"/>
	<path class="st1" d="M213.2-93.2c8,0,14.5,6.4,14.5,14.4c0,6.6-4.4,12.1-10.4,13.9h-8c-6-1.7-10.5-7.3-10.5-13.9
		C198.7-86.7,205.2-93.2,213.2-93.2z"/>
	<path class="st2" d="M266.6,17H163.5c-0.5,0-0.9-0.4-0.9-0.9V5.8c0-0.5,0.4-0.9,0.9-0.9h103.1c0.5,0,0.9,0.4,0.9,0.9v10.3
		C267.5,16.5,267.1,17,266.6,17z"/>
	<path class="st2" d="M266.6,71.5H163.5c-0.5,0-0.9-0.4-0.9-0.9V60.3c0-0.5,0.4-0.9,0.9-0.9h103.1c0.5,0,0.9,0.4,0.9,0.9v10.3
		C267.5,71.1,267.1,71.5,266.6,71.5z"/>
	<path class="st2" d="M266.6,126H163.5c-0.5,0-0.9-0.4-0.9-0.9v-10.2c0-0.5,0.4-0.9,0.9-0.9h103.1c0.5,0,0.9,0.4,0.9,0.9v10.3
		C267.5,125.6,267.1,126,266.6,126z"/>
</g>
</svg>
