<?xml version="1.0" encoding="utf-8"?>
<!-- Generator: Adobe Illustrator 19.1.0, SVG Export Plug-In . SVG Version: 6.00 Build 0)  -->
<svg version="1.1" id="Capa_1" xmlns="http://www.w3.org/2000/svg" xmlns:xlink="http://www.w3.org/1999/xlink" x="0px" y="0px"
	 viewBox="0 0 150 150" style="enable-background:new 0 0 150 150;" xml:space="preserve">
<style type="text/css">
	.st0{fill:#0A94D6;}
	.st1{fill:#FFFFFF;stroke:#0A94D6;stroke-width:6.1271;stroke-miterlimit:10;}
</style>
<g>
	<path class="st0" d="M58.1,133.1L41.6,91.8l12.2,0.9l24.9,29.1C78.7,121.8,71.8,131,58.1,133.1z"/>
	<g>
		<path class="st0" d="M114.5,14.1L48.9,48.6l3.8,36.8l69.3,21.1c7.4-0.8,7.1-35.4,6.3-42.8l-1-9.8
			C126.6,46.7,121.8,13.3,114.5,14.1z"/>
		<path class="st0" d="M37.3,49.8l-15.7,1.6c-7.4,0.8-12.8,7.4-12,14.8l1,9.8c0.8,7.4,7.4,12.8,14.8,12L41,86.4L37.3,49.8z"/>
	</g>
	
		<ellipse transform="matrix(-0.1032 -0.9947 0.9947 -0.1032 72.0243 184.5525)" class="st1" cx="119.2" cy="59.8" rx="46" ry="16.8"/>
	<ellipse transform="matrix(0.9947 -0.1032 0.1032 0.9947 -5.5857 12.5778)" class="st0" cx="118.8" cy="60.3" rx="5.1" ry="12.1"/>
</g>
</svg>
