<?xml version="1.0" encoding="utf-8"?>
<!-- Generator: Adobe Illustrator 19.1.0, SVG Export Plug-In . SVG Version: 6.00 Build 0)  -->
<svg version="1.1" id="Capa_1" xmlns="http://www.w3.org/2000/svg" xmlns:xlink="http://www.w3.org/1999/xlink" x="0px" y="0px"
	 viewBox="0 0 150 150" style="enable-background:new 0 0 150 150;" xml:space="preserve">
<style type="text/css">
	.st0{fill:#1E89C3;}
	.st1{fill:#B3D6E7;stroke:#B3D6E7;stroke-width:2;stroke-miterlimit:10;}
	.st2{fill:#1E89C3;stroke:#1E89C3;stroke-miterlimit:10;}
</style>
<g>
	<g>
		<path class="st0" d="M96.6,70.8c-0.8-3.8-1.3-15.7-1.3-15.7c0-9.1-6.8-16.7-15.6-18c0.7-0.9,1.1-1.9,1.1-3.1
			c0-2.9-2.3-5.2-5.2-5.2c-2.9,0-5.2,2.3-5.2,5.2c0,1.2,0.4,2.3,1.1,3.2c-8.6,1.4-15.2,8.9-15.2,17.9c0,0-1.4,11.6-1.9,15.4
			C53.1,79.3,42.6,88,42.6,88c0,3.3,0,5.1,0,6l66,0.3c0-0.8,0-2.7,0-6.5C108.6,87.8,98.4,78.8,96.6,70.8z M75.7,31.8
			c1.2,0,2.2,1,2.2,2.2s-1,2.2-2.2,2.2s-2.2-1-2.2-2.2S74.4,31.8,75.7,31.8z"/>
		<path class="st0" d="M65.4,97.4c0.6,5.1,4.9,9.1,10.2,9.1s9.6-4,10.2-9.1H65.4z"/>
	</g>
	<g>
		<path class="st1" d="M13.6,74.2c0-16.8,4.7-32.4,12.7-45.8C15.5,40.7,8.9,56.8,8.9,74.5c0,18.2,7,34.8,18.5,47.2
			C18.7,108,13.6,91.7,13.6,74.2z"/>
		<path class="st2" d="M25.1,74.2c0-13.1,3.3-25.4,9.1-36.1c-8.8,9.8-14.1,22.7-14.1,36.8c0,15.2,6.2,29,16.1,38.9l0,0
			C29.2,102.3,25.1,88.7,25.1,74.2z"/>
	</g>
	<g>
		<path class="st1" d="M136.2,75.9c0,16.8-4.7,32.4-12.7,45.8c10.9-12.3,17.5-28.4,17.5-46c0-18.2-7-34.8-18.5-47.2
			C131.2,42.2,136.2,58.5,136.2,75.9z"/>
		<path class="st2" d="M124.7,75.9c0,13.1-3.3,25.4-9.1,36.1c8.8-9.8,14.1-22.7,14.1-36.8c0-15.2-6.2-29-16.1-38.9l0,0
			C120.7,47.9,124.7,61.4,124.7,75.9z"/>
	</g>
</g>
</svg>
