<?xml version="1.0" encoding="utf-8"?>
<!-- Generator: Adobe Illustrator 19.1.0, SVG Export Plug-In . SVG Version: 6.00 Build 0)  -->
<svg version="1.1" id="Capa_1" xmlns="http://www.w3.org/2000/svg" xmlns:xlink="http://www.w3.org/1999/xlink" x="0px" y="0px"
	 viewBox="0 0 150 150" style="enable-background:new 0 0 150 150;" xml:space="preserve">
<style type="text/css">
	.st0{fill:#054664;stroke:#054664;stroke-width:0.5497;stroke-miterlimit:10;}
	.st1{fill:#FFFFFF;stroke:#FFFFFF;stroke-width:0.9362;stroke-miterlimit:10;}
	.st2{fill:#B7DDF0;}
</style>
<path class="st0" d="M137.5,147.3H13c-5.6,0-10.2-4.6-10.2-10.2V12.6C2.7,6.9,7.4,2.3,13,2.3h124.5c5.6,0,10.2,4.6,10.2,10.2v124.5
	C147.7,142.7,143.1,147.3,137.5,147.3z"/>
<path class="st1" d="M118.1,99.5L64,43.5c2.1-6.5,0.7-14-4.4-19.3c-4.3-4.4-10.1-6.3-15.8-5.7l10.5,10.9l2.8,11.4l-8.5,8.2
	l-11.3-3.3L26.9,34.8c-0.8,5.6,0.9,11.6,5.2,16c5.1,5.3,12.5,7,19.1,5.1l54.1,56c-1,5,0.3,10.4,4.1,14.3c6.1,6.3,16.2,6.5,22.5,0.4
	c6.3-6.1,6.5-16.2,0.4-22.5C128.4,100.2,123.1,98.7,118.1,99.5z M128.4,122.9c-4.3,4.1-11.1,4-15.2-0.3c-4.1-4.3-4-11.1,0.3-15.2
	c4.3-4.1,11.1-4,15.2,0.3C132.8,111.9,132.7,118.7,128.4,122.9z"/>
<path class="st2" d="M68.3,91.1H54.5V77.3c0-3.9-3.2-7-7-7h-5.1c-3.9,0-7,3.2-7,7v13.8H21.5c-3.9,0-7,3.2-7,7v5.1c0,3.9,3.2,7,7,7
	h13.8v13.8c0,3.9,3.2,7,7,7h5.1c3.9,0,7-3.2,7-7v-13.8h13.8c3.9,0,7-3.2,7-7v-5.1C75.4,94.3,72.2,91.1,68.3,91.1z"/>
</svg>
