<?xml version="1.0" encoding="utf-8"?>
<!-- Generator: Adobe Illustrator 19.1.0, SVG Export Plug-In . SVG Version: 6.00 Build 0)  -->
<svg version="1.1" id="Capa_1" xmlns="http://www.w3.org/2000/svg" xmlns:xlink="http://www.w3.org/1999/xlink" x="0px" y="0px"
	 viewBox="0 0 150 150" style="enable-background:new 0 0 150 150;" xml:space="preserve">
<style type="text/css">
	.st0{fill:#054664;stroke:#054664;stroke-width:0.5497;stroke-miterlimit:10;}
	.st1{fill:#B7DDF0;}
	.st2{fill:#FFFFFF;}
</style>
<path class="st0" d="M137.5,147.3H13c-5.6,0-10.2-4.6-10.2-10.2V12.6C2.7,6.9,7.4,2.3,13,2.3h124.5c5.6,0,10.2,4.6,10.2,10.2v124.5
	C147.7,142.7,143.1,147.3,137.5,147.3z"/>
<g>
	<path class="st1" d="M33.4,104.6c-0.2-17.1-1.2-32.6,8.2-46.4c9-13.2,25.6-18,39.9-12.7l-4.4,18.8l33.1-24.1l-20-32.1l-4.7,20.3
		c-21.1-6.8-43.9,1.4-57,20.7C8.8,78.2,33.4,104.6,33.4,104.6z"/>
	<path class="st2" d="M118.2,46c0.2,17.1,1.2,32.6-8.2,46.4c-9,13.2-25.6,18-39.9,12.7l4.4-18.8l-33.1,24.1l20,32.1l4.7-20.3
		c21.1,6.8,43.9-1.4,57-20.7C142.9,72.4,118.2,46,118.2,46z"/>
</g>
</svg>
