<?xml version="1.0" encoding="utf-8"?>
<!-- Generator: Adobe Illustrator 18.1.1, SVG Export Plug-In . SVG Version: 6.00 Build 0)  -->
<svg version="1.1" id="Capa_1" xmlns="http://www.w3.org/2000/svg" xmlns:xlink="http://www.w3.org/1999/xlink" x="0px" y="0px"
	 viewBox="0 0 240 170" style="enable-background:new 0 0 240 170;" xml:space="preserve">
<style type="text/css">
	.st0{fill:#0A94D6;}
	.st1{fill:#054664;}
	.st2{fill:#FFFFFF;stroke:#FFFFFF;stroke-width:1.9561;stroke-miterlimit:10;}
	.st3{fill:#FFFFFF;}
	.st4{fill:#B7DDF0;}
</style>
<g>
	<path class="st0" d="M7.5,67.3c0,0,47.1,78.1,101.8,93.3s119.2-22.2,119.2-22.2S218,79,163.3,63.8S7.5,67.3,7.5,67.3z"/>
	<path class="st1" d="M167.4,58.4c-20.8-5.8-49.3-7.4-76.8-7.2C80.8,26,75.8,4.2,75.8,4.2s89,22.1,127.2,50.5
		c32.8,24.4,30.3,64.5,28.9,75.2C228.9,117.5,214.6,71.6,167.4,58.4z"/>
	<path class="st2" d="M79.9,88.4h12.1c4,0,7.4,1.4,10.2,4.2c2.8,2.8,4.2,6.2,4.2,10.2s-1.4,7.4-4.2,10.2c-1.3,1.3-2.7,2.3-4.3,3
		l10.5,16.8c0.3,0.4,0.4,0.8,0.4,1.3c0,0.7-0.2,1.2-0.7,1.7c-0.5,0.5-1,0.7-1.7,0.7c-0.9,0-1.6-0.4-2.1-1.2L93,117.3
		c-0.3,0-0.7,0-1.1,0h-9.6v16.9c0,0.7-0.2,1.2-0.7,1.7c-0.5,0.5-1,0.7-1.7,0.7s-1.2-0.2-1.7-0.7c-0.5-0.5-0.7-1-0.7-1.7V90.8
		c0-0.7,0.2-1.2,0.7-1.7C78.6,88.6,79.2,88.4,79.9,88.4z M82.3,93.2v19.3h9.6c2.7,0,4.9-0.9,6.8-2.8s2.8-4.2,2.8-6.8
		s-0.9-4.9-2.8-6.8s-4.2-2.8-6.8-2.8H82.3z"/>
	<path class="st2" d="M116,88.4H145c0.7,0,1.2,0.2,1.7,0.7c0.5,0.5,0.7,1,0.7,1.7c0,0.7-0.2,1.2-0.7,1.7c-0.5,0.5-1,0.7-1.7,0.7
		h-26.5v16.9h19.3c0.7,0,1.2,0.2,1.7,0.7c0.5,0.5,0.7,1,0.7,1.7c0,0.7-0.2,1.2-0.7,1.7c-0.5,0.5-1,0.7-1.7,0.7h-19.3v16.9H145
		c0.7,0,1.2,0.2,1.7,0.7c0.5,0.5,0.7,1,0.7,1.7s-0.2,1.2-0.7,1.7c-0.5,0.5-1,0.7-1.7,0.7H116c-0.7,0-1.2-0.2-1.7-0.7
		c-0.5-0.5-0.7-1-0.7-1.7V90.8c0-0.7,0.2-1.2,0.7-1.7C114.8,88.6,115.4,88.4,116,88.4z"/>
	<path class="st3" d="M195.3,136.3h-8.2l-0.2-20.5l-10.8,10.4l-9.9-10.2l0,20.3h-9.2c-2.3,0-4.2-1.9-4.2-4.2V93.9
		c0-2.3,23.1-15.3,23.1-15.3s23.4,13,23.4,15.3v38.2C199.4,134.4,197.6,136.3,195.3,136.3z"/>
	<g>
		<path class="st4" d="M157.1,130.1c-2.3,0-4.2-1.9-4.2-4.2v6.5c0,2.3,1.9,4.2,4.2,4.2h9.2l0-6.5H157.1z"/>
		<path class="st4" d="M195.3,130.1h-8.2l-0.2-20.5L176.2,120l-9.9-10.2l0,6.5l9.9,10.2l10.8-10.4l0.2,20.5h8.2
			c2.3,0,4.2-1.9,4.2-4.2v-6.5C199.4,128.2,197.6,130.1,195.3,130.1z"/>
	</g>
	<g>
		<path class="st1" d="M176,78.6c0,0-23.1,13-23.1,15.3v7.8c0-2.3,23.1-15.3,23.1-15.3s23.4,13,23.4,15.3v-7.8
			C199.4,91.6,176,78.6,176,78.6z"/>
	</g>
</g>
</svg>
