<?xml version="1.0" encoding="utf-8"?>
<!-- Generator: Adobe Illustrator 18.1.1, SVG Export Plug-In . SVG Version: 6.00 Build 0)  -->
<svg version="1.1" id="Capa_1" xmlns="http://www.w3.org/2000/svg" xmlns:xlink="http://www.w3.org/1999/xlink" x="0px" y="0px"
	 viewBox="0 0 350 500" style="enable-background:new 0 0 350 500;" xml:space="preserve">
<style type="text/css">
	.st0{fill:#5491CE;}
</style>
<g>
	<g>
		<g>
			<path class="st0" d="M316.6,35.9v24h-33.2v49.8h33.2v24h-88.4v-24h38.4V60h-38.4v-24H316.6z"/>
			<path class="st0" d="M246.4,214.2v-40.6l-18.2-7.2v-25.9l88.4,38.9v29l-88.4,38.9v-25.9L246.4,214.2z M297.6,193.9L262.5,180
				v27.7L297.6,193.9z"/>
			<path class="st0" d="M259.1,274.9l57.6-39.1V264l-38.5,22.9l38.5,22.9V338l-57.6-39.1h-30.8v-24H259.1z"/>
			<path class="st0" d="M246.4,400.2v-40.6l-18.2-7.2v-25.9l88.4,38.9v29l-88.4,38.9v-25.9L246.4,400.2z M297.6,379.9L262.5,366
				v27.7L297.6,379.9z"/>
		</g>
		<path class="st0" d="M125.3,334.3l-1.2-4.9l-21.5-4.9l-11.2,5.2l-11.2-5.2l-4.3-4.3l-11.8,11.2l-6.9-6.6l-8.3-4.6l10.3-10.6
			l-8.6-3.2l-6.6-12.1l8-2.6l4.6-5.5l14.1,12.1l5.2-6.9l-0.9-5.2l-12.1-2l-9.8-6l1.4-5.5l-7.5-3.2l-8.9-3.2l-3.4-10.9l18.1,3.2
			L38.9,245l-2.6-7.5l10.9,3.2l7.2-3.2l-19.5-10.3l-3.7-12.3l12.6-2.3l-10-12.3l22.1,9.5l16.7-4.6l-5.2-10.3L57,185.8l25,4.3
			l16.1,0.6l13.2,1.4c0,0,10-9.5,10.3-8.6c0.3,0.9,8.3-2.9,8.3-2.9l9.8,4.9c0,0,18.9,0.6,17.5,1.4c-1.4,0.9-8.6-8-8.6-8l-10-2.3
			l-6.9-6l-7.2,2.3l-6.9-3.7l-12.3,2l-3.7,7.5l-15.2-0.3l-18.4-9.2l15.5-2.9l11.5-4l-21.2-1.7l-8.9-7.5l-6.3-4.3l4.9-5.2l-8.6-4
			l1.1-8.3l14.4,2.3c0,0,8.6-0.9,8.9,0c0.3,0.9,10,8,10,8l10.3-3.2l9.2-0.6h12.6l-13.2-6.6l-11.8,2.9l-10.9-8L68.8,119l-6-12.6
			l18.9,6l13.5-2.9l4.3-6.3l-1.7-8.9l-7.7-8l-3.4-8.3l23.8,14.3l11.8-2.6l13.2-1.4l-16.9-13.8l-12.3-6.9l-8-5.2l1.4-9.2
			c0,0,9.2-8,10.1-7.2c0.9,0.9,5.2,6.9,5.2,6.9l10.6-7l8.3,15l-0.6,10.6l11.2,0.6l5.5-8.3l-10.1-5.5L136.3,42l14.4,3.2l10.6-1.4
			l4-7.7l4.3-15.2l10.1,1.2l12.3-5.2l14.3-1.7l5.8,10l9.5-5.7l9.2-8.6l10.3,4l-18.9,10.9v292.8V433h-37.3l8-12.9l3.2-56.6l-9.5-16.9
			l-23-20.1L125.3,334.3z"/>
	</g>
	<g>
		<path class="st0" d="M229.2,475h13.3v2.7h-9.4v3h9v2.6h-9v3.3h9.5v2.7h-13.4V475z"/>
		<path class="st0" d="M254.4,479.1c-0.2-1.9-2-2.1-3.6-2.1c-1.6,0-2.6,0.7-2.6,1.7c0,0.8,0.6,1.2,1.6,1.3l4.9,0.8
			c2.6,0.4,4.6,1.4,4.6,4c0,2.7-1.8,4.8-7.4,4.8c-3.5,0-8-0.4-8-4.9h4.4c0,2,2,2.3,3.7,2.3c1.8,0,3.1-0.5,3.1-1.8
			c0-1.1-0.9-1.4-2.4-1.6l-3.5-0.5c-2.5-0.4-4.9-1.1-4.9-4c0-3.2,2.6-4.5,7.1-4.5c2.9,0,7.3,0.5,7.6,4.5H254.4z"/>
		<path class="st0" d="M265,477.7h-5.3V475h14.5v2.7h-5.3v11.5H265V477.7z"/>
		<path class="st0" d="M285,486.3h-6.5l-1.2,2.9h-4.2l6.3-14.3h4.7l6.3,14.3h-4.2L285,486.3z M281.7,478l-2.2,5.6h4.5L281.7,478z"/>
		<path class="st0" d="M294.2,477.7h-5.3V475h14.5v2.7h-5.3v11.5h-3.9V477.7z"/>
		<path class="st0" d="M304.7,475h13.3v2.7h-9.4v3h9v2.6h-9v3.3h9.5v2.7h-13.4V475z"/>
	</g>
	<g>
		<path class="st0" d="M229.8,451h14.7c5.6,0,6.6,3.4,6.6,5.5c0,2.5-1,4.1-3.3,4.9v0.1c2.4,0.4,2.8,3.4,2.8,5.4c0,1,0.1,3.4,1,4.4
			h-6c-0.5-0.9-0.5-1.8-0.5-3.9c0-2.8-1.2-3.5-2.9-3.5h-6.8v7.4h-5.5V451z M235.3,460h7.3c1.2,0,2.6-0.7,2.6-2.6
			c0-2-1.6-2.5-2.9-2.5h-7V460z"/>
		<path class="st0" d="M254,451H273v3.9h-13.4v4.2h12.7v3.7h-12.7v4.7h13.6v3.9H254V451z"/>
		<path class="st0" d="M290.7,467.1h-9.3l-1.6,4.2h-5.9l8.9-20.3h6.6l8.9,20.3h-5.9L290.7,467.1z M286,455.4l-3.2,8h6.4L286,455.4z"
			/>
		<path class="st0" d="M299.8,451h5.5v16.2h12.3v4h-17.9V451z"/>
	</g>
</g>
</svg>
