<?xml version="1.0" encoding="utf-8"?>
<!-- Generator: Adobe Illustrator 18.1.1, SVG Export Plug-In . SVG Version: 6.00 Build 0)  -->
<svg version="1.1" id="Capa_1" xmlns="http://www.w3.org/2000/svg" xmlns:xlink="http://www.w3.org/1999/xlink" x="0px" y="0px"
	 viewBox="0 0 400 200" style="enable-background:new 0 0 400 200;" xml:space="preserve">
<style type="text/css">
	.st0{fill:none;stroke:#FFFFFF;stroke-width:0.2721;stroke-miterlimit:10;}
	.st1{fill:#054664;stroke:#FFFFFF;stroke-width:0.6154;stroke-miterlimit:10;}
	.st2{fill:#054664;stroke:#FFFFFF;stroke-width:0.75;stroke-miterlimit:10;}
	.st3{fill:#0A94D6;stroke:#FFFFFF;stroke-width:0.75;stroke-miterlimit:10;}
	.st4{fill:#054664;stroke:#FFFFFF;stroke-width:0.6286;stroke-miterlimit:10;}
	.st5{fill:#FFFFFF;}
	.st6{fill:#B7DDF0;}
	.st7{fill:#0A94D6;}
	.st8{fill:#054664;}
	.st9{fill:#FFFFFF;stroke:#FFFFFF;stroke-width:2;stroke-miterlimit:10;}
	.st10{fill:#054664;stroke:#054664;stroke-miterlimit:10;}
</style>
<rect x="-312.7" y="236.3" style="fill:none;" width="143" height="60.3"/>
<text transform="matrix(1 0 0 1 -312.6665 255.1071)" style="font-family:'Comfortaa-Regular'; font-size:24;">REM</text>
<path class="st0" d="M-249.5,255c0.8-1,0.7-2.5-0.2-3.4l-15.1-15.1c-1-1-2.7-1-3.7,0l-15.1,15.1c-0.9,0.9-1,2.4-0.2,3.4H-249.5z"/>
<image style="overflow:visible;" width="1235" height="1167" xlink:href="../../../CRISTINA-Trabajo/ELEMENTOS DE DISEÑO/IDEAS/zoom-39038852-3.jpg"  transform="matrix(0.107 0 0 0.107 -323.5 -16.6667)">
</image>
<path class="st1" d="M-145.1,164.3c0,0-7.8,34-22.8,45.1s-38.2,5.2-38.2,5.2s-3.8-19.4,11.2-30.5
	C-179.9,172.9-145.1,164.3-145.1,164.3z"/>
<path class="st2" d="M-115.1,184.9c0,0-23.8,35.2-45.7,41.3s-45.7-10.9-45.7-10.9s4.2-23.7,26.1-29.8S-115.1,184.9-115.1,184.9z"/>
<path d="M-450.5,162.5h4.7c1.6,0,2.9,0.5,4,1.6s1.6,2.4,1.6,4s-0.5,2.9-1.6,4c-0.5,0.5-1.1,0.9-1.7,1.2l4.1,6.5
	c0.1,0.1,0.2,0.3,0.2,0.5c0,0.3-0.1,0.5-0.3,0.7s-0.4,0.3-0.7,0.3c-0.3,0-0.6-0.2-0.8-0.5l-4.4-7c-0.1,0-0.3,0-0.4,0h-3.8v6.6
	c0,0.3-0.1,0.5-0.3,0.7s-0.4,0.3-0.7,0.3s-0.5-0.1-0.7-0.3s-0.3-0.4-0.3-0.7v-16.9c0-0.3,0.1-0.5,0.3-0.7S-450.8,162.5-450.5,162.5z
	 M-449.6,164.4v7.5h3.8c1,0,1.9-0.4,2.7-1.1s1.1-1.6,1.1-2.7s-0.4-1.9-1.1-2.7s-1.6-1.1-2.7-1.1H-449.6z"/>
<path d="M-436.4,162.5h11.3c0.3,0,0.5,0.1,0.7,0.3s0.3,0.4,0.3,0.7s-0.1,0.5-0.3,0.7s-0.4,0.3-0.7,0.3h-10.3v6.6h7.5
	c0.3,0,0.5,0.1,0.7,0.3s0.3,0.4,0.3,0.7s-0.1,0.5-0.3,0.7s-0.4,0.3-0.7,0.3h-7.5v6.6h10.3c0.3,0,0.5,0.1,0.7,0.3s0.3,0.4,0.3,0.7
	s-0.1,0.5-0.3,0.7s-0.4,0.3-0.7,0.3h-11.3c-0.3,0-0.5-0.1-0.7-0.3s-0.3-0.4-0.3-0.7v-16.9c0-0.3,0.1-0.5,0.3-0.7
	S-436.7,162.5-436.4,162.5z"/>
<path d="M-403.9,181.2h-3.5l-0.1-8.9l-4.7,4.5l-4.3-4.4l0,8.8h-4c-1,0-1.8-0.8-1.8-1.8v-16.6c0-1,10-6.6,10-6.6s10.2,5.6,10.2,6.6
	v16.6C-402.1,180.4-402.9,181.2-403.9,181.2z"/>
<g>
	<path class="st3" d="M-355.1,146.4c0,0,18.8,31.2,40.7,37.3c21.9,6.1,47.7-8.9,47.7-8.9s-4.2-23.7-26.1-29.8
		C-314.6,139-355.1,146.4-355.1,146.4z"/>
	<path class="st4" d="M-290.1,142.3c-8.3-2.3-19.7-3-30.7-2.9c-3.9-10.1-5.9-18.8-5.9-18.8s35.6,8.8,50.9,20.2
		c13.1,9.8,12.1,25.8,11.6,30.1C-265.5,165.9-271.3,147.5-290.1,142.3z"/>
	<path class="st5" d="M-326.4,155.8h4.6c1.5,0,2.8,0.5,3.9,1.6s1.6,2.4,1.6,3.9s-0.5,2.8-1.6,3.9c-0.5,0.5-1,0.9-1.6,1.1l4,6.4
		c0.1,0.1,0.1,0.3,0.1,0.5c0,0.3-0.1,0.5-0.3,0.7c-0.2,0.2-0.4,0.3-0.7,0.3c-0.3,0-0.6-0.2-0.8-0.5l-4.3-6.9c-0.1,0-0.3,0-0.4,0
		h-3.7v6.4c0,0.3-0.1,0.5-0.3,0.7c-0.2,0.2-0.4,0.3-0.7,0.3c-0.3,0-0.5-0.1-0.7-0.3s-0.3-0.4-0.3-0.7v-16.6c0-0.3,0.1-0.5,0.3-0.7
		C-326.9,155.9-326.7,155.8-326.4,155.8z M-325.5,157.6v7.4h3.7c1,0,1.9-0.4,2.6-1.1c0.7-0.7,1.1-1.6,1.1-2.6s-0.4-1.9-1.1-2.6
		c-0.7-0.7-1.6-1.1-2.6-1.1H-325.5z"/>
	<path class="st5" d="M-312.6,155.8h11.1c0.3,0,0.5,0.1,0.7,0.3c0.2,0.2,0.3,0.4,0.3,0.7s-0.1,0.5-0.3,0.7c-0.2,0.2-0.4,0.3-0.7,0.3
		h-10.1v6.4h7.4c0.3,0,0.5,0.1,0.7,0.3c0.2,0.2,0.3,0.4,0.3,0.7s-0.1,0.5-0.3,0.7c-0.2,0.2-0.4,0.3-0.7,0.3h-7.4v6.4h10.1
		c0.3,0,0.5,0.1,0.7,0.3c0.2,0.2,0.3,0.4,0.3,0.7s-0.1,0.5-0.3,0.7c-0.2,0.2-0.4,0.3-0.7,0.3h-11.1c-0.3,0-0.5-0.1-0.7-0.3
		s-0.3-0.4-0.3-0.7v-16.6c0-0.3,0.1-0.5,0.3-0.7C-313.1,155.9-312.9,155.8-312.6,155.8z"/>
	<g>
		<path class="st5" d="M-281.5,174.1h-3.3l-0.1-8.2l-4.3,4.2l-4-4.1l0,8.1h-3.7c-0.9,0-1.7-0.8-1.7-1.7v-15.3c0-0.9,9.2-6.1,9.2-6.1
			s9.4,5.2,9.4,6.1v15.3C-279.8,173.3-280.6,174.1-281.5,174.1z"/>
		<g>
			<path class="st6" d="M-297.3,159.5c0-0.9,8.2-5.9,8.2-5.9s6.8,3.8,9.3,5.7v-2.2c0-0.9-9.4-6.1-9.4-6.1s-9.2,5.2-9.2,6.1v15.3
				c0,0.7,0.5,1.4,1.2,1.6V159.5z"/>
			<polygon class="st6" points="-283.7,164.8 -284.9,165.9 -284.9,174.1 -283.7,174.1 			"/>
		</g>
	</g>
</g>
<g>
	<path class="st7" d="M75.2,77.8c0,0,50.4,83.6,109,99.9s127.7-23.7,127.7-23.7s-11.3-63.5-69.8-79.8S75.2,77.8,75.2,77.8z"/>
	<path class="st8" d="M247.4,68.3c-22.3-6.2-52.8-7.9-82.2-7.7c-10.5-27.1-15.9-50.4-15.9-50.4s95.4,23.7,136.2,54.1
		c35.2,26.1,32.4,69,30.9,80.5C313.2,131.6,297.9,82.4,247.4,68.3z"/>
	<path class="st9" d="M152,101.7h12.3c4.1,0,7.6,1.4,10.5,4.3s4.3,6.4,4.3,10.5s-1.4,7.6-4.3,10.4c-1.3,1.3-2.8,2.4-4.3,3.1
		l10.7,17.2c0.3,0.4,0.4,0.8,0.4,1.4c0,0.7-0.2,1.3-0.7,1.7s-1.1,0.7-1.7,0.7c-0.9,0-1.6-0.4-2.2-1.3l-11.6-18.5c-0.3,0-0.7,0-1.1,0
		h-9.9v17.3c0,0.7-0.2,1.3-0.7,1.7s-1.1,0.7-1.7,0.7c-0.7,0-1.3-0.2-1.7-0.7s-0.7-1.1-0.7-1.7v-44.4c0-0.7,0.2-1.3,0.7-1.7
		C150.7,102,151.3,101.7,152,101.7z M154.4,106.7v19.7h9.9c2.7,0,5.1-1,7-2.9c1.9-1.9,2.9-4.2,2.9-7c0-2.7-1-5.1-2.9-7
		c-1.9-1.9-4.2-2.9-7-2.9H154.4z"/>
	<path class="st9" d="M188.9,101.7h29.6c0.7,0,1.3,0.2,1.7,0.7c0.5,0.5,0.7,1.1,0.7,1.7c0,0.7-0.2,1.3-0.7,1.7
		c-0.5,0.5-1.1,0.7-1.7,0.7h-27.1v17.3h19.7c0.7,0,1.3,0.2,1.7,0.7c0.5,0.5,0.7,1.1,0.7,1.7c0,0.7-0.2,1.3-0.7,1.7
		c-0.5,0.5-1.1,0.7-1.7,0.7h-19.7v17.3h27.1c0.7,0,1.3,0.2,1.7,0.7c0.5,0.5,0.7,1.1,0.7,1.7c0,0.7-0.2,1.3-0.7,1.7
		c-0.5,0.5-1.1,0.7-1.7,0.7h-29.6c-0.7,0-1.3-0.2-1.7-0.7c-0.5-0.5-0.7-1.1-0.7-1.7v-44.4c0-0.7,0.2-1.3,0.7-1.7
		C187.7,102,188.3,101.7,188.9,101.7z"/>
	<path class="st5" d="M272.2,151.7h-8.7l-0.2-21.9l-11.5,11.2l-10.6-11l0,21.7h-9.8c-2.5,0-4.5-2-4.5-4.5v-40.9
		c0-2.5,24.7-16.4,24.7-16.4s25.1,13.9,25.1,16.4v40.9C276.7,149.7,274.7,151.7,272.2,151.7z"/>
	<g>
		<path class="st6" d="M231.5,146.6c-2.4,0-4.4-2-4.4-4.5v5.2c0,2.5,2,4.5,4.4,4.5h9.8l0-5.2H231.5z"/>
		<path class="st6" d="M272.1,146.6h-8.7l-0.2-21.9l-11.5,11.2l-10.5-11l0,5.2l10.5,11l11.5-11.2l0.2,21.9h8.7c2.4,0,4.4-2,4.4-4.5
			v-5.2C276.6,144.5,274.6,146.6,272.1,146.6z"/>
	</g>
	<g>
		<path class="st10" d="M251.6,89.7c0,0-24.7,13.9-24.7,16.4v4.3c0-2.5,24.7-16.4,24.7-16.4s25.1,13.9,25.1,16.4V106
			C276.7,103.6,251.6,89.7,251.6,89.7z"/>
	</g>
</g>
</svg>
