<?xml version="1.0" encoding="utf-8"?>
<!-- Generator: Adobe Illustrator 19.1.0, SVG Export Plug-In . SVG Version: 6.00 Build 0)  -->
<svg version="1.1" id="Capa_1" xmlns="http://www.w3.org/2000/svg" xmlns:xlink="http://www.w3.org/1999/xlink" x="0px" y="0px"
	 viewBox="0 0 250 100" style="enable-background:new 0 0 250 100;" xml:space="preserve">
<style type="text/css">
	.st0{fill:#A01C35;}
	.st1{fill-rule:evenodd;clip-rule:evenodd;fill:#E2AB30;}
	.st2{fill:#0F6F78;stroke:#0F6F78;stroke-width:0.8116;stroke-miterlimit:10;}
	.st3{fill:#E2AB30;}
	.st4{fill:#0F6F78;}
	.st5{fill-rule:evenodd;clip-rule:evenodd;fill:#0F6F78;}
</style>
<g>
	<path class="st0" d="M23.4,36.2c0,0-2.2,1.8-1.6,5.3c0,0,0.7,2.5,0.3,3.2c0,0-1.3,2.2,0.4,3.2c0,0,1.3,1,1.3,1.9
		c0,0,0.4,1.6,1.8,1.9c0,0,2.5,0.1,3.1,1.2c0,0,1,2.8,3.2,1.9c0,0,3.1-0.6,3.7-0.4c0.6,0.1,2.2,0.1,2.2,0.1s1.6-0.3,2.1-0.9
		c0,0,0-0.4,1.8,0c0,0,2.8,0.6,4.6-1.3c0,0,2.1-1.2,1.6-4.6c0,0-0.2-2.4,3.5-4.4c0,0,0.9-1.6,0.3-4.1l0.4-2.8c0,0,0.6-1.6-0.7-2.7
		c0,0-1.3-4.1-4.6-4.3c0,0-2.4-1-2.8-1.8c0,0-0.9-1.3-3.1-0.3c0,0-3,0.6-4.6,0.3c0,0-0.7-0.7-1.9,0.6c0,0-0.6,0.4-2.7,0.1
		c0,0-5,2.2-7.7,6.3L23.4,36.2L23.4,36.2z"/>
	<path class="st1" d="M26.2,30.7c0,0-7.1,5.6-5.5,12.8c0,0,0.7,5.5,4.4,10c0,0,2.2,3.1,8.6,2.8c0,0,8.4,1.2,15.2-8
		c0,0,5.5-6.9,5.5-12.4c0,0-0.3-4-4-5.9c0,0-4-4.4-11.4-3.8c0,0-6.6-1-9.7,1.8L26.2,30.7L26.2,30.7z M21.5,54c0,0-7.1-8-2.7-18.6
		c0,0,2.5-6.3,11.2-9.9c0,0,1.9-1.3,13.3-0.9c0,0,4.3,0.4,10.8,4.3c0,0,5.8,2.7,3.1,11.8c0,0-3.7,10.9-12.3,16.2l-3.5,1.8
		c0,0-12.6,1.8-18.6-3.2L21.5,54L21.5,54z"/>
	<path class="st2" d="M2.6,61.8c0,0,11.2-13.3,28.2-4.3c0,0,9.9,4.1,30.9-1.6c0,0-5.2,5.6-23.1,5.3c0,0-7.7,0.1-10.5-1.8
		c0,0-14.4-7.5-24.7,2.1c0,0-0.3,0.2-0.6,0.4C2.3,62.2,2.6,61.8,2.6,61.8L2.6,61.8z"/>
	<path class="st2" d="M7.7,62.1c0,0,5.9-7.7,22.8,1.3c0,0,13.9,5.7,23.5-0.4c0,0-2.2,4-8.1,5.7c0,0-6.2,1.3-12.1-1.3
		c0,0-6.9-2.9-8.9-4.6c0,0-10-6.3-15.9-1.5c0,0-0.9,0.8-1.1,0.9C7.2,62.7,7.7,62.1,7.7,62.1L7.7,62.1z"/>
	<path class="st2" d="M18.1,70.6c0,0,9.7-4.9,18.5,1.8c0,0-9.8-3.3-14.4-1.8L18.1,70.6L18.1,70.6z"/>
	<path class="st3" d="M86.1,41.7l2.1-3.6c0,0-14.6-5.8-19.5,4.9c0,0-7,15.5,10.1,16.7c0,0,7.9-0.3,9.4-1.2l-1.5-3.9
		c0,0-10,2.7-10-6.1c0-8.8,7.3-7,7.3-7L86.1,41.7L86.1,41.7z"/>
	<polygon class="st3" points="118.1,24.7 126.3,24.7 126.3,32.5 118.1,32.5 118.1,24.7 	"/>
	<path class="st3" d="M118.2,36.2l-0.1,27.3c0,0-0.6,5.5-3.3,6.4c0,0-2.1,3.6,4,1.8c0,0,7.6-1.2,7.9-11.5l-0.2-23.9H118.2
		L118.2,36.2z"/>
	<path class="st4" d="M157.4,36.5v22.8h8.5V44.1c0,0,0.6-2.7,3.5-2.9c0.9-0.1,2.6,0.6,3.5,2.9V59h9.1V43.8c0,0,0.1-2.5,3.1-2.6
		c2.3-0.2,2.6,0.5,3.6,2.6v15.5h8.8V42.9c0,0-0.9-7-9.7-6.4c0,0-4.9,0.9-7,3.3c0,0-1.5-4.9-9.4-3c0,0-2.7,0.3-4.6,2.1v-2.4H157.4
		L157.4,36.5z"/>
	<path class="st4" d="M228.3,36.2v23.1h8.8l0-12.4c0,0,3-3.9,7.9-3.3l2.4-5.8c0,0-6.7-5.8-10.3,3.7v-5.2H228.3L228.3,36.2z"/>
	<path class="st1" d="M104.4,46.2c0,0,1.8,8.8-3.6,9.1c0,0-5.2-0.6-0.3-7c0,0,0.5-0.5,1.7-1.2C103.4,46.5,104.4,46.2,104.4,46.2
		L104.4,46.2z M92.5,38.9l2.1,3.3c0,0,7-4.6,10,0c0,0,0.3,0.3,0.3,0.8c0,0.7,0,0.7,0,0.7s-14.6-0.3-14.6,9.7c0,0-0.3,9.1,10.6,4.9
		l4-2.1l0,3.4h9.2l-1-1.1l0-15.3c0,0-0.6-9.1-14-6.7c0,0-1.6,0.4-3.1,0.9C94.6,38,92.5,38.9,92.5,38.9L92.5,38.9z"/>
	<path class="st1" d="M144.8,46.4c0,0,1.8,8.8-3.6,9.1c0,0-5.2-0.6-0.3-7c0,0,0.5-0.5,1.7-1.2C143.7,46.7,144.8,46.4,144.8,46.4
		L144.8,46.4z M132.9,39.1l2.1,3.3c0,0,7-4.6,10,0c0,0,0.3,0.3,0.3,0.8c0,0.7,0,0.7,0,0.7s-14.6-0.3-14.6,9.7c0,0-0.3,9.1,10.6,4.9
		l4-2.1l0,3.4h9.2l-1-1.1l0-15.3c0,0-0.6-9.1-14-6.7c0,0-1.6,0.4-3.1,0.9C134.9,38.1,132.9,39.1,132.9,39.1L132.9,39.1z"/>
	<path class="st5" d="M215.9,46.4c0,0,1.8,8.8-3.6,9.1c0,0-5.2-0.6-0.3-7c0,0,0.5-0.5,1.7-1.2C214.8,46.7,215.9,46.4,215.9,46.4
		L215.9,46.4z M204,39.1l2.1,3.3c0,0,7-4.6,10,0c0,0,0.3,0.3,0.3,0.8c0,0.7,0,0.7,0,0.7s-14.6-0.3-14.6,9.7c0,0-0.3,9.1,10.6,4.9
		l4-2.1l0,3.4h9.2l-1-1.1l0-15.3c0,0-0.6-9.1-14-6.7c0,0-1.6,0.4-3.1,0.9C206,38.1,204,39.1,204,39.1L204,39.1z"/>
</g>
</svg>
