<?xml version="1.0" encoding="utf-8"?>
<!-- Generator: Adobe Illustrator 18.1.1, SVG Export Plug-In . SVG Version: 6.00 Build 0)  -->
<svg version="1.1" id="Capa_1" xmlns="http://www.w3.org/2000/svg" xmlns:xlink="http://www.w3.org/1999/xlink" x="0px" y="0px"
	 viewBox="0 0 240 170" style="enable-background:new 0 0 240 170;" xml:space="preserve">
<style type="text/css">
	.st0{fill:#0A94D6;}
	.st1{fill:#054664;}
	.st2{fill:#FFFFFF;stroke:#FFFFFF;stroke-width:1.9476;stroke-miterlimit:10;}
	.st3{fill:#FFFFFF;}
</style>
<g>
	<path class="st0" d="M7.7,69c0,0,46.9,77.7,101.3,92.9c54.4,15.1,118.7-22.1,118.7-22.1s-10.5-59.1-64.9-74.2S7.7,69,7.7,69z"/>
	<path class="st1" d="M166.8,60.2c-20.7-5.8-49.1-7.4-76.4-7.1C80.6,27.9,75.6,6.2,75.6,6.2s88.7,22,126.7,50.3
		c32.7,24.3,30.1,64.2,28.8,74.9C228.1,119.1,213.8,73.3,166.8,60.2z"/>
	<path class="st2" d="M79.7,90h12c4,0,7.4,1.4,10.2,4.2c2.8,2.8,4.2,6.2,4.2,10.2c0,4-1.4,7.4-4.2,10.2c-1.3,1.3-2.7,2.3-4.2,3
		l10.4,16.7c0.3,0.4,0.4,0.8,0.4,1.3c0,0.7-0.2,1.2-0.7,1.7c-0.5,0.5-1,0.7-1.7,0.7c-0.9,0-1.6-0.4-2.1-1.2l-11.3-18
		c-0.3,0-0.7,0-1.1,0h-9.6v16.8c0,0.7-0.2,1.2-0.7,1.7c-0.5,0.5-1,0.7-1.7,0.7c-0.7,0-1.2-0.2-1.7-0.7c-0.5-0.5-0.7-1-0.7-1.7V92.4
		c0-0.7,0.2-1.2,0.7-1.7S79.1,90,79.7,90z M82.1,94.8V114h9.6c2.7,0,4.9-0.9,6.8-2.8c1.9-1.9,2.8-4.1,2.8-6.8c0-2.7-0.9-4.9-2.8-6.8
		c-1.9-1.9-4.1-2.8-6.8-2.8H82.1z"/>
	<path class="st2" d="M115.7,90h28.8c0.7,0,1.2,0.2,1.7,0.7c0.5,0.5,0.7,1,0.7,1.7c0,0.7-0.2,1.2-0.7,1.7c-0.5,0.5-1,0.7-1.7,0.7
		h-26.4v16.8h19.2c0.7,0,1.2,0.2,1.7,0.7c0.5,0.5,0.7,1,0.7,1.7c0,0.7-0.2,1.2-0.7,1.7c-0.5,0.5-1,0.7-1.7,0.7h-19.2v16.8h26.4
		c0.7,0,1.2,0.2,1.7,0.7c0.5,0.5,0.7,1,0.7,1.7c0,0.7-0.2,1.2-0.7,1.7c-0.5,0.5-1,0.7-1.7,0.7h-28.8c-0.7,0-1.2-0.2-1.7-0.7
		c-0.5-0.5-0.7-1-0.7-1.7V92.4c0-0.7,0.2-1.2,0.7-1.7S115.1,90,115.7,90z"/>
	<g>
		<path class="st1" d="M175.4,78.2c0,0-23,12.9-23,15.2v7.7c0-2.3,23-15.2,23-15.2s23.3,12.9,23.3,15.2v-7.7
			C198.8,91.1,175.4,78.2,175.4,78.2z"/>
	</g>
	<g>
		<polygon class="st3" points="165.8,146.1 165.8,146.1 165.8,144.8 		"/>
		<path class="st3" d="M175.4,91.5c0,0-23,12.9-23,15.2v29.1c0,2.3,1.9,4.1,4.1,4.1h9.2l0-14.1l0,0l0-14.5l9.8,17.6l10.7-17.8
			l0.2,28.8h8.1c2.3,0,4.1-1.9,4.1-4.1v-29.1C198.8,104.4,175.4,91.5,175.4,91.5z"/>
	</g>
</g>
</svg>
