<?xml version="1.0" encoding="utf-8"?>
<!-- Generator: Adobe Illustrator 19.1.0, SVG Export Plug-In . SVG Version: 6.00 Build 0)  -->
<svg version="1.1" id="Capa_1" xmlns="http://www.w3.org/2000/svg" xmlns:xlink="http://www.w3.org/1999/xlink" x="0px" y="0px"
	 viewBox="0 0 250 100" style="enable-background:new 0 0 250 100;" xml:space="preserve">
<style type="text/css">
	.st0{fill:#009092;stroke:#009092;stroke-width:2.8192;stroke-miterlimit:10;}
	.st1{fill:#ACB7AD;}
	.st2{opacity:0.8;}
	.st3{fill:#00729A;}
	.st4{fill:#009092;}
	.st5{fill:#51CEB6;}
</style>
<g>
	<g>
		<path class="st0" d="M65.7,69c3.1,1.9,7.5,3.5,12.3,3.5c7,0,11.1-3.7,11.1-9c0-5-2.8-7.8-10-10.5c-8.7-3.1-14-7.5-14-15
			c0-8.3,6.8-14.4,17.1-14.4c5.4,0,9.4,1.3,11.7,2.6L92,31.6c-1.7-0.9-5.3-2.5-10.1-2.5c-7.2,0-10,4.3-10,7.9c0,5,3.2,7.4,10.5,10.2
			c9,3.5,13.5,7.8,13.5,15.6C96,71,90,78.1,77.5,78.1c-5.1,0-10.7-1.5-13.5-3.4L65.7,69z"/>
		<path class="st0" d="M126.5,77.3l-0.6-4.8h-0.2c-2.1,3-6.2,5.7-11.6,5.7c-7.7,0-11.6-5.4-11.6-10.9c0-9.2,8.2-14.2,22.9-14.2v-0.8
			c0-3.1-0.9-8.8-8.7-8.8c-3.5,0-7.2,1.1-9.9,2.8l-1.6-4.6c3.1-2,7.7-3.4,12.5-3.4c11.6,0,14.5,7.9,14.5,15.6v14.2
			c0,3.3,0.2,6.5,0.6,9.1H126.5z M125.4,57.9c-7.5-0.2-16.1,1.2-16.1,8.6c0,4.5,3,6.6,6.5,6.6c5,0,8.1-3.1,9.2-6.4
			c0.2-0.7,0.4-1.5,0.4-2.2V57.9z"/>
		<path class="st0" d="M140.6,51.1c0-4.5-0.1-8.3-0.3-11.9h6.1l0.2,7.5h0.3c1.7-5.1,5.9-8.3,10.5-8.3c0.8,0,1.3,0.1,2,0.2v6.5
			c-0.7-0.2-1.4-0.2-2.4-0.2c-4.9,0-8.3,3.7-9.3,8.9c-0.2,0.9-0.3,2-0.3,3.2v20.3h-6.8V51.1z"/>
		<path class="st0" d="M169.4,59.6c0.2,9.4,6.1,13.2,13.1,13.2c5,0,7.9-0.9,10.5-2l1.2,5c-2.4,1.1-6.6,2.4-12.7,2.4
			c-11.7,0-18.7-7.7-18.7-19.2s6.8-20.5,17.9-20.5c12.4,0,15.7,10.9,15.7,17.9c0,1.4-0.2,2.5-0.2,3.2H169.4z M189.7,54.6
			c0.1-4.4-1.8-11.2-9.6-11.2c-7,0-10.1,6.4-10.6,11.2H189.7z"/>
		<path class="st0" d="M203.3,77.3c0.2-2.6,0.3-6.4,0.3-9.8v-46h6.8v23.9h0.2c2.4-4.2,6.8-7,13-7c9.4,0,16.1,7.9,16,19.4
			c0,13.6-8.6,20.4-17.1,20.4c-5.5,0-9.9-2.1-12.7-7.2h-0.2l-0.3,6.3H203.3z M210.5,62.1c0,0.9,0.2,1.7,0.3,2.5
			c1.3,4.8,5.3,8.1,10.4,8.1c7.2,0,11.6-5.9,11.6-14.6c0-7.6-3.9-14.2-11.3-14.2c-4.7,0-9.1,3.2-10.5,8.5c-0.2,0.8-0.4,1.7-0.4,2.8
			V62.1z"/>
	</g>
	<g>
		<path class="st1" d="M45.4,40.6c-11.2-7.4-23.3-11-34.5-10.7c0,3.6,0,7.2,0,10.7c11.2-0.7,23.3,2.3,34.5,9.3
			C45.4,46.8,45.4,43.7,45.4,40.6z"/>
	</g>
	<g class="st2">
		<path class="st3" d="M46.8,29.7c-11.5,8.2-24.4,11.8-35.9,10.8c0-3.6,0-7.2,0-10.7c11.5,1.1,24.4-2.4,35.9-10.4
			C46.8,22.9,46.8,26.3,46.8,29.7z"/>
	</g>
	<g>
		<path class="st1" d="M44.2,59.1C33,51.7,20.9,48.1,9.7,48.4c0,3.6,0,7.2,0,10.7c11.2-0.7,23.3,2.3,34.5,9.3
			C44.2,65.3,44.2,62.2,44.2,59.1z"/>
	</g>
	<g class="st2">
		<path class="st4" d="M45.4,49.9c-11.5,7.6-24.3,10.7-35.8,9.3c0-3.6,0-7.2,0-10.7c11.5,2,24.3-0.6,35.8-7.8
			C45.4,43.7,45.4,46.8,45.4,49.9z"/>
	</g>
	<g class="st2">
		<path class="st5" d="M44.2,68.4C33.1,76.3,20.8,79.8,9.7,78.9c0-3.6,0-7.2,0-10.7c11.1,1.4,23.4-1.6,34.5-9.1
			C44.2,62.2,44.2,65.3,44.2,68.4z"/>
	</g>
</g>
</svg>
