<?xml version="1.0" encoding="utf-8"?>
<!-- Generator: Adobe Illustrator 18.1.1, SVG Export Plug-In . SVG Version: 6.00 Build 0)  -->
<svg version="1.1" id="Capa_1" xmlns="http://www.w3.org/2000/svg" xmlns:xlink="http://www.w3.org/1999/xlink" x="0px" y="0px"
	 viewBox="0 0 200 200" style="enable-background:new 0 0 200 200;" xml:space="preserve">
<style type="text/css">
	.st0{fill:#F4A72C;}
</style>
<g>
	<path class="st0" d="M100,5C47.5,5,5,47.5,5,100s42.5,95,95,95c52.5,0,95-42.5,95-95S152.5,5,100,5z M178.3,100
		c0,17.4-5.7,33.5-15.3,46.5L45.8,43.5C59.8,30,78.9,21.7,100,21.7C143.3,21.7,178.3,56.7,178.3,100z M21.7,100
		c0-14.8,4.1-28.6,11.2-40.4l115.8,101.8c-13.4,10.6-30.3,17-48.7,17C56.7,178.3,21.7,143.3,21.7,100z"/>
	<polygon class="st0" points="87.1,59.8 100.9,38.8 114.5,60 138,51.1 136.5,76.2 160.7,82.8 144.8,102.2 160.5,121.8 136.2,128.1 
		137.4,153.3 114,144.1 100.2,165.1 86.7,143.9 63.1,152.8 64.6,127.7 40.4,121.1 56.3,101.7 40.6,82.1 64.9,75.8 63.7,50.6 	"/>
</g>
</svg>
