<?xml version="1.0" encoding="utf-8"?>
<!-- Generator: Adobe Illustrator 19.1.0, SVG Export Plug-In . SVG Version: 6.00 Build 0)  -->
<svg version="1.1" id="Capa_1" xmlns="http://www.w3.org/2000/svg" xmlns:xlink="http://www.w3.org/1999/xlink" x="0px" y="0px"
	 viewBox="0 0 100 100" style="enable-background:new 0 0 100 100;" xml:space="preserve">
<style type="text/css">
	.st0{fill:url(#SVGID_1_);}
	.st1{fill:#FFFFFF;stroke:#AEADB3;stroke-width:1.08;stroke-miterlimit:10;}
	.st2{fill:#0A94D6;stroke:#0A94D6;stroke-width:0.6967;stroke-miterlimit:10;}
	.st3{fill:#0A94D6;}
</style>
<g>
	<radialGradient id="SVGID_1_" cx="50" cy="50.6548" r="45" gradientUnits="userSpaceOnUse">
		<stop  offset="0.4774" style="stop-color:#FFFFFF"/>
		<stop  offset="0.7036" style="stop-color:#FDFDFD"/>
		<stop  offset="0.7851" style="stop-color:#F6F6F7"/>
		<stop  offset="0.8432" style="stop-color:#EBEBEB"/>
		<stop  offset="0.8902" style="stop-color:#DADADB"/>
		<stop  offset="0.9304" style="stop-color:#C4C4C6"/>
		<stop  offset="0.9653" style="stop-color:#AAA9AC"/>
		<stop  offset="0.9968" style="stop-color:#8B8A8D"/>
		<stop  offset="1" style="stop-color:#87868A"/>
	</radialGradient>
	<circle class="st0" cx="50" cy="50.7" r="45"/>
	<circle class="st1" cx="50" cy="50.7" r="33.4"/>
	<polygon class="st2" points="77.3,47 71.8,47 68.4,47 62.9,47 62.9,52.6 68.4,52.6 71.8,52.6 77.3,52.6 	"/>
	<g>
		<path class="st3" d="M52.4,56.3c-0.3,3.7-1.7,6.5-4.1,8.6c-2.4,2.1-5.5,3.1-9.4,3.1c-2.7,0-5.1-0.6-7.2-1.9
			c-2.1-1.3-3.7-3.1-4.8-5.5c-1.1-2.4-1.7-5.2-1.8-8.3v-3.2c0-3.2,0.6-6.1,1.7-8.6c1.1-2.5,2.8-4.4,4.9-5.7s4.6-2,7.4-2
			c3.8,0,6.8,1,9.1,3.1c2.3,2.1,3.7,5,4,8.7h-5.9c-0.3-2.5-1-4.2-2.2-5.3c-1.2-1.1-2.8-1.6-5.1-1.6c-2.6,0-4.6,0.9-6,2.8
			c-1.4,1.9-2.1,4.7-2.1,8.3v3c0,3.7,0.7,6.5,2,8.5c1.3,2,3.3,2.9,5.8,2.9c2.3,0,4.1-0.5,5.3-1.6c1.2-1.1,1.9-2.8,2.2-5.3H52.4z"/>
	</g>
</g>
</svg>
