<?xml version="1.0" encoding="utf-8"?>
<!-- Generator: Adobe Illustrator 19.1.0, SVG Export Plug-In . SVG Version: 6.00 Build 0)  -->
<svg version="1.1" id="Capa_1" xmlns="http://www.w3.org/2000/svg" xmlns:xlink="http://www.w3.org/1999/xlink" x="0px" y="0px"
	 viewBox="0 0 100 100" style="enable-background:new 0 0 100 100;" xml:space="preserve">
<style type="text/css">
	.st0{fill:url(#SVGID_1_);}
	.st1{fill:#FFFFFF;stroke:#AEADB3;stroke-width:1.0784;stroke-miterlimit:10;}
	.st2{fill:#0A94D6;}
</style>
<g>
	<radialGradient id="SVGID_1_" cx="50" cy="50.1435" r="45" gradientUnits="userSpaceOnUse">
		<stop  offset="0.4774" style="stop-color:#FFFFFF"/>
		<stop  offset="0.7036" style="stop-color:#FDFDFD"/>
		<stop  offset="0.7851" style="stop-color:#F6F6F7"/>
		<stop  offset="0.8432" style="stop-color:#EBEBEB"/>
		<stop  offset="0.8902" style="stop-color:#DADADB"/>
		<stop  offset="0.9304" style="stop-color:#C4C4C6"/>
		<stop  offset="0.9653" style="stop-color:#AAA9AC"/>
		<stop  offset="0.9968" style="stop-color:#8B8A8D"/>
		<stop  offset="1" style="stop-color:#87868A"/>
	</radialGradient>
	<circle class="st0" cx="50" cy="50.1" r="45"/>
	<circle class="st1" cx="50" cy="50.1" r="33.4"/>
	<g>
		<path class="st2" d="M38.6,67.8V32.3h12.2c4,0,7.1,0.8,9.2,2.4c2.1,1.6,3.1,4,3.1,7.2c0,1.6-0.4,3.1-1.3,4.4
			c-0.9,1.3-2.2,2.3-3.9,3c1.9,0.5,3.4,1.5,4.4,2.9c1,1.4,1.6,3.2,1.6,5.2c0,3.3-1.1,5.9-3.2,7.7c-2.1,1.8-5.2,2.7-9.2,2.7H38.6z
			 M44.8,47.2h6c1.9,0,3.4-0.4,4.5-1.3s1.6-2.1,1.6-3.7c0-1.8-0.5-3-1.5-3.8c-1-0.8-2.6-1.2-4.7-1.2h-6V47.2z M44.8,51.7v11h6.8
			c1.9,0,3.4-0.5,4.5-1.4s1.6-2.3,1.6-4c0-3.7-1.9-5.5-5.7-5.6H44.8z"/>
	</g>
</g>
</svg>
