<?xml version="1.0" encoding="utf-8"?>
<!-- Generator: Adobe Illustrator 19.1.0, SVG Export Plug-In . SVG Version: 6.00 Build 0)  -->
<svg version="1.1" id="Capa_1" xmlns="http://www.w3.org/2000/svg" xmlns:xlink="http://www.w3.org/1999/xlink" x="0px" y="0px"
	 viewBox="0 0 250 250" style="enable-background:new 0 0 250 250;" xml:space="preserve">
<style type="text/css">
	.st0{fill:url(#SVGID_1_);}
	.st1{fill:#FFFFFF;stroke:#AEADB3;stroke-width:0.66;stroke-miterlimit:10;}
	.st2{fill:url(#SVGID_2_);}
	.st3{fill:url(#SVGID_3_);}
	.st4{fill:url(#SVGID_4_);}
	.st5{fill:url(#SVGID_5_);}
	.st6{fill:#0A94D6;}
	.st7{fill:#0A94D6;stroke:#0A94D6;stroke-width:0.7595;stroke-miterlimit:10;}
	.st8{fill:#5B5B5F;stroke:#5B5B5F;stroke-width:0.44;stroke-miterlimit:10;}
	.st9{fill:url(#SVGID_6_);}
	.st10{fill:#5B5B5F;stroke:#AEADB3;stroke-width:0.2437;stroke-miterlimit:10;}
</style>
<g>
	<radialGradient id="SVGID_1_" cx="125.7177" cy="125.2108" r="112.5" gradientUnits="userSpaceOnUse">
		<stop  offset="0.4774" style="stop-color:#FFFFFF"/>
		<stop  offset="0.7036" style="stop-color:#FDFDFD"/>
		<stop  offset="0.7851" style="stop-color:#F6F6F7"/>
		<stop  offset="0.8432" style="stop-color:#EBEBEB"/>
		<stop  offset="0.8902" style="stop-color:#DADADB"/>
		<stop  offset="0.9304" style="stop-color:#C4C4C6"/>
		<stop  offset="0.9653" style="stop-color:#AAA9AC"/>
		<stop  offset="0.9968" style="stop-color:#8B8A8D"/>
		<stop  offset="1" style="stop-color:#87868A"/>
	</radialGradient>
	<circle class="st0" cx="125.7" cy="125.2" r="112.5"/>
	<circle class="st1" cx="125.7" cy="125.2" r="94.4"/>
	<linearGradient id="SVGID_2_" gradientUnits="userSpaceOnUse" x1="155.3342" y1="47.9466" x2="144.7652" y2="87.3907">
		<stop  offset="6.030151e-002" style="stop-color:#3B92AD"/>
		<stop  offset="0.1402" style="stop-color:#3E9CBA"/>
		<stop  offset="0.3148" style="stop-color:#44ACD2"/>
		<stop  offset="0.5021" style="stop-color:#48B8E2"/>
		<stop  offset="0.7092" style="stop-color:#4ABFEC"/>
		<stop  offset="0.9749" style="stop-color:#4BC1EF"/>
	</linearGradient>
	<path class="st2" d="M127.7,43V80c9.9,0.4,18.9,4,26.2,9.8l26.3-26.3C166.1,51.1,147.8,43.4,127.7,43z"/>
	<linearGradient id="SVGID_3_" gradientUnits="userSpaceOnUse" x1="96.2832" y1="48.3432" x2="109.685" y2="85.1645">
		<stop  offset="6.030151e-002" style="stop-color:#74AEC4"/>
		<stop  offset="0.1359" style="stop-color:#82B8CD"/>
		<stop  offset="0.2904" style="stop-color:#9AC8DD"/>
		<stop  offset="0.4561" style="stop-color:#AAD4E8"/>
		<stop  offset="0.6393" style="stop-color:#B4DBEE"/>
		<stop  offset="0.8744" style="stop-color:#B7DDF0"/>
	</linearGradient>
	<path class="st3" d="M98.4,89.1c7.1-5.4,15.8-8.7,25.3-9.1V43C104,43.4,86,50.8,72.1,62.8L98.4,89.1z"/>
	<linearGradient id="SVGID_4_" gradientUnits="userSpaceOnUse" x1="201.4636" y1="92.9198" x2="164.0227" y2="110.3788">
		<stop  offset="6.030151e-002" style="stop-color:#054664"/>
		<stop  offset="7.635739e-002" style="stop-color:#054D6E"/>
		<stop  offset="0.1373" style="stop-color:#07638E"/>
		<stop  offset="0.2036" style="stop-color:#0875A8"/>
		<stop  offset="0.276" style="stop-color:#0983BD"/>
		<stop  offset="0.3577" style="stop-color:#0A8CCB"/>
		<stop  offset="0.4563" style="stop-color:#0A92D3"/>
		<stop  offset="0.6181" style="stop-color:#0A94D6"/>
	</linearGradient>
	<path class="st4" d="M208,125.2c0-23.2-9.6-44.1-25-59l-26.2,26.2c8.7,8.2,14.1,19.9,14.1,32.8v0H208z"/>
	<linearGradient id="SVGID_5_" gradientUnits="userSpaceOnUse" x1="50.1873" y1="92.4548" x2="87.6293" y2="109.9143">
		<stop  offset="6.030151e-002" style="stop-color:#444242"/>
		<stop  offset="6.526667e-002" style="stop-color:#464444"/>
		<stop  offset="0.199" style="stop-color:#6B696B"/>
		<stop  offset="0.3308" style="stop-color:#88878B"/>
		<stop  offset="0.4583" style="stop-color:#9D9CA1"/>
		<stop  offset="0.5797" style="stop-color:#AAA9AE"/>
		<stop  offset="0.6884" style="stop-color:#AEADB3"/>
	</linearGradient>
	<path class="st5" d="M69.2,65.4c-15.9,15-25.8,36.2-25.8,59.8h37.1v0c0-13.3,5.8-25.3,14.9-33.6L69.2,65.4z"/>
	<g>
		<g>
			<path class="st6" d="M121.1,186.8H98.4l-4.8,13.7H83l22.2-58.7h9.2l22.2,58.7h-10.6L121.1,186.8z M101.3,178.6h17l-8.5-24.4
				L101.3,178.6z"/>
		</g>
		<polygon class="st7" points="175.5,165.1 159.8,165.1 150.1,165.1 134.4,165.1 134.4,174.8 150.1,174.8 159.8,174.8 175.5,174.8 
					"/>
	</g>
	<polygon class="st8" points="123.8,120.8 189.6,97.9 128.4,131.3 	"/>
	<g>
		<radialGradient id="SVGID_6_" cx="125.8897" cy="125.3972" r="11.3225" gradientUnits="userSpaceOnUse">
			<stop  offset="0.1256" style="stop-color:#FFFFFF"/>
			<stop  offset="0.3787" style="stop-color:#FDFCFD"/>
			<stop  offset="0.53" style="stop-color:#F4F4F4"/>
			<stop  offset="0.6544" style="stop-color:#E6E6E7"/>
			<stop  offset="0.7643" style="stop-color:#D2D2D3"/>
			<stop  offset="0.8646" style="stop-color:#B8B7BA"/>
			<stop  offset="0.9567" style="stop-color:#99989B"/>
			<stop  offset="1" style="stop-color:#87868A"/>
		</radialGradient>
		<circle class="st9" cx="125.9" cy="125.4" r="11.3"/>
		<circle class="st10" cx="125.9" cy="125.4" r="7.2"/>
	</g>
</g>
</svg>
