<?xml version="1.0" encoding="utf-8"?>
<!-- Generator: Adobe Illustrator 19.1.0, SVG Export Plug-In . SVG Version: 6.00 Build 0)  -->
<svg version="1.1" id="Capa_1" xmlns="http://www.w3.org/2000/svg" xmlns:xlink="http://www.w3.org/1999/xlink" x="0px" y="0px"
	 viewBox="0 0 100 100" style="enable-background:new 0 0 100 100;" xml:space="preserve">
<style type="text/css">
	.st0{fill:url(#SVGID_1_);}
	.st1{fill:#FFFFFF;stroke:#AEADB3;stroke-width:1.08;stroke-miterlimit:10;}
	.st2{fill:#0A94D6;}
</style>
<g>
	<radialGradient id="SVGID_1_" cx="50" cy="50.6548" r="45" gradientUnits="userSpaceOnUse">
		<stop  offset="0.4774" style="stop-color:#FFFFFF"/>
		<stop  offset="0.7036" style="stop-color:#FDFDFD"/>
		<stop  offset="0.7851" style="stop-color:#F6F6F7"/>
		<stop  offset="0.8432" style="stop-color:#EBEBEB"/>
		<stop  offset="0.8902" style="stop-color:#DADADB"/>
		<stop  offset="0.9304" style="stop-color:#C4C4C6"/>
		<stop  offset="0.9653" style="stop-color:#AAA9AC"/>
		<stop  offset="0.9968" style="stop-color:#8B8A8D"/>
		<stop  offset="1" style="stop-color:#87868A"/>
	</radialGradient>
	<circle class="st0" cx="50" cy="50.7" r="45"/>
	<circle class="st1" cx="50" cy="50.7" r="33.4"/>
	<g>
		<path class="st2" d="M38.2,68.1V32.8h10.4c3.1,0,5.9,0.7,8.3,2.1c2.4,1.4,4.3,3.4,5.6,5.9c1.3,2.6,2,5.5,2,8.8v1.8
			c0,3.3-0.7,6.3-2,8.8c-1.3,2.5-3.2,4.5-5.7,5.9c-2.5,1.4-5.3,2.1-8.5,2.1H38.2z M44.3,37.8v25.4h4c3.2,0,5.7-1,7.4-3
			c1.7-2,2.6-4.9,2.6-8.6v-2c0-3.8-0.8-6.7-2.5-8.8s-4.1-3-7.2-3H44.3z"/>
	</g>
</g>
</svg>
