<?xml version="1.0" encoding="utf-8"?>
<!-- Generator: Adobe Illustrator 19.1.0, SVG Export Plug-In . SVG Version: 6.00 Build 0)  -->
<svg version="1.1" id="Capa_1" xmlns="http://www.w3.org/2000/svg" xmlns:xlink="http://www.w3.org/1999/xlink" x="0px" y="0px"
	 viewBox="0 0 100 100" style="enable-background:new 0 0 100 100;" xml:space="preserve">
<style type="text/css">
	.st0{fill:none;stroke:#0A94D6;stroke-width:2.8797;stroke-miterlimit:10;}
	.st1{fill:#0A94D6;}
	.st2{fill:#FFFFFF;}
</style>
<g>
	<circle class="st0" cx="49.8" cy="50" r="37.9"/>
	<circle class="st0" cx="49.8" cy="50" r="47.5"/>
	<path class="st1" d="M79.9,13.2l-74,54.9c3.1,7.4,7.9,13.8,14.1,18.8l73.9-54.8C90.8,24.6,86,18.2,79.9,13.2z"/>
	<g>
		<path class="st2" d="M23.6,72.3c0.8,1.2,1,2.4,0.7,3.6s-1.1,2.3-2.3,3.2c-1.4,1-2.8,1.3-4.2,1c-1.5-0.4-2.8-1.3-3.9-2.9l-0.5-0.7
			c-0.7-1-1.2-2.1-1.4-3.1c-0.2-1-0.1-2,0.2-2.9s1-1.7,1.9-2.3c1.2-0.9,2.5-1.3,3.7-1.2s2.3,0.7,3.3,1.8l-2.2,1.6
			c-0.6-0.7-1.1-1-1.7-1.1c-0.6-0.1-1.2,0.1-1.8,0.6c-0.7,0.5-1.1,1.2-1.1,2c0,0.8,0.4,1.7,1.2,2.9l0.6,0.8c0.8,1.2,1.6,1.9,2.4,2.2
			s1.5,0.1,2.2-0.4c0.7-0.5,1.1-1,1.2-1.6c0.1-0.6,0-1.2-0.5-1.9L23.6,72.3z"/>
		<path class="st2" d="M34.3,66.6l-3.9,2.8l0.9,2.7L29,73.8l-3.8-13.6l2-1.5L39,66.6l-2.3,1.7L34.3,66.6z M29.7,67.2l2.7-1.9l-4.2-3
			L29.7,67.2z"/>
		<path class="st2" d="M43.2,60.9l4.7-3.4l1.3,1.8l-6.9,5l-7.7-10.7l2.2-1.6L43.2,60.9z"/>
		<path class="st2" d="M55,55l-2.2,1.6L45,45.9l2.2-1.6L55,55z"/>
		<path class="st2" d="M59.3,51.9l-7.7-10.7l3.3-2.4c0.9-0.7,1.9-1.1,3-1.2c1-0.1,2.1,0.1,3,0.5c1,0.5,1.8,1.2,2.6,2.2l0.4,0.5
			c0.7,1,1.2,2,1.3,3.1c0.2,1.1,0,2.1-0.4,3.1c-0.4,1-1.1,1.8-2.1,2.5L59.3,51.9z M55,41.4l5.2,7.1l1.1-0.8c0.9-0.6,1.3-1.4,1.4-2.3
			s-0.3-1.9-1.1-2.9L61.2,42c-0.8-1.1-1.6-1.7-2.5-2s-1.7,0-2.6,0.6L55,41.4z"/>
		<path class="st2" d="M75.6,36.7l-3.9,2.8l0.9,2.7l-2.3,1.7l-3.8-13.6l2-1.5l11.8,7.8L78,38.4L75.6,36.7z M71.1,37.3l2.7-1.9
			l-4.2-3L71.1,37.3z"/>
		<path class="st2" d="M83.6,34.3l-7.7-10.7l3.3-2.4c0.9-0.7,1.9-1.1,3-1.2c1-0.1,2.1,0.1,3,0.5c1,0.5,1.8,1.2,2.6,2.2l0.4,0.5
			c0.7,1,1.2,2,1.3,3.1c0.2,1.1,0,2.1-0.4,3.1c-0.4,1-1.1,1.8-2.1,2.5L83.6,34.3z M79.3,23.8l5.2,7.1l1.1-0.8
			c0.9-0.6,1.3-1.4,1.4-2.3c0-0.9-0.3-1.9-1.1-2.9l-0.4-0.6c-0.8-1.1-1.6-1.7-2.5-2s-1.7,0-2.6,0.6L79.3,23.8z"/>
	</g>
	<path class="st1" d="M61.6,22c-3.7-1.7-7.8-2.6-12.1-2.6C33.2,19.4,20,32.6,20,48.9c0,1.3,0.1,2.5,0.2,3.8L61.6,22z"/>
	<path class="st1" d="M38.1,78.3c3.7,1.7,7.8,2.6,12.1,2.6c16.3,0,29.5-13.2,29.5-29.5c0-1.3-0.1-2.5-0.2-3.8L38.1,78.3z"/>
</g>
</svg>
