<?xml version="1.0" encoding="utf-8"?>
<!-- Generator: Adobe Illustrator 18.1.1, SVG Export Plug-In . SVG Version: 6.00 Build 0)  -->
<svg version="1.1" id="Capa_1" xmlns="http://www.w3.org/2000/svg" xmlns:xlink="http://www.w3.org/1999/xlink" x="0px" y="0px"
	 viewBox="0 0 200 200" style="enable-background:new 0 0 200 200;" xml:space="preserve">
<style type="text/css">
	.st0{fill:#F4A72C;}
</style>
<g>
	<path class="st0" d="M99.4,37.4c-26.1,0-47.3,21.2-47.3,47.3c0,26.1,47.3,76.6,47.3,76.6s47.3-50.5,47.3-76.6
		C146.7,58.5,125.5,37.4,99.4,37.4z M99.4,108.3c-14.3,0-25.9-11.6-25.9-25.9s11.6-25.9,25.9-25.9s25.9,11.6,25.9,25.9
		S113.6,108.3,99.4,108.3z"/>
	<path class="st0" d="M99.4,9.3c-49.7,0-90,40.3-90,90s40.3,90,90,90c49.7,0,90-40.3,90-90S149.1,9.3,99.4,9.3z M173.6,99.3
		c0,16.5-5.4,31.8-14.5,44.1L48,45.8C61.3,33,79.4,25.1,99.4,25.1C140.4,25.1,173.6,58.3,173.6,99.3z M25.2,99.3
		c0-14,3.9-27.1,10.6-38.3l109.7,96.4c-12.7,10.1-28.7,16.1-46.1,16.1C58.4,173.5,25.2,140.3,25.2,99.3z"/>
</g>
</svg>
