<?xml version="1.0" encoding="utf-8"?>
<!-- Generator: Adobe Illustrator 18.1.1, SVG Export Plug-In . SVG Version: 6.00 Build 0)  -->
<svg version="1.1" id="Capa_1" xmlns="http://www.w3.org/2000/svg" xmlns:xlink="http://www.w3.org/1999/xlink" x="0px" y="0px"
	 viewBox="0 0 200 200" style="enable-background:new 0 0 200 200;" xml:space="preserve">
<style type="text/css">
	.st0{fill:#A01127;stroke:#A01127;stroke-width:5.8599;stroke-miterlimit:10;}
</style>
<g>
	<path class="st0" d="M30.3,175.9c-2.7,2.1-6.2,3.2-10.7,3.2c-2,0-3.8-0.4-5.3-1.2c-1.6-0.8-2.9-1.9-4-3.2c-1.1-1.3-2-2.9-2.5-4.6
		c-0.6-1.7-0.9-3.4-0.9-5.2c0-2.5,0.5-4.5,1.5-6.2c1-1.7,2.2-3.2,3.7-4.4c1.5-1.2,3-2.2,4.7-3.1c1.7-0.8,3.2-1.5,4.6-2.1
		c4.7-3,9.9-6.8,15.8-11.2c5.8-4.4,11.8-9.2,18-14.3c6.2-5.1,12.3-10.2,18.5-15.5c6.1-5.3,11.9-10.3,17.4-15.1l7.9-7
		c-1.8-6-3.5-11.1-5.3-15.3c-1.8-4.3-3.5-8.1-5.3-11.5c-1.8-3.4-3.5-6.6-5.3-9.5c-1.8-3-3.8-6.2-5.9-9.5c-1.9-3-3.3-5.4-4.3-7
		c-1-1.6-1.5-3.3-1.5-4.9c0-1.2,0.3-2.6,0.9-4.3c0.6-1.7,1.5-3.3,2.7-4.9c1.2-1.6,2.8-2.9,4.7-4c1.9-1.1,4.2-1.7,6.7-1.7
		c3.7,0,7,0.8,9.9,2.4c2.9,1.6,5.4,3.6,7.6,6c2.2,2.5,4.1,5.1,5.8,8c1.6,2.9,3.1,5.6,4.4,8.1c0.7,1.4,1.5,3.3,2.3,5.6
		c0.8,2.3,1.6,4.8,2.4,7.4c0.8,2.6,1.5,5.2,2.2,7.7c0.7,2.5,1.3,4.7,1.8,6.6c5.1-4.9,10.1-10,15-15.4s10.2-11.6,16.2-18.7
		c1.9-2.2,3.8-4.6,5.9-7.2s4.2-4.9,6.4-7.1s4.5-3.9,6.8-5.3s4.8-2.1,7.5-2.1c4.6,0,7.8,1.2,9.7,3.5s2.9,5.4,2.9,9.1
		c0,4-0.7,7.6-2.2,10.9c-1.5,3.3-3.4,5.9-5.7,7.8c-3.4,2.7-7.1,5.9-11.1,9.7c-4,3.8-8.1,7.8-12.3,12c-4.1,4.2-8.3,8.3-12.3,12.4
		s-7.8,7.8-11.2,11c-1.4,1.3-2.6,2.6-3.6,3.9c-1,1.3-1.5,2.9-1.5,4.9c0,1.2,0.3,2.6,1,4.4c0.6,1.8,1.5,3.6,2.5,5.6s2,4,3,6
		s1.8,3.9,2.5,5.5c1.4,3.2,3.4,6.9,5.9,11.2c2.5,4.3,5,8.8,7.5,13.6c2.5,4.7,4.7,9.5,6.6,14.4s2.8,9.6,2.8,14c0,2.8-0.4,5.4-1.2,7.8
		c-0.8,2.4-1.9,4.5-3.2,6.3c-1.3,1.8-2.7,3.2-4.3,4.3c-1.6,1.1-3.1,1.6-4.5,1.6c-3,0-5.5-0.4-7.3-1.1s-3.4-1.8-4.6-3.2
		c-1.3-1.4-2.4-3.1-3.2-5.2s-1.8-4.4-2.9-7.1c-1.5-4.3-3.5-9.3-6-14.9c-2.5-5.6-5-11.1-7.6-16.6c-2.6-5.5-5.1-10.6-7.4-15.3
		c-2.3-4.7-4.1-8.3-5.4-10.8c-3.3,2.6-6.6,5.2-10.1,8c-3.4,2.7-7.9,6.3-13.4,10.6c-5.5,4.3-12.5,9.8-20.9,16.5
		S43.6,165.5,30.3,175.9z"/>
</g>
</svg>
