<?xml version="1.0" encoding="utf-8"?>
<!-- Generator: Adobe Illustrator 18.1.1, SVG Export Plug-In . SVG Version: 6.00 Build 0)  -->
<svg version="1.1" id="Capa_1" xmlns="http://www.w3.org/2000/svg" xmlns:xlink="http://www.w3.org/1999/xlink" x="0px" y="0px"
	 viewBox="0 0 200 200" style="enable-background:new 0 0 200 200;" xml:space="preserve">
<style type="text/css">
	.st0{fill:#F4A72C;}
	.st1{fill:#FFFFFF;}
	.st2{fill:#FFFFFF;stroke:#F4A72C;stroke-width:2.3496;stroke-miterlimit:10;}
	.st3{fill:none;stroke:#F4A72C;stroke-width:2.3496;stroke-miterlimit:10;}
</style>
<g>
	<path class="st0" d="M136,85.2h-22.2v-8.7c0-3.7-3-6.7-6.7-6.7H91.7c-3.7,0-6.7,3-6.7,6.7v8.7H62.8c-3.7,0-6.7,3-6.7,6.7v41.7
		c0,3.7,3,6.7,6.7,6.7H136c3.7,0,6.7-3,6.7-6.7V91.8C142.6,88.2,139.6,85.2,136,85.2z"/>
	<circle class="st1" cx="100.1" cy="113.3" r="19.5"/>
	<circle class="st2" cx="100.1" cy="113.3" r="11"/>
	<path class="st1" d="M102.5,85.6h-6.3c-3.3,0-6.1-2.7-6.1-6.1v0c0-3.3,2.7-6.1,6.1-6.1h6.3c3.3,0,6.1,2.7,6.1,6.1v0
		C108.6,82.8,105.9,85.6,102.5,85.6z"/>
	<line class="st3" x1="99.4" y1="47.6" x2="99.4" y2="65"/>
	<line class="st3" x1="80.6" y1="54" x2="92.8" y2="66.3"/>
	<line class="st3" x1="117.6" y1="54" x2="105.3" y2="66.3"/>
	<path class="st0" d="M99.4,8.7c-49.7,0-90,40.3-90,90c0,49.7,40.3,90,90,90c49.7,0,90-40.3,90-90C189.4,49,149.1,8.7,99.4,8.7z
		 M173.6,98.7c0,16.5-5.5,31.7-14.6,44L48,45.2c13.3-12.8,31.4-20.7,51.4-20.7C140.4,24.5,173.6,57.7,173.6,98.7z M25.2,98.7
		c0-14,4-27.1,10.7-38.2l109.6,96.3c-12.7,10.1-28.7,16.1-46.1,16.1C58.4,172.9,25.2,139.7,25.2,98.7z"/>
</g>
</svg>
