<?xml version="1.0" encoding="utf-8"?>
<!-- Generator: Adobe Illustrator 18.1.1, SVG Export Plug-In . SVG Version: 6.00 Build 0)  -->
<svg version="1.1" id="Capa_1" xmlns="http://www.w3.org/2000/svg" xmlns:xlink="http://www.w3.org/1999/xlink" x="0px" y="0px"
	 viewBox="0 0 200 200" style="enable-background:new 0 0 200 200;" xml:space="preserve">
<style type="text/css">
	.st0{fill:#FFFFFF;stroke:#0A94D6;stroke-width:7.079;stroke-miterlimit:10;}
	.st1{fill:#0A94D6;stroke:#0A94D6;stroke-width:1.5572;stroke-miterlimit:10;}
	.st2{fill:#FFFFFF;stroke:#0A94D6;stroke-width:8.8117;stroke-miterlimit:10;stroke-dasharray:15.1859,15.1859;}
	.st3{fill:#0A94D6;stroke:#0A94D6;stroke-width:4.3203;stroke-miterlimit:10;}
</style>
<g>
	<g>
		<path class="st0" d="M122.1,160.9H42c-8,0-14.5-6.5-14.5-14.5V57.9c0-8,6.5-14.5,14.5-14.5h80.1c8,0,14.5,6.5,14.5,14.5v88.4
			C136.7,154.4,130.1,160.9,122.1,160.9z"/>
		<path class="st1" d="M119.1,52.7c0.2-0.9,0.4-1.8,0.4-2.7v-4.2c0-6.2-5.1-11.3-11.3-11.3c0,0-8.9-5.6-8.9-8.8
			c0-9.6-7.8-17.5-17.5-17.5c-9.7,0-17.5,7.8-17.5,17.5c0,3.2-10.1,8.8-10.1,8.8c-6.2,0-11.3,5.1-11.3,11.3V50
			c0,0.9,0.1,1.9,0.4,2.7H119.1z M81.7,16.5c5.1,0,9.2,4.1,9.2,9.2c0,4.2-2.8,7.7-6.6,8.8h-5.1c-3.8-1.1-6.6-4.6-6.6-8.8
			C72.5,20.6,76.6,16.5,81.7,16.5z"/>
	</g>
	<g>
		<g>
			<circle class="st2" cx="113.2" cy="130.2" r="58"/>
		</g>
		<g>
			<path class="st3" d="M113.9,137.8l-1.8-1.5c-0.6-0.5-0.8-1.5-0.2-2.3l30.9-36.4c0.5-0.6,1.5-0.8,2.3-0.2l1.8,1.5
				c0.6,0.5,0.8,1.5,0.2,2.3l-31,36.5C115.6,138.3,114.6,138.4,113.9,137.8z"/>
			<path class="st3" d="M113.9,135.7L113.9,135.7c-0.5,0.6-1.5,0.8-2.3,0.2l-26.9-23c-0.6-0.5-0.8-1.5-0.2-2.3l0,0
				c0.5-0.6,1.5-0.8,2.3-0.2l27,22.9C114.5,134,114.6,135.1,113.9,135.7z"/>
		</g>
	</g>
</g>
</svg>
