<?xml version="1.0" encoding="utf-8"?>
<!-- Generator: Adobe Illustrator 18.1.1, SVG Export Plug-In . SVG Version: 6.00 Build 0)  -->
<svg version="1.1" id="Capa_1" xmlns="http://www.w3.org/2000/svg" xmlns:xlink="http://www.w3.org/1999/xlink" x="0px" y="0px"
	 viewBox="0 0 200 200" style="enable-background:new 0 0 200 200;" xml:space="preserve">
<style type="text/css">
	.st0{fill:#FFFFFF;stroke:#0A94D6;stroke-width:8.3418;stroke-miterlimit:10;}
	.st1{fill:#0A94D6;stroke:#0A94D6;stroke-width:1.835;stroke-miterlimit:10;}
	.st2{fill:#0A94D6;}
	.st3{fill:#0A94D6;stroke:#0A94D6;stroke-width:1.6773;stroke-miterlimit:10;}
</style>
<g>
	<path class="st0" d="M139.9,188.8l-81,0.2c-13.1,0-23.8-10.7-23.8-23.7l-0.2-90.9c0-13.1,10.7-23.8,23.7-23.8l81-0.2
		c13.1,0,23.8,10.7,23.8,23.7l0.2,90.9C163.7,178.1,153,188.8,139.9,188.8z"/>
	<path class="st1" d="M142.7,61.3c0.3-1,0.4-2.1,0.4-3.2l0-5c0-7.3-6-13.3-13.4-13.3c0,0-10.5-6.6-10.5-10.3
		C119.2,18.1,110,9,98.6,9C87.2,9,78,18.2,78,29.6C78,33.4,66.1,40,66.1,40c-7.3,0-13.3,6-13.3,13.3l0,5c0,1.1,0.2,2.2,0.4,3.2
		L142.7,61.3z M98.6,18.7c6,0,10.8,4.8,10.8,10.8c0,4.9-3.3,9.1-7.8,10.4l-6,0c-4.5-1.3-7.8-5.4-7.8-10.4
		C87.8,23.6,92.7,18.8,98.6,18.7z"/>
	<g>
		<g>
			<g>
				<path class="st2" d="M46.4,146.3c5.5,7.8,10.4,16,14.7,24.5c2,4,7.9,2.7,9.1-1.2c4-13.4,8.4-28.2,20.9-36.3
					c5.3-3.5,0.4-12-5-8.6c-14.8,9.6-20.6,26.1-25.4,42.2c3-0.4,6-0.8,9.1-1.2c-4.3-8.5-9.2-16.7-14.7-24.5
					C51.3,136.1,42.7,141.1,46.4,146.3L46.4,146.3z"/>
			</g>
		</g>
		<path class="st3" d="M145.7,88.5h-40.2c-2.3,0-4.2-1.9-4.2-4.2v0c0-2.3,1.9-4.2,4.2-4.2h40.2c2.3,0,4.2,1.9,4.2,4.2v0
			C149.9,86.6,148,88.5,145.7,88.5z"/>
		<path class="st3" d="M145.7,126.3h-40.2c-2.3,0-4.2-1.9-4.2-4.2v0c0-2.3,1.9-4.2,4.2-4.2h40.2c2.3,0,4.2,1.9,4.2,4.2v0
			C149.9,124.4,148,126.3,145.7,126.3z"/>
		<path class="st3" d="M145.7,164.1h-40.2c-2.3,0-4.2-1.9-4.2-4.2v0c0-2.3,1.9-4.2,4.2-4.2h40.2c2.3,0,4.2,1.9,4.2,4.2v0
			C149.9,162.3,148,164.1,145.7,164.1z"/>
	</g>
</g>
</svg>
