<?xml version="1.0" encoding="utf-8"?>
<!-- Generator: Adobe Illustrator 18.1.1, SVG Export Plug-In . SVG Version: 6.00 Build 0)  -->
<svg version="1.1" id="Capa_1" xmlns="http://www.w3.org/2000/svg" xmlns:xlink="http://www.w3.org/1999/xlink" x="0px" y="0px"
	 viewBox="0 0 200 200" style="enable-background:new 0 0 200 200;" xml:space="preserve">
<style type="text/css">
	.st0{fill:#FFFFFF;stroke:#0A94D6;stroke-width:7.5716;stroke-miterlimit:10;}
	.st1{fill:#0A94D6;stroke:#0A94D6;stroke-width:1.6656;stroke-miterlimit:10;}
	.st2{fill:#0A94D6;}
</style>
<g>
	<path class="st0" d="M130.4,172.5l-73.6,0.1c-11.9,0-21.6-9.7-21.6-21.5l-0.2-82.5c0-11.9,9.7-21.6,21.5-21.6l73.6-0.1
		c11.9,0,21.6,9.7,21.6,21.5l0.2,82.5C152,162.7,142.3,172.4,130.4,172.5z"/>
	<path class="st1" d="M133,56.7c0.2-0.9,0.4-1.9,0.4-2.9l0-4.5c0-6.6-5.5-12.1-12.1-12.1c0,0-9.5-6-9.5-9.4
		c0-10.3-8.4-18.7-18.7-18.6c-10.3,0-18.7,8.4-18.7,18.7c0,3.4-10.8,9.4-10.8,9.4c-6.7,0-12.1,5.5-12.1,12.1l0,4.5
		c0,1,0.1,2,0.4,2.9L133,56.7z M93,18.1c5.4,0,9.8,4.4,9.8,9.8c0,4.5-3,8.2-7.1,9.4l-5.4,0c-4.1-1.2-7.1-4.9-7.1-9.4
		C83.2,22.5,87.5,18.1,93,18.1z"/>
	<g>
		<polygon class="st2" points="117.2,155.1 133.8,140.1 164.8,174.2 148.2,189.2 		"/>
		<path class="st2" d="M106.2,78.9c-19.9-6.9-41.5,3.7-48.4,23.5c-1.4,4.1-2.1,8.3-2.1,12.4c0,15.8,9.9,30.5,25.6,36
			c19.9,6.9,41.5-3.7,48.4-23.5c1.4-4.1,2.1-8.3,2.1-12.4C131.8,99.1,121.9,84.4,106.2,78.9z M120,124c-2.4,7-7.4,12.6-14.1,15.9
			c-6.7,3.2-14.2,3.7-21.2,1.3C73.5,137.2,66,126.7,66,114.9c0-3.1,0.5-6.1,1.5-9.1l0,0c2.4-7,7.4-12.6,14.1-15.9
			c6.7-3.2,14.2-3.7,21.2-1.3c11.2,3.9,18.7,14.4,18.7,26.2C121.5,118,121,121,120,124z"/>
	</g>
</g>
</svg>
